<svg width="33" height="28" viewBox="0 0 33 28" fill="none" xmlns="http://www.w3.org/2000/svg">
<mask id="path-1-inside-1_392_1518" fill="white">
<path d="M3.41928 15.4117H2.95947V2.17301C2.95947 1.10049 3.74636 0.228027 4.71391 0.228027H6.08649C7.05365 0.228027 7.84055 1.10049 7.84055 2.17301V3.5513H7.38073V2.17301C7.38073 1.35417 6.79998 0.687844 6.08649 0.687844H4.71391C4.00004 0.687844 3.41928 1.35417 3.41928 2.17301V15.4117Z"/>
</mask>
<path d="M3.41928 15.4117H2.95947V2.17301C2.95947 1.10049 3.74636 0.228027 4.71391 0.228027H6.08649C7.05365 0.228027 7.84055 1.10049 7.84055 2.17301V3.5513H7.38073V2.17301C7.38073 1.35417 6.79998 0.687844 6.08649 0.687844H4.71391C4.00004 0.687844 3.41928 1.35417 3.41928 2.17301V15.4117Z" fill="#414042"/>
<path d="M3.41928 15.4117V16.4117H4.41928V15.4117H3.41928ZM2.95947 15.4117H1.95947V16.4117H2.95947V15.4117ZM7.84055 3.5513V4.5513H8.84055V3.5513H7.84055ZM7.38073 3.5513H6.38073V4.5513H7.38073V3.5513ZM3.41928 15.4117V14.4117H2.95947V15.4117V16.4117H3.41928V15.4117ZM2.95947 15.4117H3.95947V2.17301H2.95947H1.95947V15.4117H2.95947ZM2.95947 2.17301H3.95947C3.95947 1.55325 4.39318 1.22803 4.71391 1.22803V0.228027V-0.771973C3.09954 -0.771973 1.95947 0.647741 1.95947 2.17301H2.95947ZM4.71391 0.228027V1.22803H6.08649V0.228027V-0.771973H4.71391V0.228027ZM6.08649 0.228027V1.22803C6.4067 1.22803 6.84054 1.5531 6.84054 2.17301H7.84055H8.84055C8.84055 0.647887 7.70061 -0.771973 6.08649 -0.771973V0.228027ZM7.84055 2.17301H6.84054V3.5513H7.84055H8.84055V2.17301H7.84055ZM7.84055 3.5513V2.5513H7.38073V3.5513V4.5513H7.84055V3.5513ZM7.38073 3.5513H8.38073V2.17301H7.38073H6.38073V3.5513H7.38073ZM7.38073 2.17301H8.38073C8.38073 0.935493 7.47701 -0.312156 6.08649 -0.312156V0.687844V1.68784C6.11772 1.68784 6.17748 1.70027 6.24728 1.78037C6.31864 1.86225 6.38073 1.99846 6.38073 2.17301H7.38073ZM6.08649 0.687844V-0.312156H4.71391V0.687844V1.68784H6.08649V0.687844ZM4.71391 0.687844V-0.312156C3.32318 -0.312156 2.41928 0.935293 2.41928 2.17301H3.41928H4.41928C4.41928 1.99846 4.48137 1.86229 4.55272 1.78044C4.62248 1.7004 4.68233 1.68784 4.71391 1.68784V0.687844ZM3.41928 2.17301H2.41928V15.4117H3.41928H4.41928V2.17301H3.41928Z" fill="#6B7280" mask="url(#path-1-inside-1_392_1518)"/>
<path d="M30.0601 17.1655L29.3169 20.6782C28.8988 22.6537 27.1546 24.0678 25.1353 24.0679H6.99365C4.97423 24.0679 3.23015 22.6537 2.81201 20.6782L2.06885 17.1655H30.0601Z" fill="white" stroke="#6B7280"/>
<mask id="path-4-inside-2_392_1518" fill="white">
<path d="M25.1352 24.7968H6.99338C5.84975 24.7968 4.73084 24.4002 3.8424 23.6802C2.95397 22.9603 2.33442 21.9475 2.09786 20.8286L1.16797 16.4351H30.9602L30.0303 20.8286C29.7938 21.9475 29.1738 22.9599 28.2854 23.6802C27.3977 24.4006 26.2784 24.7968 25.1352 24.7968ZM1.73541 16.8949L2.54778 20.7335C2.76267 21.7493 3.32554 22.6689 4.13221 23.3231C4.93888 23.9769 5.9551 24.337 6.99376 24.337H25.1356C26.1739 24.337 27.1901 23.9769 27.9971 23.3231C28.8038 22.6693 29.3667 21.7497 29.5816 20.7335L30.3939 16.8949H1.73541Z"/>
</mask>
<path d="M25.1352 24.7968H6.99338C5.84975 24.7968 4.73084 24.4002 3.8424 23.6802C2.95397 22.9603 2.33442 21.9475 2.09786 20.8286L1.16797 16.4351H30.9602L30.0303 20.8286C29.7938 21.9475 29.1738 22.9599 28.2854 23.6802C27.3977 24.4006 26.2784 24.7968 25.1352 24.7968ZM1.73541 16.8949L2.54778 20.7335C2.76267 21.7493 3.32554 22.6689 4.13221 23.3231C4.93888 23.9769 5.9551 24.337 6.99376 24.337H25.1356C26.1739 24.337 27.1901 23.9769 27.9971 23.3231C28.8038 22.6693 29.3667 21.7497 29.5816 20.7335L30.3939 16.8949H1.73541Z" fill="#414042"/>
<path d="M2.09786 20.8286L3.07623 20.6217L3.07619 20.6215L2.09786 20.8286ZM1.16797 16.4351V15.4351H-0.0658357L0.189641 16.6421L1.16797 16.4351ZM30.9602 16.4351L31.9386 16.6421L32.194 15.4351H30.9602V16.4351ZM30.0303 20.8286L29.052 20.6215L29.052 20.6217L30.0303 20.8286ZM28.2854 23.6802L27.6556 22.9035L27.6553 22.9037L28.2854 23.6802ZM1.73541 16.8949V15.8949H0.501631L0.75708 17.1019L1.73541 16.8949ZM2.54778 20.7335L3.52613 20.5265L3.52611 20.5264L2.54778 20.7335ZM4.13221 23.3231L3.50235 24.0998L3.50257 24.1L4.13221 23.3231ZM27.9971 23.3231L28.6266 24.1001L28.6268 24.1L27.9971 23.3231ZM29.5816 20.7335L28.6032 20.5264L28.6032 20.5266L29.5816 20.7335ZM30.3939 16.8949L31.3723 17.1019L31.6277 15.8949H30.3939V16.8949ZM25.1352 24.7968V23.7968H6.99338V24.7968V25.7968H25.1352V24.7968ZM6.99338 24.7968V23.7968C6.0791 23.7968 5.18243 23.479 4.47199 22.9033L3.8424 23.6802L3.21281 24.4572C4.27925 25.3214 5.6204 25.7968 6.99338 25.7968V24.7968ZM3.8424 23.6802L4.47199 22.9033C3.76181 22.3278 3.26536 21.5163 3.07623 20.6217L2.09786 20.8286L1.11949 21.0354C1.40348 22.3787 2.14613 23.5928 3.21281 24.4572L3.8424 23.6802ZM2.09786 20.8286L3.07619 20.6215L2.1463 16.228L1.16797 16.4351L0.189641 16.6421L1.11953 21.0356L2.09786 20.8286ZM1.16797 16.4351V17.4351H30.9602V16.4351V15.4351H1.16797V16.4351ZM30.9602 16.4351L29.9819 16.228L29.052 20.6215L30.0303 20.8286L31.0087 21.0356L31.9386 16.6421L30.9602 16.4351ZM30.0303 20.8286L29.052 20.6217C28.8629 21.5159 28.3663 22.3273 27.6556 22.9035L28.2854 23.6802L28.9152 24.457C29.9814 23.5925 30.7246 22.379 31.0087 21.0354L30.0303 20.8286ZM28.2854 23.6802L27.6553 22.9037C26.9461 23.4792 26.0494 23.7968 25.1352 23.7968V24.7968V25.7968C26.5075 25.7968 27.8493 25.3219 28.9155 24.4567L28.2854 23.6802ZM1.73541 16.8949L0.75708 17.1019L1.56945 20.9405L2.54778 20.7335L3.52611 20.5264L2.71374 16.6878L1.73541 16.8949ZM2.54778 20.7335L1.56943 20.9404C1.8318 22.1808 2.51786 23.3014 3.50235 24.0998L4.13221 23.3231L4.76207 22.5464C4.13323 22.0364 3.69353 21.3179 3.52613 20.5265L2.54778 20.7335ZM4.13221 23.3231L3.50257 24.1C4.48733 24.8981 5.72584 25.337 6.99376 25.337V24.337V23.337C6.18436 23.337 5.39042 23.0556 4.76185 22.5462L4.13221 23.3231ZM6.99376 24.337V25.337H25.1356V24.337V23.337H6.99376V24.337ZM25.1356 24.337V25.337C26.4032 25.337 27.6416 24.898 28.6266 24.1001L27.9971 23.3231L27.3677 22.5461C26.7386 23.0557 25.9445 23.337 25.1356 23.337V24.337ZM27.9971 23.3231L28.6268 24.1C29.6115 23.3019 30.2976 22.1811 30.5599 20.9404L29.5816 20.7335L28.6032 20.5266C28.4358 21.3183 27.9961 22.0368 27.3675 22.5462L27.9971 23.3231ZM29.5816 20.7335L30.5599 20.9405L31.3723 17.1019L30.3939 16.8949L29.4156 16.6878L28.6032 20.5264L29.5816 20.7335ZM30.3939 16.8949V15.8949H1.73541V16.8949V17.8949H30.3939V16.8949Z" fill="#6B7280" mask="url(#path-4-inside-2_392_1518)"/>
<path d="M31.3928 16.2036V17.0698H0.729736V16.2036H31.3928Z" fill="#1A3763" stroke="#6B7280"/>
<mask id="path-7-inside-3_392_1518" fill="white">
<path d="M32.1229 17.7996H0V15.4731H32.1229V17.7996ZM0.459811 17.3398H31.6631V15.9329H0.459811V17.3398Z"/>
</mask>
<path d="M32.1229 17.7996H0V15.4731H32.1229V17.7996ZM0.459811 17.3398H31.6631V15.9329H0.459811V17.3398Z" fill="#414042"/>
<path d="M32.1229 17.7996V18.7996H33.1229V17.7996H32.1229ZM0 17.7996H-1V18.7996H0V17.7996ZM0 15.4731V14.4731H-1V15.4731H0ZM32.1229 15.4731H33.1229V14.4731H32.1229V15.4731ZM0.459811 17.3398H-0.540189V18.3398H0.459811V17.3398ZM31.6631 17.3398V18.3398H32.6631V17.3398H31.6631ZM31.6631 15.9329H32.6631V14.9329H31.6631V15.9329ZM0.459811 15.9329V14.9329H-0.540189V15.9329H0.459811ZM32.1229 17.7996V16.7996H0V17.7996V18.7996H32.1229V17.7996ZM0 17.7996H1V15.4731H0H-1V17.7996H0ZM0 15.4731V16.4731H32.1229V15.4731V14.4731H0V15.4731ZM32.1229 15.4731H31.1229V17.7996H32.1229H33.1229V15.4731H32.1229ZM0.459811 17.3398V18.3398H31.6631V17.3398V16.3398H0.459811V17.3398ZM31.6631 17.3398H32.6631V15.9329H31.6631H30.6631V17.3398H31.6631ZM31.6631 15.9329V14.9329H0.459811V15.9329V16.9329H31.6631V15.9329ZM0.459811 15.9329H-0.540189V17.3398H0.459811H1.45981V15.9329H0.459811Z" fill="#6B7280" mask="url(#path-7-inside-3_392_1518)"/>
<path d="M7.42041 25.0674L6.74561 26.3496L6.97119 25.0674H7.42041Z" fill="white" stroke="#6B7280"/>
<mask id="path-10-inside-4_392_1518" fill="white">
<path d="M7.13256 27.1846H5.85962L6.35822 24.3379H8.62799L7.13256 27.1846ZM6.4069 26.7244H6.85454L7.86697 24.7973H6.74463L6.4069 26.7244Z"/>
</mask>
<path d="M7.13256 27.1846H5.85962L6.35822 24.3379H8.62799L7.13256 27.1846ZM6.4069 26.7244H6.85454L7.86697 24.7973H6.74463L6.4069 26.7244Z" fill="#414042"/>
<path d="M7.13256 27.1846V28.1846H7.73683L8.01784 27.6497L7.13256 27.1846ZM5.85962 27.1846L4.87461 27.0121L4.66925 28.1846H5.85962V27.1846ZM6.35822 24.3379V23.3379H5.51815L5.37322 24.1654L6.35822 24.3379ZM8.62799 24.3379L9.51328 24.8029L10.2829 23.3379H8.62799V24.3379ZM6.4069 26.7244L5.42192 26.5518L5.21641 27.7244H6.4069V26.7244ZM6.85454 26.7244V27.7244H7.45879L7.73981 27.1895L6.85454 26.7244ZM7.86697 24.7973L8.75223 25.2624L9.52193 23.7973H7.86697V24.7973ZM6.74463 24.7973V23.7973H5.90464L5.75964 24.6247L6.74463 24.7973ZM7.13256 27.1846V26.1846H5.85962V27.1846V28.1846H7.13256V27.1846ZM5.85962 27.1846L6.84462 27.3571L7.34323 24.5104L6.35822 24.3379L5.37322 24.1654L4.87461 27.0121L5.85962 27.1846ZM6.35822 24.3379V25.3379H8.62799V24.3379V23.3379H6.35822V24.3379ZM8.62799 24.3379L7.74271 23.8728L6.24728 26.7196L7.13256 27.1846L8.01784 27.6497L9.51328 24.8029L8.62799 24.3379ZM6.4069 26.7244V27.7244H6.85454V26.7244V25.7244H6.4069V26.7244ZM6.85454 26.7244L7.73981 27.1895L8.75223 25.2624L7.86697 24.7973L6.9817 24.3322L5.96928 26.2593L6.85454 26.7244ZM7.86697 24.7973V23.7973H6.74463V24.7973V25.7973H7.86697V24.7973ZM6.74463 24.7973L5.75964 24.6247L5.42192 26.5518L6.4069 26.7244L7.39189 26.897L7.72962 24.9699L6.74463 24.7973Z" fill="#6B7280" mask="url(#path-10-inside-4_392_1518)"/>
<path d="M25.1567 25.0674L25.3813 26.3496L24.7075 25.0674H25.1567Z" fill="white" stroke="#6B7280"/>
<mask id="path-13-inside-5_392_1518" fill="white">
<path d="M26.2681 27.1846H24.9956L23.4998 24.3379H25.7695L26.2681 27.1846ZM25.2732 26.7244H25.7208L25.3835 24.7973H24.2608L25.2732 26.7244Z"/>
</mask>
<path d="M26.2681 27.1846H24.9956L23.4998 24.3379H25.7695L26.2681 27.1846ZM25.2732 26.7244H25.7208L25.3835 24.7973H24.2608L25.2732 26.7244Z" fill="#414042"/>
<path d="M26.2681 27.1846V28.1846H27.4585L27.2531 27.0121L26.2681 27.1846ZM24.9956 27.1846L24.1103 27.6498L24.3914 28.1846H24.9956V27.1846ZM23.4998 24.3379V23.3379H21.8447L22.6145 24.803L23.4998 24.3379ZM25.7695 24.3379L26.7545 24.1654L26.6096 23.3379H25.7695V24.3379ZM25.2732 26.7244L24.3879 27.1895L24.669 27.7244H25.2732V26.7244ZM25.7208 26.7244V27.7244H26.9111L26.7059 26.552L25.7208 26.7244ZM25.3835 24.7973L26.3685 24.6249L26.2236 23.7973H25.3835V24.7973ZM24.2608 24.7973V23.7973H22.6058L23.3755 25.2624L24.2608 24.7973ZM26.2681 27.1846V26.1846H24.9956V27.1846V28.1846H26.2681V27.1846ZM24.9956 27.1846L25.8808 26.7195L24.385 23.8727L23.4998 24.3379L22.6145 24.803L24.1103 27.6498L24.9956 27.1846ZM23.4998 24.3379V25.3379H25.7695V24.3379V23.3379H23.4998V24.3379ZM25.7695 24.3379L24.7845 24.5104L25.2831 27.3571L26.2681 27.1846L27.2531 27.0121L26.7545 24.1654L25.7695 24.3379ZM25.2732 26.7244V27.7244H25.7208V26.7244V25.7244H25.2732V26.7244ZM25.7208 26.7244L26.7059 26.552L26.3685 24.6249L25.3835 24.7973L24.3985 24.9697L24.7358 26.8968L25.7208 26.7244ZM25.3835 24.7973V23.7973H24.2608V24.7973V25.7973H25.3835V24.7973ZM24.2608 24.7973L23.3755 25.2624L24.3879 27.1895L25.2732 26.7244L26.1585 26.2593L25.146 24.3322L24.2608 24.7973Z" fill="#6B7280" mask="url(#path-13-inside-5_392_1518)"/>
<mask id="path-15-inside-6_392_1518" fill="white">
<path d="M9.14183 6.10568H5.99618C5.77331 6.10568 5.57858 5.97904 5.48845 5.7748C5.39831 5.57095 5.43558 5.34162 5.58543 5.17656L7.18887 3.41375C7.29536 3.29699 7.44597 3.23044 7.60494 3.23196C7.76316 3.23348 7.91339 3.30271 8.0176 3.42175L9.55981 5.18454C9.70509 5.35074 9.73894 5.57856 9.64766 5.77975C9.55639 5.98094 9.36242 6.10568 9.14183 6.10568ZM7.59962 3.69216C7.58327 3.69216 7.5536 3.69634 7.52888 3.72335L5.92544 5.48614C5.88893 5.52607 5.89919 5.56753 5.9087 5.58883C5.91821 5.61013 5.94179 5.64588 5.9958 5.64588H9.14145C9.19508 5.64588 9.21904 5.61089 9.22855 5.58997C9.23805 5.56905 9.2487 5.52797 9.21333 5.48766L7.67112 3.72487C7.64678 3.69672 7.61559 3.69254 7.59962 3.69216C7.6 3.69216 7.6 3.69216 7.59962 3.69216Z"/>
</mask>
<path d="M9.14183 6.10568H5.99618C5.77331 6.10568 5.57858 5.97904 5.48845 5.7748C5.39831 5.57095 5.43558 5.34162 5.58543 5.17656L7.18887 3.41375C7.29536 3.29699 7.44597 3.23044 7.60494 3.23196C7.76316 3.23348 7.91339 3.30271 8.0176 3.42175L9.55981 5.18454C9.70509 5.35074 9.73894 5.57856 9.64766 5.77975C9.55639 5.98094 9.36242 6.10568 9.14183 6.10568ZM7.59962 3.69216C7.58327 3.69216 7.5536 3.69634 7.52888 3.72335L5.92544 5.48614C5.88893 5.52607 5.89919 5.56753 5.9087 5.58883C5.91821 5.61013 5.94179 5.64588 5.9958 5.64588H9.14145C9.19508 5.64588 9.21904 5.61089 9.22855 5.58997C9.23805 5.56905 9.2487 5.52797 9.21333 5.48766L7.67112 3.72487C7.64678 3.69672 7.61559 3.69254 7.59962 3.69216C7.6 3.69216 7.6 3.69216 7.59962 3.69216Z" fill="#414042"/>
<path d="M5.48845 5.7748L6.40331 5.37104L6.40303 5.37041L5.48845 5.7748ZM5.58543 5.17656L4.84567 4.50368L4.84503 4.50439L5.58543 5.17656ZM7.18887 3.41375L6.45002 2.73988L6.44912 2.74087L7.18887 3.41375ZM7.60494 3.23196L7.61456 2.23201L7.61451 2.232L7.60494 3.23196ZM8.0176 3.42175L8.77022 2.7633L8.77002 2.76307L8.0176 3.42175ZM9.55981 5.18454L10.3127 4.5264L10.3124 4.52609L9.55981 5.18454ZM7.52888 3.72335L6.79129 3.04809L6.78913 3.05046L7.52888 3.72335ZM5.92544 5.48614L6.66347 6.16091L6.66519 6.15902L5.92544 5.48614ZM9.21333 5.48766L8.46071 6.14611L8.46164 6.14717L9.21333 5.48766ZM7.67112 3.72487L6.91475 4.37903L6.9185 4.38331L7.67112 3.72487ZM9.14183 6.10568V5.10568H5.99618V6.10568V7.10568H9.14183V6.10568ZM5.99618 6.10568V5.10568C6.16899 5.10568 6.33332 5.21246 6.40331 5.37104L5.48845 5.7748L4.57358 6.17857C4.82384 6.74561 5.37762 7.10568 5.99618 7.10568V6.10568ZM5.48845 5.7748L6.40303 5.37041C6.4731 5.52889 6.44138 5.72144 6.32583 5.84872L5.58543 5.17656L4.84503 4.50439C4.42978 4.96179 4.32351 5.61301 4.57386 6.1792L5.48845 5.7748ZM5.58543 5.17656L6.32518 5.84943L7.92862 4.08663L7.18887 3.41375L6.44912 2.74087L4.84568 4.50368L5.58543 5.17656ZM7.18887 3.41375L7.92772 4.08762C7.8446 4.17876 7.72403 4.23314 7.59538 4.23191L7.60494 3.23196L7.61451 2.232C7.16791 2.22773 6.74612 2.41523 6.45002 2.73988L7.18887 3.41375ZM7.60494 3.23196L7.59533 4.23191C7.46776 4.23069 7.34806 4.17512 7.26517 4.08042L8.0176 3.42175L8.77002 2.76307C8.47871 2.4303 8.05856 2.23627 7.61456 2.23201L7.60494 3.23196ZM8.0176 3.42175L7.26497 4.0802L8.80718 5.84299L9.55981 5.18454L10.3124 4.52609L8.77022 2.7633L8.0176 3.42175ZM9.55981 5.18454L8.80691 5.84268C8.69471 5.71432 8.66586 5.5234 8.737 5.36659L9.64766 5.77975L10.5583 6.1929C10.812 5.63371 10.7155 4.98716 10.3127 4.5264L9.55981 5.18454ZM9.64766 5.77975L8.737 5.36659C8.80803 5.21003 8.97047 5.10568 9.14183 5.10568V6.10568V7.10568C9.75437 7.10568 10.3047 6.75185 10.5583 6.1929L9.64766 5.77975ZM7.59962 3.69216V2.69216C7.42296 2.69216 7.07371 2.7396 6.7913 3.04809L7.52888 3.72335L8.26647 4.3986C8.03349 4.65308 7.74357 4.69216 7.59962 4.69216V3.69216ZM7.52888 3.72335L6.78913 3.05046L5.18569 4.81326L5.92544 5.48614L6.66519 6.15902L8.26863 4.39623L7.52888 3.72335ZM5.92544 5.48614L5.18741 4.81137C4.76918 5.2688 4.90534 5.79438 4.99556 5.99648L5.9087 5.58883L6.82184 5.18118C6.85701 5.25995 6.90716 5.40299 6.89881 5.58927C6.8894 5.79896 6.80757 6.0033 6.66347 6.16091L5.92544 5.48614ZM5.9087 5.58883L4.99556 5.99648C5.07944 6.18436 5.37163 6.64588 5.9958 6.64588V5.64588V4.64588C6.21167 4.64588 6.41799 4.72484 6.57806 4.85905C6.71975 4.97786 6.78974 5.10929 6.82184 5.18118L5.9087 5.58883ZM5.9958 5.64588V6.64588H9.14145V5.64588V4.64588H5.9958V5.64588ZM9.14145 5.64588V6.64588C9.75143 6.64588 10.0483 6.20317 10.1389 6.00377L9.22855 5.58997L8.31818 5.17617C8.35367 5.0981 8.42639 4.96797 8.56815 4.85194C8.72712 4.72182 8.92992 4.64588 9.14145 4.64588V5.64588ZM9.22855 5.58997L10.1389 6.00377C10.229 5.80548 10.369 5.2886 9.96503 4.82815L9.21333 5.48766L8.46164 6.14717C8.32156 5.9875 8.24484 5.78402 8.23828 5.5779C8.23243 5.39431 8.2829 5.25379 8.31818 5.17617L9.22855 5.58997ZM9.21333 5.48766L9.96596 4.82921L8.42375 3.06642L7.67112 3.72487L6.9185 4.38331L8.46071 6.14611L9.21333 5.48766ZM7.67112 3.72487L8.42748 3.07071C8.13719 2.73506 7.76671 2.69585 7.62342 2.69244L7.59962 3.69216L7.57582 4.69188C7.46448 4.68922 7.15637 4.65838 6.91476 4.37902L7.67112 3.72487ZM7.59962 3.69216V4.69216C7.59972 4.69216 7.59979 4.69216 7.59983 4.69216C7.59986 4.69216 7.59987 4.69216 7.59989 4.69216C7.5999 4.69216 7.59989 4.69216 7.5999 4.69216C7.5999 4.69216 7.5999 4.69216 7.5999 4.69216C7.5999 4.69216 7.59991 4.69216 7.59991 4.69216C7.59991 4.69216 7.59991 4.69216 7.59991 4.69216C7.59991 4.69216 7.59991 4.69216 7.59991 4.69216C7.59991 4.69216 7.59991 4.69216 7.59991 4.69216C7.59991 4.69216 7.59991 4.69216 7.59991 4.69216C7.59991 4.69216 7.59991 4.69216 7.59991 4.69216C7.59991 4.69216 7.59991 4.69216 7.59991 4.69216C7.59991 4.69216 7.59991 4.69216 7.59991 3.69216C7.59991 2.69216 7.59991 2.69216 7.59991 2.69216C7.59991 2.69216 7.59991 2.69216 7.59991 2.69216C7.59991 2.69216 7.59991 2.69216 7.59991 2.69216C7.59991 2.69216 7.59991 2.69216 7.59991 2.69216C7.59991 2.69216 7.59991 2.69216 7.59991 2.69216C7.59991 2.69216 7.59991 2.69216 7.59991 2.69216C7.59991 2.69216 7.59991 2.69216 7.59991 2.69216C7.5999 2.69216 7.59991 2.69216 7.5999 2.69216C7.5999 2.69216 7.5999 2.69216 7.5999 2.69216C7.5999 2.69216 7.5999 2.69216 7.5999 2.69216C7.5999 2.69216 7.5999 2.69216 7.5999 2.69216C7.5999 2.69216 7.5999 2.69216 7.5999 2.69216C7.5999 2.69216 7.5999 2.69216 7.5999 2.69216C7.5999 2.69216 7.5999 2.69216 7.5999 2.69216C7.5999 2.69216 7.5999 2.69216 7.5999 2.69216C7.5999 2.69216 7.5999 2.69216 7.5999 2.69216C7.5999 2.69216 7.5999 2.69216 7.5999 2.69216C7.5999 2.69216 7.59989 2.69216 7.59989 2.69216C7.59988 2.69216 7.59985 2.69216 7.59983 2.69216C7.5998 2.69216 7.59971 2.69216 7.59962 2.69216V3.69216V4.69216C7.59972 4.69216 7.59978 4.69216 7.59983 4.69216C7.59986 4.69216 7.59988 4.69216 7.59989 4.69216C7.5999 4.69216 7.59989 4.69216 7.5999 4.69216C7.5999 4.69216 7.5999 4.69216 7.5999 4.69216C7.59991 4.69216 7.5999 4.69216 7.59991 4.69216C7.59991 4.69216 7.59991 4.69216 7.59991 4.69216C7.59991 4.69216 7.59991 4.69216 7.59991 4.69216C7.59991 4.69216 7.59991 4.69216 7.59991 4.69216C7.59991 4.69216 7.59991 4.69216 7.59991 4.69216C7.59991 4.69216 7.59991 4.69216 7.59991 3.69216C7.59991 2.69216 7.59991 2.69216 7.59991 2.69216C7.59991 2.69216 7.59991 2.69216 7.59991 2.69216C7.59991 2.69216 7.59991 2.69216 7.59991 2.69216C7.59991 2.69216 7.59991 2.69216 7.59991 2.69216C7.59991 2.69216 7.59991 2.69216 7.59991 2.69216C7.5999 2.69216 7.59991 2.69216 7.5999 2.69216C7.5999 2.69216 7.5999 2.69216 7.5999 2.69216C7.5999 2.69216 7.59989 2.69216 7.59989 2.69216C7.59988 2.69216 7.59986 2.69216 7.59983 2.69216C7.59978 2.69216 7.59973 2.69216 7.59962 2.69216V3.69216Z" fill="#6B7280" mask="url(#path-15-inside-6_392_1518)"/>
<mask id="path-17-inside-7_392_1518" fill="white">
<path d="M9.78824 5.54053H5.43506V6.29965H9.78824V5.54053Z"/>
</mask>
<path d="M9.78824 5.54053H5.43506V6.29965H9.78824V5.54053Z" fill="white"/>
<path d="M5.43506 5.54053V4.54053H4.43506V5.54053H5.43506ZM9.78824 5.54053H10.7882V4.54053H9.78824V5.54053ZM9.78824 6.29965V7.29965H10.7882V6.29965H9.78824ZM5.43506 6.29965H4.43506V7.29965H5.43506V6.29965ZM5.43506 5.54053V6.54053H9.78824V5.54053V4.54053H5.43506V5.54053ZM9.78824 5.54053H8.78824V6.29965H9.78824H10.7882V5.54053H9.78824ZM9.78824 6.29965V5.29965H5.43506V6.29965V7.29965H9.78824V6.29965ZM5.43506 6.29965H6.43506V5.54053H5.43506H4.43506V6.29965H5.43506Z" fill="#6B7280" mask="url(#path-17-inside-7_392_1518)"/>
<mask id="path-19-inside-8_392_1518" fill="white">
<path d="M10.0182 6.529H5.20557V5.31006H10.0186L10.0182 6.529ZM5.66538 6.06957H9.55875V5.77026H5.66538V6.06957Z"/>
</mask>
<path d="M10.0182 6.529H5.20557V5.31006H10.0186L10.0182 6.529ZM5.66538 6.06957H9.55875V5.77026H5.66538V6.06957Z" fill="#414042"/>
<path d="M10.0182 6.529V7.529H11.0179L11.0182 6.52931L10.0182 6.529ZM5.20557 6.529H4.20557V7.529H5.20557V6.529ZM5.20557 5.31006V4.31006H4.20557V5.31006H5.20557ZM10.0186 5.31006L11.0186 5.31037L11.0189 4.31006H10.0186V5.31006ZM5.66538 6.06957H4.66538V7.06957H5.66538V6.06957ZM9.55875 6.06957V7.06957H10.5587V6.06957H9.55875ZM9.55875 5.77026H10.5587V4.77026H9.55875V5.77026ZM5.66538 5.77026V4.77026H4.66538V5.77026H5.66538ZM10.0182 6.529V5.529H5.20557V6.529V7.529H10.0182V6.529ZM5.20557 6.529H6.20557V5.31006H5.20557H4.20557V6.529H5.20557ZM5.20557 5.31006V6.31006H10.0186V5.31006V4.31006H5.20557V5.31006ZM10.0186 5.31006L9.01856 5.30975L9.01818 6.52869L10.0182 6.529L11.0182 6.52931L11.0186 5.31037L10.0186 5.31006ZM5.66538 6.06957V7.06957H9.55875V6.06957V5.06957H5.66538V6.06957ZM9.55875 6.06957H10.5587V5.77026H9.55875H8.55875V6.06957H9.55875ZM9.55875 5.77026V4.77026H5.66538V5.77026V6.77026H9.55875V5.77026ZM5.66538 5.77026H4.66538V6.06957H5.66538H6.66538V5.77026H5.66538Z" fill="#6B7280" mask="url(#path-19-inside-8_392_1518)"/>
<path d="M29.2744 2.05908V10.7358H20.7021V2.05908H29.2744Z" fill="white" stroke="#6B7280"/>
<mask id="path-22-inside-9_392_1518" fill="white">
<path d="M30.0046 11.4654H19.9724V1.32861H30.005L30.0046 11.4654ZM20.4322 11.0056H29.5448V1.78843H20.4322V11.0056Z"/>
</mask>
<path d="M30.0046 11.4654H19.9724V1.32861H30.005L30.0046 11.4654ZM20.4322 11.0056H29.5448V1.78843H20.4322V11.0056Z" fill="#414042"/>
<path d="M30.0046 11.4654V12.4654H31.0045L31.0046 11.4654L30.0046 11.4654ZM19.9724 11.4654H18.9724V12.4654H19.9724V11.4654ZM19.9724 1.32861V0.328613H18.9724V1.32861H19.9724ZM30.005 1.32861L31.005 1.32865L31.005 0.328613H30.005V1.32861ZM20.4322 11.0056H19.4322V12.0056H20.4322V11.0056ZM29.5448 11.0056V12.0056H30.5448V11.0056H29.5448ZM29.5448 1.78843H30.5448V0.78843H29.5448V1.78843ZM20.4322 1.78843V0.78843H19.4322V1.78843H20.4322ZM30.0046 11.4654V10.4654H19.9724V11.4654V12.4654H30.0046V11.4654ZM19.9724 11.4654H20.9724V1.32861H19.9724H18.9724V11.4654H19.9724ZM19.9724 1.32861V2.32861H30.005V1.32861V0.328613H19.9724V1.32861ZM30.005 1.32861L29.005 1.32858L29.0046 11.4653L30.0046 11.4654L31.0046 11.4654L31.005 1.32865L30.005 1.32861ZM20.4322 11.0056V12.0056H29.5448V11.0056V10.0056H20.4322V11.0056ZM29.5448 11.0056H30.5448V1.78843H29.5448H28.5448V11.0056H29.5448ZM29.5448 1.78843V0.78843H20.4322V1.78843V2.78843H29.5448V1.78843ZM20.4322 1.78843H19.4322V11.0056H20.4322H21.4322V1.78843H20.4322Z" fill="#6B7280" mask="url(#path-22-inside-9_392_1518)"/>
<path d="M30.1765 1.32715V1.53906H19.574V1.32715H30.1765Z" fill="white" stroke="#6B7280"/>
<mask id="path-25-inside-10_392_1518" fill="white">
<path d="M30.6769 2.26967H19.074C18.9469 2.26967 18.8442 2.1666 18.8442 2.03996V0.827861C18.8442 0.700833 18.9473 0.598145 19.074 0.598145C19.201 0.598145 19.3037 0.701214 19.3037 0.827861V1.81024H30.4468V0.827861C30.4468 0.700833 30.5498 0.598145 30.6765 0.598145C30.8031 0.598145 30.9062 0.701214 30.9062 0.827861V2.03996C30.9066 2.1666 30.8039 2.26967 30.6769 2.26967Z"/>
</mask>
<path d="M30.6769 2.26967H19.074C18.9469 2.26967 18.8442 2.1666 18.8442 2.03996V0.827861C18.8442 0.700833 18.9473 0.598145 19.074 0.598145C19.201 0.598145 19.3037 0.701214 19.3037 0.827861V1.81024H30.4468V0.827861C30.4468 0.700833 30.5498 0.598145 30.6765 0.598145C30.8031 0.598145 30.9062 0.701214 30.9062 0.827861V2.03996C30.9066 2.1666 30.8039 2.26967 30.6769 2.26967Z" fill="#414042"/>
<path d="M19.3037 1.81024H18.3037V2.81024H19.3037V1.81024ZM30.4468 1.81024V2.81024H31.4468V1.81024H30.4468ZM30.9062 2.03996H29.9062L29.9062 2.04296L30.9062 2.03996ZM30.6769 2.26967V1.26967H19.074V2.26967V3.26967H30.6769V2.26967ZM19.074 2.26967V1.26967C19.5003 1.26967 19.8442 1.6154 19.8442 2.03996H18.8442H17.8442C17.8442 2.71781 18.3936 3.26967 19.074 3.26967V2.26967ZM18.8442 2.03996H19.8442V0.827861H18.8442H17.8442V2.03996H18.8442ZM18.8442 0.827861H19.8442C19.8442 1.2542 19.4985 1.59814 19.074 1.59814V0.598145V-0.401855C18.3961 -0.401855 17.8442 0.147471 17.8442 0.827861H18.8442ZM19.074 0.598145V1.59814C18.6476 1.59814 18.3037 1.2524 18.3037 0.827861H19.3037H20.3037C20.3037 0.150024 19.7544 -0.401855 19.074 -0.401855V0.598145ZM19.3037 0.827861H18.3037V1.81024H19.3037H20.3037V0.827861H19.3037ZM19.3037 1.81024V2.81024H30.4468V1.81024V0.81024H19.3037V1.81024ZM30.4468 1.81024H31.4468V0.827861H30.4468H29.4468V1.81024H30.4468ZM30.4468 0.827861H31.4468C31.4468 1.25418 31.1011 1.59814 30.6765 1.59814V0.598145V-0.401855C29.9986 -0.401855 29.4468 0.147487 29.4468 0.827861H30.4468ZM30.6765 0.598145V1.59814C30.2508 1.59814 29.9062 1.2535 29.9062 0.827861H30.9062H31.9062C31.9062 0.148929 31.3554 -0.401855 30.6765 -0.401855V0.598145ZM30.9062 0.827861H29.9062V2.03996H30.9062H31.9062V0.827861H30.9062ZM30.9062 2.03996L29.9062 2.04296C29.9049 1.61548 30.2511 1.26967 30.6769 1.26967V2.26967V3.26967C31.3567 3.26967 31.9082 2.71773 31.9062 2.03695L30.9062 2.03996Z" fill="#6B7280" mask="url(#path-25-inside-10_392_1518)"/>
<path d="M29.2744 2.05908V8.43701H20.7021V2.05908H29.2744Z" fill="white" stroke="#6B7280"/>
<mask id="path-28-inside-11_392_1518" fill="white">
<path d="M30.0046 9.16632H19.9724V1.32861H30.005L30.0046 9.16632ZM20.4322 8.70652H29.5448V1.78843H20.4322V8.70652Z"/>
</mask>
<path d="M30.0046 9.16632H19.9724V1.32861H30.005L30.0046 9.16632ZM20.4322 8.70652H29.5448V1.78843H20.4322V8.70652Z" fill="#414042"/>
<path d="M30.0046 9.16632V10.1663H31.0045L31.0046 9.16637L30.0046 9.16632ZM19.9724 9.16632H18.9724V10.1663H19.9724V9.16632ZM19.9724 1.32861V0.328613H18.9724V1.32861H19.9724ZM30.005 1.32861L31.005 1.32866L31.005 0.328613H30.005V1.32861ZM20.4322 8.70652H19.4322V9.70652H20.4322V8.70652ZM29.5448 8.70652V9.70652H30.5448V8.70652H29.5448ZM29.5448 1.78843H30.5448V0.78843H29.5448V1.78843ZM20.4322 1.78843V0.78843H19.4322V1.78843H20.4322ZM30.0046 9.16632V8.16632H19.9724V9.16632V10.1663H30.0046V9.16632ZM19.9724 9.16632H20.9724V1.32861H19.9724H18.9724V9.16632H19.9724ZM19.9724 1.32861V2.32861H30.005V1.32861V0.328613H19.9724V1.32861ZM30.005 1.32861L29.005 1.32856L29.0046 9.16627L30.0046 9.16632L31.0046 9.16637L31.005 1.32866L30.005 1.32861ZM20.4322 8.70652V9.70652H29.5448V8.70652V7.70652H20.4322V8.70652ZM29.5448 8.70652H30.5448V1.78843H29.5448H28.5448V8.70652H29.5448ZM29.5448 1.78843V0.78843H20.4322V1.78843V2.78843H29.5448V1.78843ZM20.4322 1.78843H19.4322V8.70652H20.4322H21.4322V1.78843H20.4322Z" fill="#6B7280" mask="url(#path-28-inside-11_392_1518)"/>
<path d="M18.2241 0.5H31.4537" stroke="#6B7280"/>
<mask id="path-31-inside-12_392_1518" fill="white">
<path d="M31.4537 0.729942H18.2241C18.0971 0.729942 17.9944 0.626872 17.9944 0.500225C17.9944 0.373577 18.0975 0.270508 18.2241 0.270508H31.4537C31.5807 0.270508 31.6834 0.373577 31.6834 0.500225C31.6834 0.626872 31.5807 0.729942 31.4537 0.729942Z"/>
</mask>
<path d="M31.4537 0.729942H18.2241C18.0971 0.729942 17.9944 0.626872 17.9944 0.500225C17.9944 0.373577 18.0975 0.270508 18.2241 0.270508H31.4537C31.5807 0.270508 31.6834 0.373577 31.6834 0.500225C31.6834 0.626872 31.5807 0.729942 31.4537 0.729942Z" fill="#414042"/>
<path d="M31.4537 0.729942V-0.270058H18.2241V0.729942V1.72994H31.4537V0.729942ZM18.2241 0.729942V-0.270058C18.6504 -0.270058 18.9944 0.0756825 18.9944 0.500225H17.9944H16.9944C16.9944 1.17806 17.5437 1.72994 18.2241 1.72994V0.729942ZM17.9944 0.500225H18.9944C18.9944 0.925845 18.6498 1.27051 18.2241 1.27051V0.270508V-0.729492C17.5451 -0.729492 16.9944 -0.178691 16.9944 0.500225H17.9944ZM18.2241 0.270508V1.27051H31.4537V0.270508V-0.729492H18.2241V0.270508ZM31.4537 0.270508V1.27051C31.0273 1.27051 30.6834 0.924767 30.6834 0.500225H31.6834H32.6834C32.6834 -0.177613 32.1341 -0.729492 31.4537 -0.729492V0.270508ZM31.6834 0.500225H30.6834C30.6834 0.0756825 31.0273 -0.270058 31.4537 -0.270058V0.729942V1.72994C32.1341 1.72994 32.6834 1.17806 32.6834 0.500225H31.6834Z" fill="#6B7280" mask="url(#path-31-inside-12_392_1518)"/>
</svg>
