<svg width="29" height="29" viewBox="0 0 29 29" fill="none" xmlns="http://www.w3.org/2000/svg">
<path d="M24.8943 10.1006V18.9707H3.65601V10.1006H24.8943Z" fill="white" stroke="#6B7280"/>
<mask id="path-2-inside-1_392_1019" fill="white">
<path d="M25.6245 19.7001H2.92603V9.37012H25.6245V19.7001ZM3.38584 19.2403H25.1647V9.82993H3.38584V19.2403Z"/>
</mask>
<path d="M25.6245 19.7001H2.92603V9.37012H25.6245V19.7001ZM3.38584 19.2403H25.1647V9.82993H3.38584V19.2403Z" fill="#414042"/>
<path d="M25.6245 19.7001V20.7001H26.6245V19.7001H25.6245ZM2.92603 19.7001H1.92603V20.7001H2.92603V19.7001ZM2.92603 9.37012V8.37012H1.92603V9.37012H2.92603ZM25.6245 9.37012H26.6245V8.37012H25.6245V9.37012ZM3.38584 19.2403H2.38584V20.2403H3.38584V19.2403ZM25.1647 19.2403V20.2403H26.1647V19.2403H25.1647ZM25.1647 9.82993H26.1647V8.82993H25.1647V9.82993ZM3.38584 9.82993V8.82993H2.38584V9.82993H3.38584ZM25.6245 19.7001V18.7001H2.92603V19.7001V20.7001H25.6245V19.7001ZM2.92603 19.7001H3.92603V9.37012H2.92603H1.92603V19.7001H2.92603ZM2.92603 9.37012V10.3701H25.6245V9.37012V8.37012H2.92603V9.37012ZM25.6245 9.37012H24.6245V19.7001H25.6245H26.6245V9.37012H25.6245ZM3.38584 19.2403V20.2403H25.1647V19.2403V18.2403H3.38584V19.2403ZM25.1647 19.2403H26.1647V9.82993H25.1647H24.1647V19.2403H25.1647ZM25.1647 9.82993V8.82993H3.38584V9.82993V10.8299H25.1647V9.82993ZM3.38584 9.82993H2.38584V19.2403H3.38584H4.38584V9.82993H3.38584Z" fill="#6B7280" mask="url(#path-2-inside-1_392_1019)"/>
<path d="M3.92285 15.0762H11.8379C12.3079 15.0762 12.6895 15.4577 12.6895 15.9277V20.168C12.6889 20.638 12.3077 21.0185 11.8379 21.0186H3.92285C3.45271 21.0186 3.07129 20.6373 3.07129 20.167V15.9277C3.07129 15.4869 3.40658 15.1245 3.83594 15.0811L3.92285 15.0762Z" fill="#1A3763" stroke="#6B7280"/>
<mask id="path-5-inside-2_392_1019" fill="white">
<path d="M11.8376 21.7489H3.92231C3.05061 21.7489 2.34131 21.0396 2.34131 20.1679V15.9277C2.34131 15.056 3.05061 14.3467 3.92231 14.3467H11.8376C12.7093 14.3467 13.4186 15.056 13.4186 15.9277V20.1679C13.4186 21.0396 12.7093 21.7489 11.8376 21.7489ZM3.92231 14.8061C3.30391 14.8061 2.80112 15.3093 2.80112 15.9273V20.1675C2.80112 20.7859 3.30429 21.2887 3.92231 21.2887H11.8376C12.456 21.2887 12.9588 20.7856 12.9588 20.1675V15.9277C12.9588 15.3093 12.4556 14.8065 11.8376 14.8065L3.92231 14.8061Z"/>
</mask>
<path d="M11.8376 21.7489H3.92231C3.05061 21.7489 2.34131 21.0396 2.34131 20.1679V15.9277C2.34131 15.056 3.05061 14.3467 3.92231 14.3467H11.8376C12.7093 14.3467 13.4186 15.056 13.4186 15.9277V20.1679C13.4186 21.0396 12.7093 21.7489 11.8376 21.7489ZM3.92231 14.8061C3.30391 14.8061 2.80112 15.3093 2.80112 15.9273V20.1675C2.80112 20.7859 3.30429 21.2887 3.92231 21.2887H11.8376C12.456 21.2887 12.9588 20.7856 12.9588 20.1675V15.9277C12.9588 15.3093 12.4556 14.8065 11.8376 14.8065L3.92231 14.8061Z" fill="#414042"/>
<path d="M3.92231 14.8061L3.92236 13.8061H3.92231V14.8061ZM11.8376 14.8065L11.8376 15.8065H11.8376V14.8065ZM11.8376 21.7489V20.7489H3.92231V21.7489V22.7489H11.8376V21.7489ZM3.92231 21.7489V20.7489C3.6029 20.7489 3.34131 20.4873 3.34131 20.1679H2.34131H1.34131C1.34131 21.5919 2.49833 22.7489 3.92231 22.7489V21.7489ZM2.34131 20.1679H3.34131V15.9277H2.34131H1.34131V20.1679H2.34131ZM2.34131 15.9277H3.34131C3.34131 15.6083 3.6029 15.3467 3.92231 15.3467V14.3467V13.3467C2.49833 13.3467 1.34131 14.5037 1.34131 15.9277H2.34131ZM3.92231 14.3467V15.3467H11.8376V14.3467V13.3467H3.92231V14.3467ZM11.8376 14.3467V15.3467C12.157 15.3467 12.4186 15.6083 12.4186 15.9277H13.4186H14.4186C14.4186 14.5037 13.2616 13.3467 11.8376 13.3467V14.3467ZM13.4186 15.9277H12.4186V20.1679H13.4186H14.4186V15.9277H13.4186ZM13.4186 20.1679H12.4186C12.4186 20.4873 12.157 20.7489 11.8376 20.7489V21.7489V22.7489C13.2616 22.7489 14.4186 21.5919 14.4186 20.1679H13.4186ZM3.92231 14.8061V13.8061C2.7514 13.8061 1.80112 14.7572 1.80112 15.9273H2.80112H3.80112C3.80112 15.8613 3.85641 15.8061 3.92231 15.8061V14.8061ZM2.80112 15.9273H1.80112V20.1675H2.80112H3.80112V15.9273H2.80112ZM2.80112 20.1675H1.80112C1.80112 21.3384 2.75222 22.2887 3.92231 22.2887V21.2887V20.2887C3.85635 20.2887 3.80112 20.2334 3.80112 20.1675H2.80112ZM3.92231 21.2887V22.2887H11.8376V21.2887V20.2887H3.92231V21.2887ZM11.8376 21.2887V22.2887C13.0085 22.2887 13.9588 21.3376 13.9588 20.1675H12.9588H11.9588C11.9588 20.2335 11.9035 20.2887 11.8376 20.2887V21.2887ZM12.9588 20.1675H13.9588V15.9277H12.9588H11.9588V20.1675H12.9588ZM12.9588 15.9277H13.9588C13.9588 14.7568 13.0077 13.8065 11.8376 13.8065V14.8065V15.8065C11.9036 15.8065 11.9588 15.8618 11.9588 15.9277H12.9588ZM11.8376 14.8065L11.8377 13.8065L3.92236 13.8061L3.92231 14.8061L3.92226 15.8061L11.8376 15.8065L11.8376 14.8065Z" fill="#6B7280" mask="url(#path-5-inside-2_392_1019)"/>
<path d="M16.5461 15.0762H24.4612C24.9312 15.0762 25.3127 15.4577 25.3127 15.9277V20.168C25.3126 20.6377 24.9313 21.0185 24.4612 21.0186H16.5461C16.076 21.0186 15.6946 20.6373 15.6946 20.167V15.9277C15.6946 15.4869 16.0299 15.1245 16.4592 15.0811L16.5461 15.0762Z" fill="#1A3763" stroke="#6B7280"/>
<mask id="path-8-inside-3_392_1019" fill="white">
<path d="M24.4614 21.7489H16.5461C15.6744 21.7489 14.9651 21.0396 14.9651 20.1679V15.9277C14.9651 15.056 15.6744 14.3467 16.5461 14.3467H24.4614C25.3331 14.3467 26.0424 15.056 26.0424 15.9277V20.1679C26.0424 21.0396 25.3331 21.7489 24.4614 21.7489ZM16.5461 14.8061C15.9277 14.8061 15.4249 15.3093 15.4249 15.9273V20.1675C15.4249 20.7859 15.9277 21.2887 16.5461 21.2887H24.4614C25.0798 21.2887 25.5826 20.7856 25.5826 20.1675V15.9277C25.5826 15.3093 25.0798 14.8065 24.4614 14.8065L16.5461 14.8061Z"/>
</mask>
<path d="M24.4614 21.7489H16.5461C15.6744 21.7489 14.9651 21.0396 14.9651 20.1679V15.9277C14.9651 15.056 15.6744 14.3467 16.5461 14.3467H24.4614C25.3331 14.3467 26.0424 15.056 26.0424 15.9277V20.1679C26.0424 21.0396 25.3331 21.7489 24.4614 21.7489ZM16.5461 14.8061C15.9277 14.8061 15.4249 15.3093 15.4249 15.9273V20.1675C15.4249 20.7859 15.9277 21.2887 16.5461 21.2887H24.4614C25.0798 21.2887 25.5826 20.7856 25.5826 20.1675V15.9277C25.5826 15.3093 25.0798 14.8065 24.4614 14.8065L16.5461 14.8061Z" fill="#414042"/>
<path d="M26.0424 20.1679H27.0424H26.0424ZM16.5461 14.8061L16.5461 13.8061H16.5461V14.8061ZM24.4614 14.8065L24.4613 15.8065H24.4614V14.8065ZM24.4614 21.7489V20.7489H16.5461V21.7489V22.7489H24.4614V21.7489ZM16.5461 21.7489V20.7489C16.2267 20.7489 15.9651 20.4873 15.9651 20.1679H14.9651H13.9651C13.9651 21.5919 15.1221 22.7489 16.5461 22.7489V21.7489ZM14.9651 20.1679H15.9651V15.9277H14.9651H13.9651V20.1679H14.9651ZM14.9651 15.9277H15.9651C15.9651 15.6083 16.2267 15.3467 16.5461 15.3467V14.3467V13.3467C15.1221 13.3467 13.9651 14.5037 13.9651 15.9277H14.9651ZM16.5461 14.3467V15.3467H24.4614V14.3467V13.3467H16.5461V14.3467ZM24.4614 14.3467V15.3467C24.7808 15.3467 25.0424 15.6083 25.0424 15.9277H26.0424H27.0424C27.0424 14.5037 25.8854 13.3467 24.4614 13.3467V14.3467ZM26.0424 15.9277H25.0424V20.1679H26.0424H27.0424V15.9277H26.0424ZM26.0424 20.1679H25.0424C25.0424 20.4873 24.7808 20.7489 24.4614 20.7489V21.7489V22.7489C25.8854 22.7489 27.0424 21.5919 27.0424 20.1679H26.0424ZM16.5461 14.8061V13.8061C15.3752 13.8061 14.4249 14.7572 14.4249 15.9273H15.4249H16.4249C16.4249 15.8613 16.4802 15.8061 16.5461 15.8061V14.8061ZM15.4249 15.9273H14.4249V20.1675H15.4249H16.4249V15.9273H15.4249ZM15.4249 20.1675H14.4249C14.4249 21.3382 15.3754 22.2887 16.5461 22.2887V21.2887V20.2887C16.48 20.2887 16.4249 20.2337 16.4249 20.1675H15.4249ZM16.5461 21.2887V22.2887H24.4614V21.2887V20.2887H16.5461V21.2887ZM24.4614 21.2887V22.2887C25.6323 22.2887 26.5826 21.3376 26.5826 20.1675H25.5826H24.5826C24.5826 20.2335 24.5273 20.2887 24.4614 20.2887V21.2887ZM25.5826 20.1675H26.5826V15.9277H25.5826H24.5826V20.1675H25.5826ZM25.5826 15.9277H26.5826C26.5826 14.757 25.6321 13.8065 24.4614 13.8065V14.8065V15.8065C24.5275 15.8065 24.5826 15.8616 24.5826 15.9277H25.5826ZM24.4614 14.8065L24.4614 13.8065L16.5461 13.8061L16.5461 14.8061L16.546 15.8061L24.4613 15.8065L24.4614 14.8065Z" fill="#6B7280" mask="url(#path-8-inside-3_392_1019)"/>
<path d="M1.5813 19.9712H26.97C27.4402 19.9714 27.8206 20.3525 27.8206 20.8228V23.188C27.8206 23.6582 27.4399 24.0393 26.97 24.0396H1.5813C1.11125 24.0396 0.729736 23.658 0.729736 23.188V20.8228C0.729736 20.3527 1.11124 19.9712 1.5813 19.9712Z" fill="white" stroke="#6B7280"/>
<mask id="path-11-inside-4_392_1019" fill="white">
<path d="M26.9695 24.7698H1.581C0.709302 24.7698 0 24.0605 0 23.1888V20.8232C0 19.9515 0.709302 19.2422 1.581 19.2422H26.9695C27.8412 19.2422 28.5505 19.9515 28.5505 20.8232V23.1888C28.5509 24.0605 27.8416 24.7698 26.9695 24.7698ZM1.58138 19.7016C0.962975 19.7016 0.460188 20.2048 0.460188 20.8228V23.1884C0.460188 23.8068 0.962975 24.3096 1.58138 24.3096H26.9699C27.5883 24.3096 28.0911 23.8068 28.0911 23.1884V20.8228C28.0911 20.2044 27.5883 19.7016 26.9699 19.7016H1.58138Z"/>
</mask>
<path d="M26.9695 24.7698H1.581C0.709302 24.7698 0 24.0605 0 23.1888V20.8232C0 19.9515 0.709302 19.2422 1.581 19.2422H26.9695C27.8412 19.2422 28.5505 19.9515 28.5505 20.8232V23.1888C28.5509 24.0605 27.8416 24.7698 26.9695 24.7698ZM1.58138 19.7016C0.962975 19.7016 0.460188 20.2048 0.460188 20.8228V23.1884C0.460188 23.8068 0.962975 24.3096 1.58138 24.3096H26.9699C27.5883 24.3096 28.0911 23.8068 28.0911 23.1884V20.8228C28.0911 20.2044 27.5883 19.7016 26.9699 19.7016H1.58138Z" fill="#414042"/>
<path d="M28.5505 23.1888H27.5505V23.1892L28.5505 23.1888ZM26.9695 24.7698V23.7698H1.581V24.7698V25.7698H26.9695V24.7698ZM1.581 24.7698V23.7698C1.26159 23.7698 1 23.5082 1 23.1888H0H-1C-1 24.6128 0.157015 25.7698 1.581 25.7698V24.7698ZM0 23.1888H1V20.8232H0H-1V23.1888H0ZM0 20.8232H1C1 20.5038 1.26159 20.2422 1.581 20.2422V19.2422V18.2422C0.157018 18.2422 -1 19.3992 -1 20.8232H0ZM1.581 19.2422V20.2422H26.9695V19.2422V18.2422H1.581V19.2422ZM26.9695 19.2422V20.2422C27.2889 20.2422 27.5505 20.5038 27.5505 20.8232H28.5505H29.5505C29.5505 19.3992 28.3935 18.2422 26.9695 18.2422V19.2422ZM28.5505 20.8232H27.5505V23.1888H28.5505H29.5505V20.8232H28.5505ZM28.5505 23.1888L27.5505 23.1892C27.5506 23.5081 27.2895 23.7698 26.9695 23.7698V24.7698V25.7698C28.3936 25.7698 29.5511 24.6129 29.5505 23.1884L28.5505 23.1888ZM1.58138 19.7016V18.7016C0.41047 18.7016 -0.539812 19.6527 -0.539812 20.8228H0.460188H1.46019C1.46019 20.7568 1.51548 20.7016 1.58138 20.7016V19.7016ZM0.460188 20.8228H-0.539812V23.1884H0.460188H1.46019V20.8228H0.460188ZM0.460188 23.1884H-0.539812C-0.539812 24.3591 0.410687 25.3096 1.58138 25.3096V24.3096V23.3096C1.51526 23.3096 1.46019 23.2545 1.46019 23.1884H0.460188ZM1.58138 24.3096V25.3096H26.9699V24.3096V23.3096H1.58138V24.3096ZM26.9699 24.3096V25.3096C28.1406 25.3096 29.0911 24.3591 29.0911 23.1884H28.0911H27.0911C27.0911 23.2545 27.036 23.3096 26.9699 23.3096V24.3096ZM28.0911 23.1884H29.0911V20.8228H28.0911H27.0911V23.1884H28.0911ZM28.0911 20.8228H29.0911C29.0911 19.6521 28.1406 18.7016 26.9699 18.7016V19.7016V20.7016C27.036 20.7016 27.0911 20.7567 27.0911 20.8228H28.0911ZM26.9699 19.7016V18.7016H1.58138V19.7016V20.7016H26.9699V19.7016Z" fill="#6B7280" mask="url(#path-11-inside-4_392_1019)"/>
<path d="M27.8208 23.4243V28.2056H0.72998V23.4243H27.8208Z" fill="white" stroke="#6B7280"/>
<mask id="path-14-inside-5_392_1019" fill="white">
<path d="M28.5507 28.935H0.000244141V22.6938H28.5507V28.935ZM0.460055 28.4751H28.0909V23.1537H0.460055V28.4751Z"/>
</mask>
<path d="M28.5507 28.935H0.000244141V22.6938H28.5507V28.935ZM0.460055 28.4751H28.0909V23.1537H0.460055V28.4751Z" fill="#414042"/>
<path d="M28.5507 28.935V29.935H29.5507V28.935H28.5507ZM0.000244141 28.935H-0.999756V29.935H0.000244141V28.935ZM0.000244141 22.6938V21.6938H-0.999756V22.6938H0.000244141ZM28.5507 22.6938H29.5507V21.6938H28.5507V22.6938ZM0.460055 28.4751H-0.539945V29.4751H0.460055V28.4751ZM28.0909 28.4751V29.4751H29.0909V28.4751H28.0909ZM28.0909 23.1537H29.0909V22.1537H28.0909V23.1537ZM0.460055 23.1537V22.1537H-0.539945V23.1537H0.460055ZM28.5507 28.935V27.935H0.000244141V28.935V29.935H28.5507V28.935ZM0.000244141 28.935H1.00024V22.6938H0.000244141H-0.999756V28.935H0.000244141ZM0.000244141 22.6938V23.6938H28.5507V22.6938V21.6938H0.000244141V22.6938ZM28.5507 22.6938H27.5507V28.935H28.5507H29.5507V22.6938H28.5507ZM0.460055 28.4751V29.4751H28.0909V28.4751V27.4751H0.460055V28.4751ZM28.0909 28.4751H29.0909V23.1537H28.0909H27.0909V28.4751H28.0909ZM28.0909 23.1537V22.1537H0.460055V23.1537V24.1537H28.0909V23.1537ZM0.460055 23.1537H-0.539945V28.4751H0.460055H1.46006V23.1537H0.460055Z" fill="#6B7280" mask="url(#path-14-inside-5_392_1019)"/>
<path d="M22.0803 19.9712L3.55396 24.4985L2.74927 19.9712H22.0803Z" fill="white" stroke="#6B7280"/>
<mask id="path-17-inside-6_392_1019" fill="white">
<path d="M3.15619 25.3404C3.11207 25.3404 3.06833 25.3274 3.03068 25.3031C2.97743 25.2685 2.94092 25.2133 2.92989 25.1506L1.9266 19.5108C1.91481 19.4438 1.93307 19.375 1.9768 19.3229C2.02054 19.2708 2.0852 19.2407 2.15289 19.2407H26.2304C26.3468 19.2407 26.4449 19.3278 26.4586 19.4431C26.4727 19.5587 26.3978 19.6663 26.2848 19.6941L3.21019 25.3339C3.1927 25.3381 3.17444 25.3404 3.15619 25.3404ZM2.42749 19.7005L3.33988 24.8288L24.3219 19.7005H2.42749Z"/>
</mask>
<path d="M3.15619 25.3404C3.11207 25.3404 3.06833 25.3274 3.03068 25.3031C2.97743 25.2685 2.94092 25.2133 2.92989 25.1506L1.9266 19.5108C1.91481 19.4438 1.93307 19.375 1.9768 19.3229C2.02054 19.2708 2.0852 19.2407 2.15289 19.2407H26.2304C26.3468 19.2407 26.4449 19.3278 26.4586 19.4431C26.4727 19.5587 26.3978 19.6663 26.2848 19.6941L3.21019 25.3339C3.1927 25.3381 3.17444 25.3404 3.15619 25.3404ZM2.42749 19.7005L3.33988 24.8288L24.3219 19.7005H2.42749Z" fill="#414042"/>
<path d="M3.03068 25.3031L2.48569 26.1415L2.48778 26.1429L3.03068 25.3031ZM2.92989 25.1506L3.9148 24.9775L3.91444 24.9754L2.92989 25.1506ZM1.9266 19.5108L0.941759 19.6842L0.942058 19.6859L1.9266 19.5108ZM26.4586 19.4431L25.4656 19.561L25.4659 19.5639L26.4586 19.4431ZM26.2848 19.6941L26.5222 20.6655L26.5235 20.6652L26.2848 19.6941ZM3.21019 25.3339L3.44277 26.3065L3.44762 26.3053L3.21019 25.3339ZM2.42749 19.7005V18.7005H1.23387L1.44295 19.8757L2.42749 19.7005ZM3.33988 24.8288L2.35534 25.004L2.54203 26.0533L3.57731 25.8002L3.33988 24.8288ZM24.3219 19.7005L24.5594 20.6719L24.3219 18.7005V19.7005ZM3.15619 25.3404V24.3404C3.30665 24.3404 3.45113 24.3841 3.57358 24.4633L3.03068 25.3031L2.48778 26.1429C2.68554 26.2707 2.91749 26.3404 3.15619 26.3404V25.3404ZM3.03068 25.3031L3.57567 24.4646C3.75501 24.5812 3.87782 24.767 3.9148 24.9775L2.92989 25.1506L1.94499 25.3237C2.00403 25.6596 2.19986 25.9557 2.48569 26.1415L3.03068 25.3031ZM2.92989 25.1506L3.91444 24.9754L2.91114 19.3356L1.9266 19.5108L0.942058 19.6859L1.94535 25.3257L2.92989 25.1506ZM1.9266 19.5108L2.91144 19.3373C2.95058 19.5595 2.89033 19.79 2.74273 19.9658L1.9768 19.3229L1.21088 18.6799C0.975804 18.96 0.879045 19.3282 0.941761 19.6842L1.9266 19.5108ZM1.9768 19.3229L2.74273 19.9658C2.59635 20.1402 2.38055 20.2407 2.15289 20.2407V19.2407V18.2407C1.78984 18.2407 1.44473 18.4014 1.21088 18.6799L1.9768 19.3229ZM2.15289 19.2407V20.2407H26.2304V19.2407V18.2407H2.15289V19.2407ZM26.2304 19.2407V20.2407C25.8414 20.2407 25.5118 19.9502 25.4656 19.561L26.4586 19.4431L27.4516 19.3251C27.378 18.7054 26.8521 18.2407 26.2304 18.2407V19.2407ZM26.4586 19.4431L25.4659 19.5639C25.4184 19.1736 25.6712 18.8151 26.0461 18.723L26.2848 19.6941L26.5235 20.6652C27.1243 20.5175 27.5269 19.9438 27.4513 19.3222L26.4586 19.4431ZM26.2848 19.6941L26.0474 18.7227L2.97276 24.3625L3.21019 25.3339L3.44762 26.3053L26.5222 20.6655L26.2848 19.6941ZM3.21019 25.3339L2.97762 24.3613C3.03222 24.3483 3.09202 24.3404 3.15619 24.3404V25.3404V26.3404C3.25687 26.3404 3.35317 26.3279 3.44277 26.3065L3.21019 25.3339ZM2.42749 19.7005L1.44295 19.8757L2.35534 25.004L3.33988 24.8288L4.32442 24.6537L3.41203 19.5254L2.42749 19.7005ZM3.33988 24.8288L3.57731 25.8002L24.5594 20.6719L24.3219 19.7005L24.0845 18.7291L3.10246 23.8574L3.33988 24.8288ZM24.3219 19.7005V18.7005H2.42749V19.7005V20.7005H24.3219V19.7005Z" fill="#6B7280" mask="url(#path-17-inside-6_392_1019)"/>
<path d="M26.5664 5.37891V5.63281H1.98438V5.37891H26.5664Z" fill="white" stroke="#6B7280"/>
<mask id="path-20-inside-7_392_1019" fill="white">
<path d="M27.2964 6.36315H1.25415V4.64941H27.2964V6.36315ZM1.71396 5.90296H26.8366V5.10884H1.71396V5.90296Z"/>
</mask>
<path d="M27.2964 6.36315H1.25415V4.64941H27.2964V6.36315ZM1.71396 5.90296H26.8366V5.10884H1.71396V5.90296Z" fill="#414042"/>
<path d="M27.2964 6.36315V7.36315H28.2964V6.36315H27.2964ZM1.25415 6.36315H0.25415V7.36315H1.25415V6.36315ZM1.25415 4.64941V3.64941H0.25415V4.64941H1.25415ZM27.2964 4.64941H28.2964V3.64941H27.2964V4.64941ZM1.71396 5.90296H0.713961V6.90296H1.71396V5.90296ZM26.8366 5.90296V6.90296H27.8366V5.90296H26.8366ZM26.8366 5.10884H27.8366V4.10884H26.8366V5.10884ZM1.71396 5.10884V4.10884H0.713961V5.10884H1.71396ZM27.2964 6.36315V5.36315H1.25415V6.36315V7.36315H27.2964V6.36315ZM1.25415 6.36315H2.25415V4.64941H1.25415H0.25415V6.36315H1.25415ZM1.25415 4.64941V5.64941H27.2964V4.64941V3.64941H1.25415V4.64941ZM27.2964 4.64941H26.2964V6.36315H27.2964H28.2964V4.64941H27.2964ZM1.71396 5.90296V6.90296H26.8366V5.90296V4.90296H1.71396V5.90296ZM26.8366 5.90296H27.8366V5.10884H26.8366H25.8366V5.90296H26.8366ZM26.8366 5.10884V4.10884H1.71396V5.10884V6.10884H26.8366V5.10884ZM1.71396 5.10884H0.713961V5.90296H1.71396H2.71396V5.10884H1.71396Z" fill="#6B7280" mask="url(#path-20-inside-7_392_1019)"/>
<path d="M8.96826 1.53223V4.29395H3.94873V1.53223H8.96826Z" fill="white" stroke="#6B7280"/>
<mask id="path-23-inside-8_392_1019" fill="white">
<path d="M9.69819 5.02471H3.21899V0.802734H9.69819V5.02471ZM3.67881 4.56489H9.23838V1.26255H3.67881V4.56489Z"/>
</mask>
<path d="M9.69819 5.02471H3.21899V0.802734H9.69819V5.02471ZM3.67881 4.56489H9.23838V1.26255H3.67881V4.56489Z" fill="#414042"/>
<path d="M9.69819 5.02471V6.02471H10.6982V5.02471H9.69819ZM3.21899 5.02471H2.21899V6.02471H3.21899V5.02471ZM3.21899 0.802734V-0.197266H2.21899V0.802734H3.21899ZM9.69819 0.802734H10.6982V-0.197266H9.69819V0.802734ZM3.67881 4.56489H2.67881V5.5649H3.67881V4.56489ZM9.23838 4.56489V5.5649H10.2384V4.56489H9.23838ZM9.23838 1.26255H10.2384V0.262545H9.23838V1.26255ZM3.67881 1.26255V0.262545H2.67881V1.26255H3.67881ZM9.69819 5.02471V4.02471H3.21899V5.02471V6.02471H9.69819V5.02471ZM3.21899 5.02471H4.21899V0.802734H3.21899H2.21899V5.02471H3.21899ZM3.21899 0.802734V1.80273H9.69819V0.802734V-0.197266H3.21899V0.802734ZM9.69819 0.802734H8.69819V5.02471H9.69819H10.6982V0.802734H9.69819ZM3.67881 4.56489V5.5649H9.23838V4.56489V3.56489H3.67881V4.56489ZM9.23838 4.56489H10.2384V1.26255H9.23838H8.23838V4.56489H9.23838ZM9.23838 1.26255V0.262545H3.67881V1.26255V2.26255H9.23838V1.26255ZM3.67881 1.26255H2.67881V4.56489H3.67881H4.67881V1.26255H3.67881Z" fill="#6B7280" mask="url(#path-23-inside-8_392_1019)"/>
<path d="M8.05518 2.41895V3.41699H4.86182V2.41895H8.05518Z" fill="white" stroke="#6B7280"/>
<mask id="path-26-inside-9_392_1019" fill="white">
<path d="M8.78523 4.1471H4.13159V1.68945H8.78523V4.1471ZM4.5914 3.68729H8.32542V2.14888H4.5914V3.68729Z"/>
</mask>
<path d="M8.78523 4.1471H4.13159V1.68945H8.78523V4.1471ZM4.5914 3.68729H8.32542V2.14888H4.5914V3.68729Z" fill="#414042"/>
<path d="M8.78523 4.1471V5.1471H9.78523V4.1471H8.78523ZM4.13159 4.1471H3.13159V5.1471H4.13159V4.1471ZM4.13159 1.68945V0.689453H3.13159V1.68945H4.13159ZM8.78523 1.68945H9.78523V0.689453H8.78523V1.68945ZM4.5914 3.68729H3.5914V4.68729H4.5914V3.68729ZM8.32542 3.68729V4.68729H9.32542V3.68729H8.32542ZM8.32542 2.14888H9.32542V1.14888H8.32542V2.14888ZM4.5914 2.14888V1.14888H3.5914V2.14888H4.5914ZM8.78523 4.1471V3.1471H4.13159V4.1471V5.1471H8.78523V4.1471ZM4.13159 4.1471H5.13159V1.68945H4.13159H3.13159V4.1471H4.13159ZM4.13159 1.68945V2.68945H8.78523V1.68945V0.689453H4.13159V1.68945ZM8.78523 1.68945H7.78523V4.1471H8.78523H9.78523V1.68945H8.78523ZM4.5914 3.68729V4.68729H8.32542V3.68729V2.68729H4.5914V3.68729ZM8.32542 3.68729H9.32542V2.14888H8.32542H7.32542V3.68729H8.32542ZM8.32542 2.14888V1.14888H4.5914V2.14888V3.14888H8.32542V2.14888ZM4.5914 2.14888H3.5914V3.68729H4.5914H5.5914V2.14888H4.5914Z" fill="#6B7280" mask="url(#path-26-inside-9_392_1019)"/>
<path d="M24.2678 1.24707V4.29492H24.1389V1.24707H24.2678Z" fill="white" stroke="#6B7280"/>
<mask id="path-29-inside-10_392_1019" fill="white">
<path d="M24.9973 5.02528H23.4087V0.518066H24.9973V5.02528ZM23.8689 4.56547H24.5375V0.977497H23.8689V4.56547Z"/>
</mask>
<path d="M24.9973 5.02528H23.4087V0.518066H24.9973V5.02528ZM23.8689 4.56547H24.5375V0.977497H23.8689V4.56547Z" fill="#414042"/>
<path d="M24.9973 5.02528V6.02528H25.9973V5.02528H24.9973ZM23.4087 5.02528H22.4087V6.02528H23.4087V5.02528ZM23.4087 0.518066V-0.481934H22.4087V0.518066H23.4087ZM24.9973 0.518066H25.9973V-0.481934H24.9973V0.518066ZM23.8689 4.56547H22.8689V5.56547H23.8689V4.56547ZM24.5375 4.56547V5.56547H25.5375V4.56547H24.5375ZM24.5375 0.977497H25.5375V-0.0225028H24.5375V0.977497ZM23.8689 0.977497V-0.0225028H22.8689V0.977497H23.8689ZM24.9973 5.02528V4.02528H23.4087V5.02528V6.02528H24.9973V5.02528ZM23.4087 5.02528H24.4087V0.518066H23.4087H22.4087V5.02528H23.4087ZM23.4087 0.518066V1.51807H24.9973V0.518066V-0.481934H23.4087V0.518066ZM24.9973 0.518066H23.9973V5.02528H24.9973H25.9973V0.518066H24.9973ZM23.8689 4.56547V5.56547H24.5375V4.56547V3.56547H23.8689V4.56547ZM24.5375 4.56547H25.5375V0.977497H24.5375H23.5375V4.56547H24.5375ZM24.5375 0.977497V-0.0225028H23.8689V0.977497V1.9775H24.5375V0.977497ZM23.8689 0.977497H22.8689V4.56547H23.8689H24.8689V0.977497H23.8689Z" fill="#6B7280" mask="url(#path-29-inside-10_392_1019)"/>
<path d="M20.3188 1.271L20.4448 1.29809L19.8041 4.27767L19.6781 4.25058L20.3188 1.271Z" fill="white" stroke="#6B7280"/>
<mask id="path-32-inside-11_392_1019" fill="white">
<path d="M20.3678 5.14161L18.8149 4.80769L19.7627 0.400879L21.3156 0.734803L20.3678 5.14161ZM19.3607 4.45475L20.0145 4.59547L20.7687 1.08774L20.1149 0.947023L19.3607 4.45475Z"/>
</mask>
<path d="M20.3678 5.14161L18.8149 4.80769L19.7627 0.400879L21.3156 0.734803L20.3678 5.14161ZM19.3607 4.45475L20.0145 4.59547L20.7687 1.08774L20.1149 0.947023L19.3607 4.45475Z" fill="#414042"/>
<path d="M20.3678 5.14161L20.1576 6.11926L21.1352 6.32949L21.3455 5.35187L20.3678 5.14161ZM18.8149 4.80769L17.8373 4.59742L17.627 5.5751L18.6047 5.78534L18.8149 4.80769ZM19.7627 0.400879L19.9729 -0.576773L18.9953 -0.786999L18.7851 0.190618L19.7627 0.400879ZM21.3156 0.734803L22.2932 0.945063L22.5035 -0.0326099L21.5258 -0.242848L21.3156 0.734803ZM19.3607 4.45475L18.383 4.24454L18.1729 5.22198L19.1503 5.43236L19.3607 4.45475ZM20.0145 4.59547L19.8041 5.57308L20.7819 5.78354L20.9921 4.80567L20.0145 4.59547ZM20.7687 1.08774L21.7463 1.29795L21.9565 0.320507L20.9791 0.110132L20.7687 1.08774ZM20.1149 0.947023L20.3253 -0.0305877L19.3475 -0.241057L19.1372 0.736821L20.1149 0.947023ZM20.3678 5.14161L20.578 4.16396L19.0252 3.83003L18.8149 4.80769L18.6047 5.78534L20.1576 6.11926L20.3678 5.14161ZM18.8149 4.80769L19.7926 5.01795L20.7404 0.61114L19.7627 0.400879L18.7851 0.190618L17.8373 4.59742L18.8149 4.80769ZM19.7627 0.400879L19.5525 1.37853L21.1053 1.71245L21.3156 0.734803L21.5258 -0.242848L19.9729 -0.576773L19.7627 0.400879ZM21.3156 0.734803L20.3379 0.524543L19.3902 4.93135L20.3678 5.14161L21.3455 5.35187L22.2932 0.945063L21.3156 0.734803ZM19.3607 4.45475L19.1503 5.43236L19.8041 5.57308L20.0145 4.59547L20.2249 3.61786L19.5711 3.47714L19.3607 4.45475ZM20.0145 4.59547L20.9921 4.80567L21.7463 1.29795L20.7687 1.08774L19.791 0.877541L19.0368 4.38526L20.0145 4.59547ZM20.7687 1.08774L20.9791 0.110132L20.3253 -0.0305877L20.1149 0.947023L19.9045 1.92463L20.5582 2.06535L20.7687 1.08774ZM20.1149 0.947023L19.1372 0.736821L18.383 4.24454L19.3607 4.45475L20.3384 4.66495L21.0925 1.15723L20.1149 0.947023Z" fill="#6B7280" mask="url(#path-32-inside-11_392_1019)"/>
<path d="M21.9688 1.67285V4.2959H21.8398V1.67285H21.9688Z" fill="white" stroke="#6B7280"/>
<mask id="path-35-inside-12_392_1019" fill="white">
<path d="M22.6982 5.02516H21.1096V0.942383H22.6982V5.02516ZM21.5698 4.56534H22.2384V1.40219H21.5698V4.56534Z"/>
</mask>
<path d="M22.6982 5.02516H21.1096V0.942383H22.6982V5.02516ZM21.5698 4.56534H22.2384V1.40219H21.5698V4.56534Z" fill="#414042"/>
<path d="M22.6982 5.02516V6.02516H23.6982V5.02516H22.6982ZM21.1096 5.02516H20.1096V6.02516H21.1096V5.02516ZM21.1096 0.942383V-0.0576172H20.1096V0.942383H21.1096ZM22.6982 0.942383H23.6982V-0.0576172H22.6982V0.942383ZM21.5698 4.56534H20.5698V5.56534H21.5698V4.56534ZM22.2384 4.56534V5.56534H23.2384V4.56534H22.2384ZM22.2384 1.40219H23.2384V0.402194H22.2384V1.40219ZM21.5698 1.40219V0.402194H20.5698V1.40219H21.5698ZM22.6982 5.02516V4.02516H21.1096V5.02516V6.02516H22.6982V5.02516ZM21.1096 5.02516H22.1096V0.942383H21.1096H20.1096V5.02516H21.1096ZM21.1096 0.942383V1.94238H22.6982V0.942383V-0.0576172H21.1096V0.942383ZM22.6982 0.942383H21.6982V5.02516H22.6982H23.6982V0.942383H22.6982ZM21.5698 4.56534V5.56534H22.2384V4.56534V3.56534H21.5698V4.56534ZM22.2384 4.56534H23.2384V1.40219H22.2384H21.2384V4.56534H22.2384ZM22.2384 1.40219V0.402194H21.5698V1.40219V2.40219H22.2384V1.40219ZM21.5698 1.40219H20.5698V4.56534H21.5698H22.5698V1.40219H21.5698Z" fill="#6B7280" mask="url(#path-35-inside-12_392_1019)"/>
<path d="M23.1394 0.729492V4.29492H23.0105V0.729492H23.1394Z" fill="white" stroke="#6B7280"/>
<mask id="path-38-inside-13_392_1019" fill="white">
<path d="M23.8689 5.02445H22.2803V0H23.8689V5.02445ZM22.7401 4.56464H23.4091V0.459811H22.7401V4.56464Z"/>
</mask>
<path d="M23.8689 5.02445H22.2803V0H23.8689V5.02445ZM22.7401 4.56464H23.4091V0.459811H22.7401V4.56464Z" fill="#414042"/>
<path d="M23.8689 5.02445V6.02445H24.8689V5.02445H23.8689ZM22.2803 5.02445H21.2803V6.02445H22.2803V5.02445ZM22.2803 0V-1H21.2803V0H22.2803ZM23.8689 0H24.8689V-1H23.8689V0ZM22.7401 4.56464H21.7401V5.56464H22.7401V4.56464ZM23.4091 4.56464V5.56464H24.4091V4.56464H23.4091ZM23.4091 0.459811H24.4091V-0.540189H23.4091V0.459811ZM22.7401 0.459811V-0.540189H21.7401V0.459811H22.7401ZM23.8689 5.02445V4.02445H22.2803V5.02445V6.02445H23.8689V5.02445ZM22.2803 5.02445H23.2803V0H22.2803H21.2803V5.02445H22.2803ZM22.2803 0V1H23.8689V0V-1H22.2803V0ZM23.8689 0H22.8689V5.02445H23.8689H24.8689V0H23.8689ZM22.7401 4.56464V5.56464H23.4091V4.56464V3.56464H22.7401V4.56464ZM23.4091 4.56464H24.4091V0.459811H23.4091H22.4091V4.56464H23.4091ZM23.4091 0.459811V-0.540189H22.7401V0.459811V1.45981H23.4091V0.459811ZM22.7401 0.459811H21.7401V4.56464H22.7401H23.7401V0.459811H22.7401Z" fill="#6B7280" mask="url(#path-38-inside-13_392_1019)"/>
</svg>
