<svg width="34" height="24" viewBox="0 0 34 24" fill="none" xmlns="http://www.w3.org/2000/svg">
<path d="M9.19604 13.4717V14.2568H0.999756V13.4717H9.19604Z" fill="white" stroke="#6B7280"/>
<mask id="path-2-inside-1_392_1221" fill="white">
<path d="M9.92605 14.9859H0.27002V12.7412H9.92605V14.9859ZM0.729447 14.5261H9.46586V13.201H0.729447V14.5261Z"/>
</mask>
<path d="M9.92605 14.9859H0.27002V12.7412H9.92605V14.9859ZM0.729447 14.5261H9.46586V13.201H0.729447V14.5261Z" fill="#414042"/>
<path d="M9.92605 14.9859V15.9859H10.926V14.9859H9.92605ZM0.27002 14.9859H-0.72998V15.9859H0.27002V14.9859ZM0.27002 12.7412V11.7412H-0.72998V12.7412H0.27002ZM9.92605 12.7412H10.926V11.7412H9.92605V12.7412ZM0.729447 14.5261H-0.270553V15.5261H0.729447V14.5261ZM9.46586 14.5261V15.5261H10.4659V14.5261H9.46586ZM9.46586 13.201H10.4659V12.201H9.46586V13.201ZM0.729447 13.201V12.201H-0.270553V13.201H0.729447ZM9.92605 14.9859V13.9859H0.27002V14.9859V15.9859H9.92605V14.9859ZM0.27002 14.9859H1.27002V12.7412H0.27002H-0.72998V14.9859H0.27002ZM0.27002 12.7412V13.7412H9.92605V12.7412V11.7412H0.27002V12.7412ZM9.92605 12.7412H8.92605V14.9859H9.92605H10.926V12.7412H9.92605ZM0.729447 14.5261V15.5261H9.46586V14.5261V13.5261H0.729447V14.5261ZM9.46586 14.5261H10.4659V13.201H9.46586H8.46586V14.5261H9.46586ZM9.46586 13.201V12.201H0.729447V13.201V14.201H9.46586V13.201ZM0.729447 13.201H-0.270553V14.5261H0.729447H1.72945V13.201H0.729447Z" fill="#6B7280" mask="url(#path-2-inside-1_392_1221)"/>
<path d="M8.77637 14.7568V23.6587" stroke="#6B7280"/>
<mask id="path-5-inside-2_392_1221" fill="white">
<path d="M9.00644 14.5264H8.54663V23.888H9.00644V14.5264Z"/>
</mask>
<path d="M9.00644 14.5264H8.54663V23.888H9.00644V14.5264Z" fill="#414042"/>
<path d="M8.54663 14.5264V13.5264H7.54663V14.5264H8.54663ZM9.00644 14.5264H10.0064V13.5264H9.00644V14.5264ZM9.00644 23.888V24.888H10.0064V23.888H9.00644ZM8.54663 23.888H7.54663V24.888H8.54663V23.888ZM8.54663 14.5264V15.5264H9.00644V14.5264V13.5264H8.54663V14.5264ZM9.00644 14.5264H8.00644V23.888H9.00644H10.0064V14.5264H9.00644ZM9.00644 23.888V22.888H8.54663V23.888V24.888H9.00644V23.888ZM8.54663 23.888H9.54663V14.5264H8.54663H7.54663V23.888H8.54663Z" fill="#6B7280" mask="url(#path-5-inside-2_392_1221)"/>
<path d="M0.5 23.6586V1.47656" stroke="#6B7280"/>
<mask id="path-8-inside-3_392_1221" fill="white">
<path d="M0.729586 1.24707H0.269775V23.8889H0.729586V1.24707Z"/>
</mask>
<path d="M0.729586 1.24707H0.269775V23.8889H0.729586V1.24707Z" fill="#414042"/>
<path d="M0.269775 1.24707V0.24707H-0.730225V1.24707H0.269775ZM0.729586 1.24707H1.72959V0.24707H0.729586V1.24707ZM0.729586 23.8889V24.8889H1.72959V23.8889H0.729586ZM0.269775 23.8889H-0.730225V24.8889H0.269775V23.8889ZM0.269775 1.24707V2.24707H0.729586V1.24707V0.24707H0.269775V1.24707ZM0.729586 1.24707H-0.270414V23.8889H0.729586H1.72959V1.24707H0.729586ZM0.729586 23.8889V22.8889H0.269775V23.8889V24.8889H0.729586V23.8889ZM0.269775 23.8889H1.26978V1.24707H0.269775H-0.730225V23.8889H0.269775Z" fill="#6B7280" mask="url(#path-8-inside-3_392_1221)"/>
<mask id="path-10-inside-4_392_1221" fill="white">
<path d="M1.29411 1.47656H0.5V8.40111H1.29411V1.47656Z"/>
</mask>
<path d="M1.29411 1.47656H0.5V8.40111H1.29411V1.47656Z" fill="white"/>
<path d="M0.5 1.47656V0.476562H-0.5V1.47656H0.5ZM1.29411 1.47656H2.29411V0.476562H1.29411V1.47656ZM1.29411 8.40111V9.40111H2.29411V8.40111H1.29411ZM0.5 8.40111H-0.5V9.40111H0.5V8.40111ZM0.5 1.47656V2.47656H1.29411V1.47656V0.476562H0.5V1.47656ZM1.29411 1.47656H0.294114V8.40111H1.29411H2.29411V1.47656H1.29411ZM1.29411 8.40111V7.40111H0.5V8.40111V9.40111H1.29411V8.40111ZM0.5 8.40111H1.5V1.47656H0.5H-0.5V8.40111H0.5Z" fill="#6B7280" mask="url(#path-10-inside-4_392_1221)"/>
<mask id="path-12-inside-5_392_1221" fill="white">
<path d="M1.52443 8.63045H0.270508V1.24609H1.52443V8.63045ZM0.729936 8.17064H1.06425V1.7059H0.729936V8.17064Z"/>
</mask>
<path d="M1.52443 8.63045H0.270508V1.24609H1.52443V8.63045ZM0.729936 8.17064H1.06425V1.7059H0.729936V8.17064Z" fill="#414042"/>
<path d="M1.52443 8.63045V9.63045H2.52443V8.63045H1.52443ZM0.270508 8.63045H-0.729492V9.63045H0.270508V8.63045ZM0.270508 1.24609V0.246094H-0.729492V1.24609H0.270508ZM1.52443 1.24609H2.52443V0.246094H1.52443V1.24609ZM0.729936 8.17064H-0.270064V9.17064H0.729936V8.17064ZM1.06425 8.17064V9.17064H2.06424V8.17064H1.06425ZM1.06425 1.7059H2.06424V0.705905H1.06425V1.7059ZM0.729936 1.7059V0.705905H-0.270064V1.7059H0.729936ZM1.52443 8.63045V7.63045H0.270508V8.63045V9.63045H1.52443V8.63045ZM0.270508 8.63045H1.27051V1.24609H0.270508H-0.729492V8.63045H0.270508ZM0.270508 1.24609V2.24609H1.52443V1.24609V0.246094H0.270508V1.24609ZM1.52443 1.24609H0.524433V8.63045H1.52443H2.52443V1.24609H1.52443ZM0.729936 8.17064V9.17064H1.06425V8.17064V7.17064H0.729936V8.17064ZM1.06425 8.17064H2.06424V1.7059H1.06425H0.064245V8.17064H1.06425ZM1.06425 1.7059V0.705905H0.729936V1.7059V2.7059H1.06425V1.7059ZM0.729936 1.7059H-0.270064V8.17064H0.729936H1.72994V1.7059H0.729936Z" fill="#6B7280" mask="url(#path-12-inside-5_392_1221)"/>
<path d="M32.1614 13.4717V14.2568H23.9651V13.4717H32.1614Z" fill="white" stroke="#6B7280"/>
<mask id="path-15-inside-6_392_1221" fill="white">
<path d="M32.8916 14.9859H23.2356V12.7412H32.8916V14.9859ZM23.695 14.5261H32.4314V13.201H23.695V14.5261Z"/>
</mask>
<path d="M32.8916 14.9859H23.2356V12.7412H32.8916V14.9859ZM23.695 14.5261H32.4314V13.201H23.695V14.5261Z" fill="#414042"/>
<path d="M32.8916 14.9859V15.9859H33.8916V14.9859H32.8916ZM23.2356 14.9859H22.2356V15.9859H23.2356V14.9859ZM23.2356 12.7412V11.7412H22.2356V12.7412H23.2356ZM32.8916 12.7412H33.8916V11.7412H32.8916V12.7412ZM23.695 14.5261H22.695V15.5261H23.695V14.5261ZM32.4314 14.5261V15.5261H33.4314V14.5261H32.4314ZM32.4314 13.201H33.4314V12.201H32.4314V13.201ZM23.695 13.201V12.201H22.695V13.201H23.695ZM32.8916 14.9859V13.9859H23.2356V14.9859V15.9859H32.8916V14.9859ZM23.2356 14.9859H24.2356V12.7412H23.2356H22.2356V14.9859H23.2356ZM23.2356 12.7412V13.7412H32.8916V12.7412V11.7412H23.2356V12.7412ZM32.8916 12.7412H31.8916V14.9859H32.8916H33.8916V12.7412H32.8916ZM23.695 14.5261V15.5261H32.4314V14.5261V13.5261H23.695V14.5261ZM32.4314 14.5261H33.4314V13.201H32.4314H31.4314V14.5261H32.4314ZM32.4314 13.201V12.201H23.695V13.201V14.201H32.4314V13.201ZM23.695 13.201H22.695V14.5261H23.695H24.695V13.201H23.695Z" fill="#6B7280" mask="url(#path-15-inside-6_392_1221)"/>
<path d="M24.3848 14.7568V23.6587" stroke="#6B7280"/>
<mask id="path-18-inside-7_392_1221" fill="white">
<path d="M24.6146 14.5264H24.1548V23.888H24.6146V14.5264Z"/>
</mask>
<path d="M24.6146 14.5264H24.1548V23.888H24.6146V14.5264Z" fill="#414042"/>
<path d="M24.1548 14.5264V13.5264H23.1548V14.5264H24.1548ZM24.6146 14.5264H25.6146V13.5264H24.6146V14.5264ZM24.6146 23.888V24.888H25.6146V23.888H24.6146ZM24.1548 23.888H23.1548V24.888H24.1548V23.888ZM24.1548 14.5264V15.5264H24.6146V14.5264V13.5264H24.1548V14.5264ZM24.6146 14.5264H23.6146V23.888H24.6146H25.6146V14.5264H24.6146ZM24.6146 23.888V22.888H24.1548V23.888V24.888H24.6146V23.888ZM24.1548 23.888H25.1548V14.5264H24.1548H23.1548V23.888H24.1548Z" fill="#6B7280" mask="url(#path-18-inside-7_392_1221)"/>
<path d="M32.6619 23.6586V1.47656" stroke="#6B7280"/>
<mask id="path-21-inside-8_392_1221" fill="white">
<path d="M32.8917 1.24609H32.4319V23.8879H32.8917V1.24609Z"/>
</mask>
<path d="M32.8917 1.24609H32.4319V23.8879H32.8917V1.24609Z" fill="#414042"/>
<path d="M32.4319 1.24609V0.246094H31.4319V1.24609H32.4319ZM32.8917 1.24609H33.8917V0.246094H32.8917V1.24609ZM32.8917 23.8879V24.8879H33.8917V23.8879H32.8917ZM32.4319 23.8879H31.4319V24.8879H32.4319V23.8879ZM32.4319 1.24609V2.24609H32.8917V1.24609V0.246094H32.4319V1.24609ZM32.8917 1.24609H31.8917V23.8879H32.8917H33.8917V1.24609H32.8917ZM32.8917 23.8879V22.8879H32.4319V23.8879V24.8879H32.8917V23.8879ZM32.4319 23.8879H33.4319V1.24609H32.4319H31.4319V23.8879H32.4319Z" fill="#6B7280" mask="url(#path-21-inside-8_392_1221)"/>
<mask id="path-23-inside-9_392_1221" fill="white">
<path d="M32.6615 1.47656H31.8674V8.40111H32.6615V1.47656Z"/>
</mask>
<path d="M32.6615 1.47656H31.8674V8.40111H32.6615V1.47656Z" fill="white"/>
<path d="M31.8674 1.47656V0.476562H30.8674V1.47656H31.8674ZM32.6615 1.47656H33.6615V0.476562H32.6615V1.47656ZM32.6615 8.40111V9.40111H33.6615V8.40111H32.6615ZM31.8674 8.40111H30.8674V9.40111H31.8674V8.40111ZM31.8674 1.47656V2.47656H32.6615V1.47656V0.476562H31.8674V1.47656ZM32.6615 1.47656H31.6615V8.40111H32.6615H33.6615V1.47656H32.6615ZM32.6615 8.40111V7.40111H31.8674V8.40111V9.40111H32.6615V8.40111ZM31.8674 8.40111H32.8674V1.47656H31.8674H30.8674V8.40111H31.8674Z" fill="#6B7280" mask="url(#path-23-inside-9_392_1221)"/>
<mask id="path-25-inside-10_392_1221" fill="white">
<path d="M32.8916 8.63045H31.6377V1.24609H32.8916V8.63045ZM32.0971 8.17064H32.4314V1.7059H32.0971V8.17064Z"/>
</mask>
<path d="M32.8916 8.63045H31.6377V1.24609H32.8916V8.63045ZM32.0971 8.17064H32.4314V1.7059H32.0971V8.17064Z" fill="#414042"/>
<path d="M32.8916 8.63045V9.63045H33.8916V8.63045H32.8916ZM31.6377 8.63045H30.6377V9.63045H31.6377V8.63045ZM31.6377 1.24609V0.246094H30.6377V1.24609H31.6377ZM32.8916 1.24609H33.8916V0.246094H32.8916V1.24609ZM32.0971 8.17064H31.0971V9.17064H32.0971V8.17064ZM32.4314 8.17064V9.17064H33.4314V8.17064H32.4314ZM32.4314 1.7059H33.4314V0.705905H32.4314V1.7059ZM32.0971 1.7059V0.705905H31.0971V1.7059H32.0971ZM32.8916 8.63045V7.63045H31.6377V8.63045V9.63045H32.8916V8.63045ZM31.6377 8.63045H32.6377V1.24609H31.6377H30.6377V8.63045H31.6377ZM31.6377 1.24609V2.24609H32.8916V1.24609V0.246094H31.6377V1.24609ZM32.8916 1.24609H31.8916V8.63045H32.8916H33.8916V1.24609H32.8916ZM32.0971 8.17064V9.17064H32.4314V8.17064V7.17064H32.0971V8.17064ZM32.4314 8.17064H33.4314V1.7059H32.4314H31.4314V8.17064H32.4314ZM32.4314 1.7059V0.705905H32.0971V1.7059V2.7059H32.4314V1.7059ZM32.0971 1.7059H31.0971V8.17064H32.0971H33.0971V1.7059H32.0971Z" fill="#6B7280" mask="url(#path-25-inside-10_392_1221)"/>
<path d="M4.19214 8.77979V23.1597H4.05444V8.77979H4.19214Z" fill="white" stroke="#6B7280"/>
<mask id="path-28-inside-11_392_1221" fill="white">
<path d="M4.92196 23.8886H3.32422V8.04932H4.92196V23.8886ZM3.78441 23.4288H4.46215V8.50913H3.78441V23.4288Z"/>
</mask>
<path d="M4.92196 23.8886H3.32422V8.04932H4.92196V23.8886ZM3.78441 23.4288H4.46215V8.50913H3.78441V23.4288Z" fill="#414042"/>
<path d="M4.92196 23.8886V24.8886H5.92196V23.8886H4.92196ZM3.32422 23.8886H2.32422V24.8886H3.32422V23.8886ZM3.32422 8.04932V7.04932H2.32422V8.04932H3.32422ZM4.92196 8.04932H5.92196V7.04932H4.92196V8.04932ZM3.78441 23.4288H2.78441V24.4288H3.78441V23.4288ZM4.46215 23.4288V24.4288H5.46215V23.4288H4.46215ZM4.46215 8.50913H5.46215V7.50913H4.46215V8.50913ZM3.78441 8.50913V7.50913H2.78441V8.50913H3.78441ZM4.92196 23.8886V22.8886H3.32422V23.8886V24.8886H4.92196V23.8886ZM3.32422 23.8886H4.32422V8.04932H3.32422H2.32422V23.8886H3.32422ZM3.32422 8.04932V9.04932H4.92196V8.04932V7.04932H3.32422V8.04932ZM4.92196 8.04932H3.92196V23.8886H4.92196H5.92196V8.04932H4.92196ZM3.78441 23.4288V24.4288H4.46215V23.4288V22.4288H3.78441V23.4288ZM4.46215 23.4288H5.46215V8.50913H4.46215H3.46215V23.4288H4.46215ZM4.46215 8.50913V7.50913H3.78441V8.50913V9.50913H4.46215V8.50913ZM3.78441 8.50913H2.78441V23.4288H3.78441H4.78441V8.50913H3.78441Z" fill="#6B7280" mask="url(#path-28-inside-11_392_1221)"/>
<path d="M29.1326 8.77979V23.1597H28.9949V8.77979H29.1326Z" fill="white" stroke="#6B7280"/>
<mask id="path-31-inside-12_392_1221" fill="white">
<path d="M29.8625 23.8886H28.2651V8.04932H29.8629V23.8886H29.8625ZM28.7249 23.4288H29.4027V8.50913H28.7249V23.4288Z"/>
</mask>
<path d="M29.8625 23.8886H28.2651V8.04932H29.8629V23.8886H29.8625ZM28.7249 23.4288H29.4027V8.50913H28.7249V23.4288Z" fill="#414042"/>
<path d="M28.2651 23.8886H27.2651V24.8886H28.2651V23.8886ZM28.2651 8.04932V7.04932H27.2651V8.04932H28.2651ZM29.8629 8.04932H30.8629V7.04932H29.8629V8.04932ZM29.8629 23.8886V24.8886H30.8629V23.8886H29.8629ZM28.7249 23.4288H27.7249V24.4288H28.7249V23.4288ZM29.4027 23.4288V24.4288H30.4027V23.4288H29.4027ZM29.4027 8.50913H30.4027V7.50913H29.4027V8.50913ZM28.7249 8.50913V7.50913H27.7249V8.50913H28.7249ZM29.8625 23.8886V22.8886H28.2651V23.8886V24.8886H29.8625V23.8886ZM28.2651 23.8886H29.2651V8.04932H28.2651H27.2651V23.8886H28.2651ZM28.2651 8.04932V9.04932H29.8629V8.04932V7.04932H28.2651V8.04932ZM29.8629 8.04932H28.8629V23.8886H29.8629H30.8629V8.04932H29.8629ZM29.8629 23.8886V22.8886H29.8625V23.8886V24.8886H29.8629V23.8886ZM28.7249 23.4288V24.4288H29.4027V23.4288V22.4288H28.7249V23.4288ZM29.4027 23.4288H30.4027V8.50913H29.4027H28.4027V23.4288H29.4027ZM29.4027 8.50913V7.50913H28.7249V8.50913V9.50913H29.4027V8.50913ZM28.7249 8.50913H27.7249V23.4288H28.7249H29.7249V8.50913H28.7249Z" fill="#6B7280" mask="url(#path-31-inside-12_392_1221)"/>
<path d="M29.1326 6.15332V7.90234H4.05444V6.15332H29.1326Z" fill="white" stroke="#6B7280"/>
<mask id="path-34-inside-13_392_1221" fill="white">
<path d="M29.8624 8.63126H3.32422V5.42285H29.8624V8.63126ZM3.78441 8.17145H29.403V5.88266H3.78441V8.17145Z"/>
</mask>
<path d="M29.8624 8.63126H3.32422V5.42285H29.8624V8.63126ZM3.78441 8.17145H29.403V5.88266H3.78441V8.17145Z" fill="#414042"/>
<path d="M29.8624 8.63126V9.63126H30.8624V8.63126H29.8624ZM3.32422 8.63126H2.32422V9.63126H3.32422V8.63126ZM3.32422 5.42285V4.42285H2.32422V5.42285H3.32422ZM29.8624 5.42285H30.8624V4.42285H29.8624V5.42285ZM3.78441 8.17145H2.78441V9.17145H3.78441V8.17145ZM29.403 8.17145V9.17145H30.403V8.17145H29.403ZM29.403 5.88266H30.403V4.88266H29.403V5.88266ZM3.78441 5.88266V4.88266H2.78441V5.88266H3.78441ZM29.8624 8.63126V7.63126H3.32422V8.63126V9.63126H29.8624V8.63126ZM3.32422 8.63126H4.32422V5.42285H3.32422H2.32422V8.63126H3.32422ZM3.32422 5.42285V6.42285H29.8624V5.42285V4.42285H3.32422V5.42285ZM29.8624 5.42285H28.8624V8.63126H29.8624H30.8624V5.42285H29.8624ZM3.78441 8.17145V9.17145H29.403V8.17145V7.17145H3.78441V8.17145ZM29.403 8.17145H30.403V5.88266H29.403H28.403V8.17145H29.403ZM29.403 5.88266V4.88266H3.78441V5.88266V6.88266H29.403V5.88266ZM3.78441 5.88266H2.78441V8.17145H3.78441H4.78441V5.88266H3.78441Z" fill="#6B7280" mask="url(#path-34-inside-13_392_1221)"/>
<path d="M25.3079 6.19434L16.7131 12.1025L7.83813 6.19434H25.3079Z" fill="#1A3763" stroke="#6B7280"/>
<path d="M16.7205 12.9824L5.42456 5.46387H27.6589L16.7205 12.9824ZM16.7166 12.4277L26.1785 5.92383H6.94507L16.7166 12.4277Z" fill="#414042"/>
<path d="M16.7205 12.9824L5.42456 5.46387H27.6589L16.7205 12.9824ZM16.7166 12.4277L26.1785 5.92383H6.94507L16.7166 12.4277Z" stroke="#6B7280"/>
<path d="M20.6023 1.91504H20.6033C20.8619 1.91528 21.071 2.12469 21.071 2.38281C21.071 2.64125 20.8617 2.85132 20.6033 2.85156C20.3447 2.85156 20.1345 2.6414 20.1345 2.38281C20.1346 2.12428 20.3442 1.91495 20.6023 1.91504Z" fill="white" stroke="#6B7280"/>
<mask id="path-39-inside-14_392_1221" fill="white">
<path d="M20.6023 3.58061C19.9417 3.58061 19.4043 3.04321 19.4043 2.38259C19.4043 1.72197 19.9417 1.18457 20.6023 1.18457C21.2629 1.18457 21.8003 1.72197 21.8003 2.38259C21.8007 3.04321 21.2629 3.58061 20.6023 3.58061ZM20.6023 1.64438C20.1954 1.64438 19.8641 1.97565 19.8641 2.38259C19.8641 2.78954 20.1954 3.1208 20.6023 3.1208C21.0093 3.1208 21.3405 2.78954 21.3405 2.38259C21.3409 1.97527 21.0096 1.64438 20.6023 1.64438Z"/>
</mask>
<path d="M20.6023 3.58061C19.9417 3.58061 19.4043 3.04321 19.4043 2.38259C19.4043 1.72197 19.9417 1.18457 20.6023 1.18457C21.2629 1.18457 21.8003 1.72197 21.8003 2.38259C21.8007 3.04321 21.2629 3.58061 20.6023 3.58061ZM20.6023 1.64438C20.1954 1.64438 19.8641 1.97565 19.8641 2.38259C19.8641 2.78954 20.1954 3.1208 20.6023 3.1208C21.0093 3.1208 21.3405 2.78954 21.3405 2.38259C21.3409 1.97527 21.0096 1.64438 20.6023 1.64438Z" fill="#414042"/>
<path d="M21.8003 2.38259H20.8003L20.8003 2.38317L21.8003 2.38259ZM21.3405 2.38259L20.3405 2.38166V2.38259H21.3405ZM20.6023 3.58061V2.58061C20.494 2.58061 20.4043 2.49093 20.4043 2.38259H19.4043H18.4043C18.4043 3.5955 19.3894 4.58061 20.6023 4.58061V3.58061ZM19.4043 2.38259H20.4043C20.4043 2.27425 20.494 2.18457 20.6023 2.18457V1.18457V0.18457C19.3894 0.18457 18.4043 1.16969 18.4043 2.38259H19.4043ZM20.6023 1.18457V2.18457C20.7107 2.18457 20.8003 2.27426 20.8003 2.38259H21.8003H22.8003C22.8003 1.16969 21.8152 0.18457 20.6023 0.18457V1.18457ZM21.8003 2.38259L20.8003 2.38317C20.8004 2.49053 20.7112 2.58061 20.6023 2.58061V3.58061V4.58061C21.8147 4.58061 22.801 3.5959 22.8003 2.38202L21.8003 2.38259ZM20.6023 1.64438V0.644381C19.6431 0.644381 18.8641 1.42337 18.8641 2.38259H19.8641H20.8641C20.8641 2.52792 20.7477 2.64438 20.6023 2.64438V1.64438ZM19.8641 2.38259H18.8641C18.8641 3.34182 19.6431 4.1208 20.6023 4.1208V3.1208V2.1208C20.7477 2.1208 20.8641 2.23725 20.8641 2.38259H19.8641ZM20.6023 3.1208V4.1208C21.5615 4.1208 22.3405 3.34183 22.3405 2.38259H21.3405H20.3405C20.3405 2.23724 20.457 2.1208 20.6023 2.1208V3.1208ZM21.3405 2.38259L22.3405 2.38353C22.3414 1.42233 21.5611 0.644381 20.6023 0.644381V1.64438V2.64438C20.4582 2.64438 20.3404 2.5282 20.3405 2.38166L21.3405 2.38259Z" fill="#6B7280" mask="url(#path-39-inside-14_392_1221)"/>
<path d="M21.571 0.729492C21.8295 0.729732 22.0388 0.939754 22.0388 1.19824C22.0386 1.45652 21.8293 1.66578 21.571 1.66602C21.3126 1.66602 21.1025 1.45667 21.1023 1.19824C21.1023 0.939605 21.3124 0.729492 21.571 0.729492Z" fill="white" stroke="#6B7280"/>
<mask id="path-42-inside-15_392_1221" fill="white">
<path d="M21.5706 2.39604C20.91 2.39604 20.3726 1.85864 20.3726 1.19802C20.3726 0.537401 20.91 0 21.5706 0C22.2312 0 22.7686 0.537401 22.7686 1.19802C22.7686 1.85864 22.2312 2.39604 21.5706 2.39604ZM21.5706 0.459811C21.1636 0.459811 20.8324 0.791076 20.8324 1.19802C20.8324 1.60497 21.1636 1.93623 21.5706 1.93623C21.9775 1.93623 22.3088 1.60497 22.3088 1.19802C22.3088 0.790696 21.9775 0.459811 21.5706 0.459811Z"/>
</mask>
<path d="M21.5706 2.39604C20.91 2.39604 20.3726 1.85864 20.3726 1.19802C20.3726 0.537401 20.91 0 21.5706 0C22.2312 0 22.7686 0.537401 22.7686 1.19802C22.7686 1.85864 22.2312 2.39604 21.5706 2.39604ZM21.5706 0.459811C21.1636 0.459811 20.8324 0.791076 20.8324 1.19802C20.8324 1.60497 21.1636 1.93623 21.5706 1.93623C21.9775 1.93623 22.3088 1.60497 22.3088 1.19802C22.3088 0.790696 21.9775 0.459811 21.5706 0.459811Z" fill="#414042"/>
<path d="M21.5706 2.39604V1.39604C21.4622 1.39604 21.3726 1.30636 21.3726 1.19802H20.3726H19.3726C19.3726 2.41093 20.3577 3.39604 21.5706 3.39604V2.39604ZM20.3726 1.19802H21.3726C21.3726 1.08968 21.4622 1 21.5706 1V0V-1C20.3577 -1 19.3726 -0.0148779 19.3726 1.19802H20.3726ZM21.5706 0V1C21.6789 1 21.7686 1.08969 21.7686 1.19802H22.7686H23.7686C23.7686 -0.0148842 22.7835 -1 21.5706 -1V0ZM22.7686 1.19802H21.7686C21.7686 1.30635 21.6789 1.39604 21.5706 1.39604V2.39604V3.39604C22.7835 3.39604 23.7686 2.41094 23.7686 1.19802H22.7686ZM21.5706 0.459811V-0.540189C20.6113 -0.540189 19.8324 0.238802 19.8324 1.19802H20.8324H21.8324C21.8324 1.34335 21.7159 1.45981 21.5706 1.45981V0.459811ZM20.8324 1.19802H19.8324C19.8324 2.15725 20.6113 2.93623 21.5706 2.93623V1.93623V0.936228C21.7159 0.936228 21.8324 1.05268 21.8324 1.19802H20.8324ZM21.5706 1.93623V2.93623C22.5298 2.93623 23.3088 2.15726 23.3088 1.19802H22.3088H21.3088C21.3088 1.05267 21.4252 0.936228 21.5706 0.936228V1.93623ZM22.3088 1.19802H23.3088C23.3088 0.238076 22.5295 -0.540189 21.5706 -0.540189V0.459811V1.45981C21.4256 1.45981 21.3088 1.34332 21.3088 1.19802H22.3088Z" fill="#6B7280" mask="url(#path-42-inside-15_392_1221)"/>
<path d="M22.1155 1.98145C22.5294 1.98158 22.8645 2.31746 22.8645 2.73145C22.8644 3.14532 22.5293 3.48033 22.1155 3.48047C21.7015 3.48047 21.3656 3.1454 21.3655 2.73145C21.3655 2.31738 21.7014 1.98145 22.1155 1.98145Z" fill="white" stroke="#6B7280"/>
<mask id="path-45-inside-16_392_1221" fill="white">
<path d="M22.1153 4.21163C21.2995 4.21163 20.6355 3.54796 20.6355 2.73179C20.6355 1.91561 21.2992 1.25195 22.1153 1.25195C22.9311 1.25195 23.5952 1.91561 23.5952 2.73179C23.5952 3.54796 22.9311 4.21163 22.1153 4.21163ZM22.1153 1.71214C21.5528 1.71214 21.0953 2.16967 21.0953 2.73217C21.0953 3.29467 21.5528 3.7522 22.1153 3.7522C22.6778 3.7522 23.1354 3.29467 23.1354 2.73217C23.135 2.16967 22.6778 1.71214 22.1153 1.71214Z"/>
</mask>
<path d="M22.1153 4.21163C21.2995 4.21163 20.6355 3.54796 20.6355 2.73179C20.6355 1.91561 21.2992 1.25195 22.1153 1.25195C22.9311 1.25195 23.5952 1.91561 23.5952 2.73179C23.5952 3.54796 22.9311 4.21163 22.1153 4.21163ZM22.1153 1.71214C21.5528 1.71214 21.0953 2.16967 21.0953 2.73217C21.0953 3.29467 21.5528 3.7522 22.1153 3.7522C22.6778 3.7522 23.1354 3.29467 23.1354 2.73217C23.135 2.16967 22.6778 1.71214 22.1153 1.71214Z" fill="#414042"/>
<path d="M23.1354 2.73217H24.1354L24.1354 2.7315L23.1354 2.73217ZM22.1153 4.21163V3.21163C21.8517 3.21163 21.6355 2.99551 21.6355 2.73179H20.6355H19.6355C19.6355 4.10041 20.7474 5.21163 22.1153 5.21163V4.21163ZM20.6355 2.73179H21.6355C21.6355 2.4679 21.8514 2.25195 22.1153 2.25195V1.25195V0.251953C20.7469 0.251953 19.6355 1.36332 19.6355 2.73179H20.6355ZM22.1153 1.25195V2.25195C22.379 2.25195 22.5952 2.46807 22.5952 2.73179H23.5952H24.5952C24.5952 1.36316 23.4833 0.251953 22.1153 0.251953V1.25195ZM23.5952 2.73179H22.5952C22.5952 2.99552 22.379 3.21163 22.1153 3.21163V4.21163V5.21163C23.4833 5.21163 24.5952 4.10041 24.5952 2.73179H23.5952ZM22.1153 1.71214V0.712141C21.0006 0.712141 20.0953 1.61739 20.0953 2.73217H21.0953H22.0953C22.0953 2.72823 22.0959 2.72663 22.0964 2.72557C22.0971 2.72383 22.0987 2.72113 22.1015 2.71833C22.1043 2.71552 22.107 2.71394 22.1087 2.7132C22.1098 2.71275 22.1114 2.71214 22.1153 2.71214V1.71214ZM21.0953 2.73217H20.0953C20.0953 3.84696 21.0006 4.7522 22.1153 4.7522V3.7522V2.7522C22.1114 2.7522 22.1098 2.75159 22.1087 2.75114C22.107 2.7504 22.1043 2.74882 22.1015 2.74601C22.0987 2.7432 22.0971 2.74051 22.0964 2.73877C22.0959 2.73771 22.0953 2.73611 22.0953 2.73217H21.0953ZM22.1153 3.7522V4.7522C23.2301 4.7522 24.1354 3.84695 24.1354 2.73217H23.1354H22.1354C22.1354 2.73611 22.1348 2.73771 22.1343 2.73877C22.1336 2.74051 22.132 2.74321 22.1292 2.74601C22.1264 2.74882 22.1237 2.7504 22.1219 2.75114C22.1209 2.75159 22.1193 2.7522 22.1153 2.7522V3.7522ZM23.1354 2.73217L24.1354 2.7315C24.1346 1.61786 23.2307 0.712141 22.1153 0.712141V1.71214V2.71214C22.1193 2.71214 22.1208 2.71274 22.1218 2.71316C22.1235 2.71387 22.1261 2.71542 22.1289 2.71823C22.1318 2.72104 22.1334 2.7238 22.1342 2.72568C22.1347 2.72689 22.1354 2.72869 22.1354 2.73285L23.1354 2.73217Z" fill="#6B7280" mask="url(#path-45-inside-16_392_1221)"/>
<path d="M23.5217 3.25C23.4631 3.40761 23.3865 3.5825 23.2825 3.75488C22.9677 4.27629 22.4297 4.77734 21.4436 4.77734C20.4589 4.77731 19.931 4.27825 19.6252 3.75977C19.5225 3.58563 19.4474 3.40896 19.3909 3.25H23.5217Z" fill="white" stroke="#6B7280"/>
<mask id="path-48-inside-17_392_1221" fill="white">
<path d="M21.4442 5.50757C20.0929 5.50757 19.3677 4.75871 18.9972 4.13079C18.6044 3.46447 18.5256 2.80423 18.5222 2.77647L18.4929 2.52051H24.4332L24.4001 2.77951C24.3967 2.80727 24.3088 3.46713 23.9068 4.13308C23.5288 4.75985 22.7944 5.50757 21.4442 5.50757ZM19.0288 2.97994C19.0839 3.20927 19.1935 3.56183 19.4011 3.90945C19.8518 4.66439 20.5391 5.04738 21.4446 5.04738C22.3562 5.04738 23.0526 4.65944 23.5139 3.89461C23.7216 3.55042 23.8342 3.20547 23.8912 2.97956L19.0288 2.97994Z"/>
</mask>
<path d="M21.4442 5.50757C20.0929 5.50757 19.3677 4.75871 18.9972 4.13079C18.6044 3.46447 18.5256 2.80423 18.5222 2.77647L18.4929 2.52051H24.4332L24.4001 2.77951C24.3967 2.80727 24.3088 3.46713 23.9068 4.13308C23.5288 4.75985 22.7944 5.50757 21.4442 5.50757ZM19.0288 2.97994C19.0839 3.20927 19.1935 3.56183 19.4011 3.90945C19.8518 4.66439 20.5391 5.04738 21.4446 5.04738C22.3562 5.04738 23.0526 4.65944 23.5139 3.89461C23.7216 3.55042 23.8342 3.20547 23.8912 2.97956L19.0288 2.97994Z" fill="#414042"/>
<path d="M18.9972 4.13079L18.1358 4.6387L18.1359 4.63891L18.9972 4.13079ZM18.5222 2.77647L17.5286 2.89014L17.5297 2.89883L18.5222 2.77647ZM18.4929 2.52051V1.52051H17.372L17.4994 2.63417L18.4929 2.52051ZM24.4332 2.52051L25.4251 2.64724L25.5691 1.52051H24.4332V2.52051ZM24.4001 2.77951L23.4082 2.65278L23.4076 2.65715L24.4001 2.77951ZM23.9068 4.13308L23.0507 3.61628L23.0505 3.61659L23.9068 4.13308ZM19.0288 2.97994L19.0287 1.97994L17.7598 1.98003L18.0565 3.21374L19.0288 2.97994ZM19.4011 3.90945L20.2598 3.39686L20.2596 3.39661L19.4011 3.90945ZM23.5139 3.89461L22.6577 3.37803L22.6577 3.37811L23.5139 3.89461ZM23.8912 2.97956L24.8608 3.2244L25.1752 1.97946L23.8912 1.97956L23.8912 2.97956ZM21.4442 5.50757V4.50757C20.5496 4.50757 20.1083 4.0461 19.8585 3.62268L18.9972 4.13079L18.1359 4.63891C18.627 5.47132 19.6363 6.50757 21.4442 6.50757V5.50757ZM18.9972 4.13079L19.8586 3.62289C19.7188 3.38574 19.6308 3.14148 19.5779 2.94912C19.5519 2.85464 19.5357 2.77715 19.5262 2.72541C19.5214 2.69967 19.5184 2.68061 19.5168 2.66934C19.5153 2.65904 19.5148 2.65486 19.5147 2.65411L18.5222 2.77647L17.5297 2.89883C17.5296 2.89796 17.5301 2.90188 17.5305 2.90534C17.531 2.90928 17.5316 2.9141 17.5324 2.91972C17.5339 2.93096 17.5358 2.94487 17.5382 2.96126C17.543 2.99402 17.5498 3.0363 17.5591 3.08678C17.5776 3.18746 17.6062 3.32188 17.6494 3.47922C17.735 3.7905 17.8828 4.20952 18.1358 4.6387L18.9972 4.13079ZM18.5222 2.77647L19.5157 2.6628L19.4864 2.40684L18.4929 2.52051L17.4994 2.63417L17.5287 2.89013L18.5222 2.77647ZM18.4929 2.52051V3.52051H24.4332V2.52051V1.52051H18.4929V2.52051ZM24.4332 2.52051L23.4413 2.39378L23.4082 2.65278L24.4001 2.77951L25.392 2.90624L25.4251 2.64724L24.4332 2.52051ZM24.4001 2.77951L23.4076 2.65715C23.4117 2.62403 23.3479 3.12394 23.0507 3.61628L23.9068 4.13308L24.7629 4.64987C25.2697 3.81032 25.3817 2.99052 25.3926 2.90187L24.4001 2.77951ZM23.9068 4.13308L23.0505 3.61659C22.793 4.04362 22.3408 4.50757 21.4442 4.50757V5.50757V6.50757C23.2479 6.50757 24.2646 5.47608 24.7631 4.64956L23.9068 4.13308ZM19.0288 2.97994L18.0565 3.21374C18.1257 3.50165 18.2658 3.95877 18.5426 4.42228L19.4011 3.90945L20.2596 3.39661C20.1212 3.16489 20.0421 2.91689 20.0011 2.74614L19.0288 2.97994ZM19.4011 3.90945L18.5425 4.42203C19.18 5.48988 20.1996 6.04738 21.4446 6.04738V5.04738V4.04738C20.8786 4.04738 20.5237 3.83889 20.2598 3.39686L19.4011 3.90945ZM21.4446 5.04738V6.04738C22.6978 6.04738 23.7234 5.48353 24.3702 4.41111L23.5139 3.89461L22.6577 3.37811C22.3819 3.83536 22.0147 4.04738 21.4446 4.04738V5.04738ZM23.5139 3.89461L24.3702 4.41119C24.6444 3.95674 24.7883 3.51162 24.8608 3.2244L23.8912 2.97956L22.9217 2.73472C22.8801 2.89932 22.7988 3.1441 22.6577 3.37803L23.5139 3.89461ZM23.8912 2.97956L23.8912 1.97956L19.0287 1.97994L19.0288 2.97994L19.0289 3.97994L23.8913 3.97956L23.8912 2.97956Z" fill="#6B7280" mask="url(#path-48-inside-17_392_1221)"/>
</svg>
