<svg width="26" height="31" viewBox="0 0 26 31" fill="none" xmlns="http://www.w3.org/2000/svg">
<path d="M24.9812 12.9229V29.4551H0.730225V12.9229H24.9812Z" fill="white" stroke="#6B7280"/>
<mask id="path-2-inside-1_392_1445" fill="white">
<path d="M25.711 30.1862H0V12.1938H25.711V30.1862ZM0.459817 29.7264H25.2512V12.6537H0.459817V29.7264Z"/>
</mask>
<path d="M25.711 30.1862H0V12.1938H25.711V30.1862ZM0.459817 29.7264H25.2512V12.6537H0.459817V29.7264Z" fill="#414042"/>
<path d="M25.711 30.1862V31.1862H26.711V30.1862H25.711ZM0 30.1862H-1V31.1862H0V30.1862ZM0 12.1938V11.1938H-1V12.1938H0ZM25.711 12.1938H26.711V11.1938H25.711V12.1938ZM0.459817 29.7264H-0.540183V30.7264H0.459817V29.7264ZM25.2512 29.7264V30.7264H26.2512V29.7264H25.2512ZM25.2512 12.6537H26.2512V11.6537H25.2512V12.6537ZM0.459817 12.6537V11.6537H-0.540183V12.6537H0.459817ZM25.711 30.1862V29.1862H0V30.1862V31.1862H25.711V30.1862ZM0 30.1862H1V12.1938H0H-1V30.1862H0ZM0 12.1938V13.1938H25.711V12.1938V11.1938H0V12.1938ZM25.711 12.1938H24.711V30.1862H25.711H26.711V12.1938H25.711ZM0.459817 29.7264V30.7264H25.2512V29.7264V28.7264H0.459817V29.7264ZM25.2512 29.7264H26.2512V12.6537H25.2512H24.2512V29.7264H25.2512ZM25.2512 12.6537V11.6537H0.459817V12.6537V13.6537H25.2512V12.6537ZM0.459817 12.6537H-0.540183V29.7264H0.459817H1.45982V12.6537H0.459817Z" fill="#6B7280" mask="url(#path-2-inside-1_392_1445)"/>
<path d="M24.9812 12.9229V15.8506H0.730225V12.9229H24.9812Z" fill="white" stroke="#6B7280"/>
<mask id="path-5-inside-2_392_1445" fill="white">
<path d="M25.711 16.5813H0V12.1938H25.711V16.5813ZM0.459817 16.1214H25.2512V12.6537H0.459817V16.1214Z"/>
</mask>
<path d="M25.711 16.5813H0V12.1938H25.711V16.5813ZM0.459817 16.1214H25.2512V12.6537H0.459817V16.1214Z" fill="#414042"/>
<path d="M25.711 16.5813V17.5813H26.711V16.5813H25.711ZM0 16.5813H-1V17.5813H0V16.5813ZM0 12.1938V11.1938H-1V12.1938H0ZM25.711 12.1938H26.711V11.1938H25.711V12.1938ZM0.459817 16.1214H-0.540183V17.1214H0.459817V16.1214ZM25.2512 16.1214V17.1214H26.2512V16.1214H25.2512ZM25.2512 12.6537H26.2512V11.6537H25.2512V12.6537ZM0.459817 12.6537V11.6537H-0.540183V12.6537H0.459817ZM25.711 16.5813V15.5813H0V16.5813V17.5813H25.711V16.5813ZM0 16.5813H1V12.1938H0H-1V16.5813H0ZM0 12.1938V13.1938H25.711V12.1938V11.1938H0V12.1938ZM25.711 12.1938H24.711V16.5813H25.711H26.711V12.1938H25.711ZM0.459817 16.1214V17.1214H25.2512V16.1214V15.1214H0.459817V16.1214ZM25.2512 16.1214H26.2512V12.6537H25.2512H24.2512V16.1214H25.2512ZM25.2512 12.6537V11.6537H0.459817V12.6537V13.6537H25.2512V12.6537ZM0.459817 12.6537H-0.540183V16.1214H0.459817H1.45982V12.6537H0.459817Z" fill="#6B7280" mask="url(#path-5-inside-2_392_1445)"/>
<path d="M22.6821 18.6587V27.23H2.59033V18.6587H22.6821Z" fill="white" stroke="#6B7280"/>
<mask id="path-8-inside-3_392_1445" fill="white">
<path d="M23.4119 27.9611H1.86011V17.9297H23.4119V27.9611ZM2.3203 27.5013H22.9525V18.3895H2.3203V27.5013Z"/>
</mask>
<path d="M23.4119 27.9611H1.86011V17.9297H23.4119V27.9611ZM2.3203 27.5013H22.9525V18.3895H2.3203V27.5013Z" fill="#414042"/>
<path d="M23.4119 27.9611V28.9611H24.4119V27.9611H23.4119ZM1.86011 27.9611H0.860107V28.9611H1.86011V27.9611ZM1.86011 17.9297V16.9297H0.860107V17.9297H1.86011ZM23.4119 17.9297H24.4119V16.9297H23.4119V17.9297ZM2.3203 27.5013H1.3203V28.5013H2.3203V27.5013ZM22.9525 27.5013V28.5013H23.9525V27.5013H22.9525ZM22.9525 18.3895H23.9525V17.3895H22.9525V18.3895ZM2.3203 18.3895V17.3895H1.3203V18.3895H2.3203ZM23.4119 27.9611V26.9611H1.86011V27.9611V28.9611H23.4119V27.9611ZM1.86011 27.9611H2.86011V17.9297H1.86011H0.860107V27.9611H1.86011ZM1.86011 17.9297V18.9297H23.4119V17.9297V16.9297H1.86011V17.9297ZM23.4119 17.9297H22.4119V27.9611H23.4119H24.4119V17.9297H23.4119ZM2.3203 27.5013V28.5013H22.9525V27.5013V26.5013H2.3203V27.5013ZM22.9525 27.5013H23.9525V18.3895H22.9525H21.9525V27.5013H22.9525ZM22.9525 18.3895V17.3895H2.3203V18.3895V19.3895H22.9525V18.3895ZM2.3203 18.3895H1.3203V27.5013H2.3203H3.3203V18.3895H2.3203Z" fill="#6B7280" mask="url(#path-8-inside-3_392_1445)"/>
<path d="M4.69678 14.064C4.87539 14.0642 5.02002 14.2095 5.02002 14.3882C5.01979 14.5667 4.87525 14.7112 4.69678 14.7114C4.51809 14.7114 4.37279 14.5668 4.37256 14.3882C4.37256 14.2094 4.51796 14.064 4.69678 14.064Z" fill="white" stroke="#6B7280"/>
<mask id="path-11-inside-4_392_1445" fill="white">
<path d="M4.69621 15.4412C4.11507 15.4412 3.64233 14.9685 3.64233 14.3874C3.64233 13.8062 4.11507 13.3335 4.69621 13.3335C5.27734 13.3335 5.75008 13.8062 5.75008 14.3874C5.75008 14.9685 5.27734 15.4412 4.69621 15.4412ZM4.69621 13.7933C4.36875 13.7933 4.10214 14.0599 4.10214 14.3874C4.10214 14.7148 4.36875 14.9814 4.69621 14.9814C5.02367 14.9814 5.29027 14.7148 5.29027 14.3874C5.29027 14.0599 5.02367 13.7933 4.69621 13.7933Z"/>
</mask>
<path d="M4.69621 15.4412C4.11507 15.4412 3.64233 14.9685 3.64233 14.3874C3.64233 13.8062 4.11507 13.3335 4.69621 13.3335C5.27734 13.3335 5.75008 13.8062 5.75008 14.3874C5.75008 14.9685 5.27734 15.4412 4.69621 15.4412ZM4.69621 13.7933C4.36875 13.7933 4.10214 14.0599 4.10214 14.3874C4.10214 14.7148 4.36875 14.9814 4.69621 14.9814C5.02367 14.9814 5.29027 14.7148 5.29027 14.3874C5.29027 14.0599 5.02367 13.7933 4.69621 13.7933Z" fill="#414042"/>
<path d="M5.75008 14.3874H6.75008H5.75008ZM5.29027 14.3874H6.29027H5.29027ZM4.69621 15.4412V14.4412C4.68235 14.4412 4.67003 14.4367 4.65845 14.4251C4.64688 14.4135 4.64233 14.4012 4.64233 14.3874H3.64233H2.64233C2.64233 15.5208 3.56279 16.4412 4.69621 16.4412V15.4412ZM3.64233 14.3874H4.64233C4.64233 14.3735 4.64688 14.3612 4.65845 14.3496C4.67003 14.338 4.68235 14.3335 4.69621 14.3335V13.3335V12.3335C3.56279 12.3335 2.64233 13.254 2.64233 14.3874H3.64233ZM4.69621 13.3335V14.3335C4.71007 14.3335 4.72239 14.338 4.73396 14.3496C4.74554 14.3612 4.75008 14.3735 4.75008 14.3874H5.75008H6.75008C6.75008 13.254 5.82963 12.3335 4.69621 12.3335V13.3335ZM5.75008 14.3874H4.75008C4.75008 14.4012 4.74554 14.4135 4.73396 14.4251C4.72239 14.4367 4.71007 14.4412 4.69621 14.4412V15.4412V16.4412C5.82963 16.4412 6.75008 15.5208 6.75008 14.3874H5.75008ZM4.69621 13.7933V12.7933C3.81647 12.7933 3.10214 13.5076 3.10214 14.3874H4.10214H5.10214C5.10214 14.6122 4.92104 14.7933 4.69621 14.7933V13.7933ZM4.10214 14.3874H3.10214C3.10214 15.2671 3.81649 15.9814 4.69621 15.9814V14.9814V13.9814C4.92101 13.9814 5.10214 14.1625 5.10214 14.3874H4.10214ZM4.69621 14.9814V15.9814C5.57595 15.9814 6.29027 15.2671 6.29027 14.3874H5.29027H4.29027C4.29027 14.1625 4.47138 13.9814 4.69621 13.9814V14.9814ZM5.29027 14.3874H6.29027C6.29027 13.5077 5.57598 12.7933 4.69621 12.7933V13.7933V14.7933C4.47136 14.7933 4.29027 14.6122 4.29027 14.3874H5.29027Z" fill="#6B7280" mask="url(#path-11-inside-4_392_1445)"/>
<path d="M4.69604 13.0625V15.2113" stroke="#6B7280"/>
<mask id="path-14-inside-5_392_1445" fill="white">
<path d="M4.69627 15.4418C4.56924 15.4418 4.46655 15.3387 4.46655 15.212V13.0632C4.46655 12.9362 4.56962 12.8335 4.69627 12.8335C4.8233 12.8335 4.92599 12.9366 4.92599 13.0632V15.212C4.92599 15.3391 4.8233 15.4418 4.69627 15.4418Z"/>
</mask>
<path d="M4.69627 15.4418C4.56924 15.4418 4.46655 15.3387 4.46655 15.212V13.0632C4.46655 12.9362 4.56962 12.8335 4.69627 12.8335C4.8233 12.8335 4.92599 12.9366 4.92599 13.0632V15.212C4.92599 15.3391 4.8233 15.4418 4.69627 15.4418Z" fill="#414042"/>
<path d="M4.69627 15.4418V14.4418C5.1226 14.4418 5.46655 14.7875 5.46655 15.212H4.46655H3.46655C3.46655 15.8899 4.01588 16.4418 4.69627 16.4418V15.4418ZM4.46655 15.212H5.46655V13.0632H4.46655H3.46655V15.212H4.46655ZM4.46655 13.0632H5.46655C5.46655 13.4895 5.12083 13.8335 4.69627 13.8335V12.8335V11.8335C4.01842 11.8335 3.46655 12.3828 3.46655 13.0632H4.46655ZM4.69627 12.8335V13.8335C4.26994 13.8335 3.92599 13.4878 3.92599 13.0632H4.92599H5.92599C5.92599 12.3854 5.37666 11.8335 4.69627 11.8335V12.8335ZM4.92599 13.0632H3.92599V15.212H4.92599H5.92599V13.0632H4.92599ZM4.92599 15.212H3.92599C3.92599 14.7868 4.27101 14.4418 4.69627 14.4418V15.4418V16.4418C5.37558 16.4418 5.92599 15.8914 5.92599 15.212H4.92599Z" fill="#6B7280" mask="url(#path-14-inside-5_392_1445)"/>
<path d="M7.8313 14.064C8.01 14.064 8.15454 14.2095 8.15454 14.3882C8.15431 14.5667 8.00986 14.7114 7.8313 14.7114C7.65219 14.7114 7.50731 14.5666 7.50708 14.3882C7.50708 14.2094 7.6519 14.064 7.8313 14.064Z" fill="white" stroke="#6B7280"/>
<mask id="path-17-inside-6_392_1445" fill="white">
<path d="M7.83122 15.4412C7.25008 15.4412 6.77734 14.9685 6.77734 14.3874C6.77734 13.8062 7.25008 13.3335 7.83122 13.3335C8.41235 13.3335 8.88509 13.8062 8.88509 14.3874C8.88471 14.9685 8.41197 15.4412 7.83122 15.4412ZM7.83122 13.7933C7.50376 13.7933 7.23716 14.0599 7.23716 14.3874C7.23716 14.7148 7.50376 14.9814 7.83122 14.9814C8.15868 14.9814 8.42529 14.7148 8.42529 14.3874C8.42529 14.0599 8.15868 13.7933 7.83122 13.7933Z"/>
</mask>
<path d="M7.83122 15.4412C7.25008 15.4412 6.77734 14.9685 6.77734 14.3874C6.77734 13.8062 7.25008 13.3335 7.83122 13.3335C8.41235 13.3335 8.88509 13.8062 8.88509 14.3874C8.88471 14.9685 8.41197 15.4412 7.83122 15.4412ZM7.83122 13.7933C7.50376 13.7933 7.23716 14.0599 7.23716 14.3874C7.23716 14.7148 7.50376 14.9814 7.83122 14.9814C8.15868 14.9814 8.42529 14.7148 8.42529 14.3874C8.42529 14.0599 8.15868 13.7933 7.83122 13.7933Z" fill="#414042"/>
<path d="M8.88509 14.3874L9.88509 14.388V14.3874H8.88509ZM8.42529 14.3874H9.42529H8.42529ZM7.83122 15.4412V14.4412C7.81736 14.4412 7.80504 14.4367 7.79346 14.4251C7.78189 14.4135 7.77734 14.4012 7.77734 14.3874H6.77734H5.77734C5.77734 15.5208 6.6978 16.4412 7.83122 16.4412V15.4412ZM6.77734 14.3874H7.77734C7.77734 14.3735 7.78189 14.3612 7.79346 14.3496C7.80504 14.338 7.81736 14.3335 7.83122 14.3335V13.3335V12.3335C6.6978 12.3335 5.77734 13.254 5.77734 14.3874H6.77734ZM7.83122 13.3335V14.3335C7.84508 14.3335 7.8574 14.338 7.86897 14.3496C7.88055 14.3612 7.88509 14.3735 7.88509 14.3874H8.88509H9.88509C9.88509 13.254 8.96464 12.3335 7.83122 12.3335V13.3335ZM8.88509 14.3874L7.88509 14.3867C7.88508 14.4008 7.88042 14.4134 7.86869 14.4251C7.85697 14.4368 7.84469 14.4412 7.83122 14.4412V15.4412V16.4412C8.96462 16.4412 9.88435 15.5206 9.88509 14.388L8.88509 14.3874ZM7.83122 13.7933V12.7933C6.95145 12.7933 6.23716 13.5077 6.23716 14.3874H7.23716H8.23716C8.23716 14.6122 8.05607 14.7933 7.83122 14.7933V13.7933ZM7.23716 14.3874H6.23716C6.23716 15.2671 6.95148 15.9814 7.83122 15.9814V14.9814V13.9814C8.05604 13.9814 8.23716 14.1625 8.23716 14.3874H7.23716ZM7.83122 14.9814V15.9814C8.71094 15.9814 9.42529 15.2671 9.42529 14.3874H8.42529H7.42529C7.42529 14.1625 7.60642 13.9814 7.83122 13.9814V14.9814ZM8.42529 14.3874H9.42529C9.42529 13.5076 8.71096 12.7933 7.83122 12.7933V13.7933V14.7933C7.60639 14.7933 7.42529 14.6122 7.42529 14.3874H8.42529Z" fill="#6B7280" mask="url(#path-17-inside-6_392_1445)"/>
<path d="M7.8313 13.0625V15.2113" stroke="#6B7280"/>
<mask id="path-20-inside-7_392_1445" fill="white">
<path d="M7.83128 15.4418C7.70425 15.4418 7.60156 15.3387 7.60156 15.212V13.0632C7.60156 12.9362 7.70463 12.8335 7.83128 12.8335C7.95793 12.8335 8.06138 12.9366 8.06138 13.0632V15.212C8.061 15.3391 7.95793 15.4418 7.83128 15.4418Z"/>
</mask>
<path d="M7.83128 15.4418C7.70425 15.4418 7.60156 15.3387 7.60156 15.212V13.0632C7.60156 12.9362 7.70463 12.8335 7.83128 12.8335C7.95793 12.8335 8.06138 12.9366 8.06138 13.0632V15.212C8.061 15.3391 7.95793 15.4418 7.83128 15.4418Z" fill="#414042"/>
<path d="M8.06138 15.212L9.06138 15.215V15.212H8.06138ZM7.83128 15.4418V14.4418C8.25761 14.4418 8.60156 14.7875 8.60156 15.212H7.60156H6.60156C6.60156 15.8899 7.15089 16.4418 7.83128 16.4418V15.4418ZM7.60156 15.212H8.60156V13.0632H7.60156H6.60156V15.212H7.60156ZM7.60156 13.0632H8.60156C8.60156 13.4895 8.25584 13.8335 7.83128 13.8335V12.8335V11.8335C7.15343 11.8335 6.60156 12.3828 6.60156 13.0632H7.60156ZM7.83128 12.8335V13.8335C7.40781 13.8335 7.06138 13.491 7.06138 13.0632H8.06138H9.06138C9.06138 12.3821 8.50804 11.8335 7.83128 11.8335V12.8335ZM8.06138 13.0632H7.06138V15.212H8.06138H9.06138V13.0632H8.06138ZM8.06138 15.212L7.06138 15.209C7.06265 14.7856 7.40616 14.4418 7.83128 14.4418V15.4418V16.4418C8.50969 16.4418 9.05935 15.8925 9.06137 15.215L8.06138 15.212Z" fill="#6B7280" mask="url(#path-20-inside-7_392_1445)"/>
<path d="M10.9666 14.064C11.1452 14.064 11.2898 14.2095 11.2898 14.3882C11.2896 14.5667 11.1451 14.7114 10.9666 14.7114C10.7874 14.7114 10.6426 14.5666 10.6423 14.3882C10.6423 14.2094 10.7872 14.064 10.9666 14.064Z" fill="white" stroke="#6B7280"/>
<mask id="path-23-inside-8_392_1445" fill="white">
<path d="M10.9662 15.4412C10.3851 15.4412 9.91235 14.9685 9.91235 14.3874C9.91235 13.8062 10.3851 13.3335 10.9662 13.3335C11.5474 13.3335 12.0201 13.8062 12.0201 14.3874C12.0197 14.9685 11.547 15.4412 10.9662 15.4412ZM10.9662 13.7933C10.6388 13.7933 10.3722 14.0599 10.3722 14.3874C10.3722 14.7148 10.6388 14.9814 10.9662 14.9814C11.2937 14.9814 11.5603 14.7148 11.5603 14.3874C11.5599 14.0599 11.2937 13.7933 10.9662 13.7933Z"/>
</mask>
<path d="M10.9662 15.4412C10.3851 15.4412 9.91235 14.9685 9.91235 14.3874C9.91235 13.8062 10.3851 13.3335 10.9662 13.3335C11.5474 13.3335 12.0201 13.8062 12.0201 14.3874C12.0197 14.9685 11.547 15.4412 10.9662 15.4412ZM10.9662 13.7933C10.6388 13.7933 10.3722 14.0599 10.3722 14.3874C10.3722 14.7148 10.6388 14.9814 10.9662 14.9814C11.2937 14.9814 11.5603 14.7148 11.5603 14.3874C11.5599 14.0599 11.2937 13.7933 10.9662 13.7933Z" fill="#414042"/>
<path d="M12.0201 14.3874L13.0201 14.388V14.3874H12.0201ZM11.5603 14.3874H12.5603L12.5603 14.3862L11.5603 14.3874ZM10.9662 15.4412V14.4412C10.9524 14.4412 10.94 14.4367 10.9285 14.4251C10.9169 14.4135 10.9124 14.4012 10.9124 14.3874H9.91235H8.91235C8.91235 15.5208 9.83281 16.4412 10.9662 16.4412V15.4412ZM9.91235 14.3874H10.9124C10.9124 14.3735 10.9169 14.3612 10.9285 14.3496C10.94 14.338 10.9524 14.3335 10.9662 14.3335V13.3335V12.3335C9.83281 12.3335 8.91235 13.254 8.91235 14.3874H9.91235ZM10.9662 13.3335V14.3335C10.9801 14.3335 10.9924 14.338 11.004 14.3496C11.0156 14.3612 11.0201 14.3735 11.0201 14.3874H12.0201H13.0201C13.0201 13.254 12.0996 12.3335 10.9662 12.3335V13.3335ZM12.0201 14.3874L11.0201 14.3867C11.0201 14.4008 11.0154 14.4134 11.0037 14.4251C10.992 14.4368 10.9797 14.4412 10.9662 14.4412V15.4412V16.4412C12.0996 16.4412 13.0194 15.5206 13.0201 14.388L12.0201 14.3874ZM10.9662 13.7933V12.7933C10.0865 12.7933 9.37216 13.5076 9.37216 14.3874H10.3722H11.3722C11.3722 14.6122 11.1911 14.7933 10.9662 14.7933V13.7933ZM10.3722 14.3874H9.37216C9.37216 15.2671 10.0865 15.9814 10.9662 15.9814V14.9814V13.9814C11.191 13.9814 11.3722 14.1625 11.3722 14.3874H10.3722ZM10.9662 14.9814V15.9814C11.8459 15.9814 12.5603 15.2671 12.5603 14.3874H11.5603H10.5603C10.5603 14.1625 10.7414 13.9814 10.9662 13.9814V14.9814ZM11.5603 14.3874L12.5603 14.3862C12.5593 13.5084 11.847 12.7933 10.9662 12.7933V13.7933V14.7933C10.7403 14.7933 10.5606 14.6114 10.5603 14.3885L11.5603 14.3874Z" fill="#6B7280" mask="url(#path-23-inside-8_392_1445)"/>
<path d="M10.9663 13.0625V15.2113" stroke="#6B7280"/>
<mask id="path-26-inside-9_392_1445" fill="white">
<path d="M10.9662 15.4418C10.8392 15.4418 10.7361 15.3387 10.7361 15.212V13.0632C10.7361 12.9362 10.8392 12.8335 10.9662 12.8335C11.0932 12.8335 11.1959 12.9366 11.1959 13.0632V15.212C11.1959 15.3391 11.0928 15.4418 10.9662 15.4418Z"/>
</mask>
<path d="M10.9662 15.4418C10.8392 15.4418 10.7361 15.3387 10.7361 15.212V13.0632C10.7361 12.9362 10.8392 12.8335 10.9662 12.8335C11.0932 12.8335 11.1959 12.9366 11.1959 13.0632V15.212C11.1959 15.3391 11.0928 15.4418 10.9662 15.4418Z" fill="#414042"/>
<path d="M10.9662 15.4418V14.4418C11.3903 14.4418 11.7361 14.7853 11.7361 15.212H10.7361H9.73608C9.73608 15.8921 10.288 16.4418 10.9662 16.4418V15.4418ZM10.7361 15.212H11.7361V13.0632H10.7361H9.73608V15.212H10.7361ZM10.7361 13.0632H11.7361C11.7361 13.4906 11.3893 13.8335 10.9662 13.8335V12.8335V11.8335C10.289 11.8335 9.73608 12.3817 9.73608 13.0632H10.7361ZM10.9662 12.8335V13.8335C10.5398 13.8335 10.1959 13.4878 10.1959 13.0632H11.1959H12.1959C12.1959 12.3854 11.6466 11.8335 10.9662 11.8335V12.8335ZM11.1959 13.0632H10.1959V15.212H11.1959H12.1959V13.0632H11.1959ZM11.1959 15.212H10.1959C10.1959 14.7857 10.5416 14.4418 10.9662 14.4418V15.4418V16.4418C11.644 16.4418 12.1959 15.8924 12.1959 15.212H11.1959Z" fill="#6B7280" mask="url(#path-26-inside-9_392_1445)"/>
<path d="M14.1016 14.064C14.2806 14.0642 14.4248 14.2097 14.4248 14.3882C14.4246 14.5664 14.2805 14.7112 14.1016 14.7114C13.923 14.7114 13.7776 14.5667 13.7773 14.3882C13.7773 14.2092 13.9227 14.064 14.1016 14.064Z" fill="white" stroke="#6B7280"/>
<mask id="path-29-inside-10_392_1445" fill="white">
<path d="M14.101 15.4412C13.5199 15.4412 13.0471 14.9685 13.0471 14.3874C13.0471 13.8062 13.5199 13.3335 14.101 13.3335C14.6821 13.3335 15.1549 13.8062 15.1549 14.3874C15.1549 14.9685 14.6821 15.4412 14.101 15.4412ZM14.101 13.7933C13.7735 13.7933 13.5069 14.0599 13.5069 14.3874C13.5069 14.7148 13.7735 14.9814 14.101 14.9814C14.4285 14.9814 14.6951 14.7148 14.6951 14.3874C14.6951 14.0599 14.4288 13.7933 14.101 13.7933Z"/>
</mask>
<path d="M14.101 15.4412C13.5199 15.4412 13.0471 14.9685 13.0471 14.3874C13.0471 13.8062 13.5199 13.3335 14.101 13.3335C14.6821 13.3335 15.1549 13.8062 15.1549 14.3874C15.1549 14.9685 14.6821 15.4412 14.101 15.4412ZM14.101 13.7933C13.7735 13.7933 13.5069 14.0599 13.5069 14.3874C13.5069 14.7148 13.7735 14.9814 14.101 14.9814C14.4285 14.9814 14.6951 14.7148 14.6951 14.3874C14.6951 14.0599 14.4288 13.7933 14.101 13.7933Z" fill="#414042"/>
<path d="M14.101 15.4412V14.4412C14.0871 14.4412 14.0748 14.4367 14.0632 14.4251C14.0517 14.4135 14.0471 14.4012 14.0471 14.3874H13.0471H12.0471C12.0471 15.5208 12.9676 16.4412 14.101 16.4412V15.4412ZM13.0471 14.3874H14.0471C14.0471 14.3735 14.0517 14.3612 14.0632 14.3496C14.0748 14.338 14.0871 14.3335 14.101 14.3335V13.3335V12.3335C12.9676 12.3335 12.0471 13.254 12.0471 14.3874H13.0471ZM14.101 13.3335V14.3335C14.1149 14.3335 14.1272 14.338 14.1387 14.3496C14.1503 14.3612 14.1549 14.3735 14.1549 14.3874H15.1549H16.1549C16.1549 13.254 15.2344 12.3335 14.101 12.3335V13.3335ZM15.1549 14.3874H14.1549C14.1549 14.4012 14.1503 14.4135 14.1387 14.4251C14.1272 14.4367 14.1149 14.4412 14.101 14.4412V15.4412V16.4412C15.2344 16.4412 16.1549 15.5208 16.1549 14.3874H15.1549ZM14.101 13.7933V12.7933C13.2213 12.7933 12.5069 13.5076 12.5069 14.3874H13.5069H14.5069C14.5069 14.6122 14.3258 14.7933 14.101 14.7933V13.7933ZM13.5069 14.3874H12.5069C12.5069 15.2671 13.2213 15.9814 14.101 15.9814V14.9814V13.9814C14.3258 13.9814 14.5069 14.1625 14.5069 14.3874H13.5069ZM14.101 14.9814V15.9814C14.9807 15.9814 15.6951 15.2671 15.6951 14.3874H14.6951H13.6951C13.6951 14.1625 13.8762 13.9814 14.101 13.9814V14.9814ZM14.6951 14.3874H15.6951C15.6951 13.5081 14.9816 12.7933 14.101 12.7933V13.7933V14.7933C13.8761 14.7933 13.6951 14.6118 13.6951 14.3874H14.6951Z" fill="#6B7280" mask="url(#path-29-inside-10_392_1445)"/>
<path d="M14.1011 13.0625V15.2113" stroke="#6B7280"/>
<mask id="path-32-inside-11_392_1445" fill="white">
<path d="M14.1008 15.4418C13.9738 15.4418 13.8711 15.3387 13.8711 15.212V13.0632C13.8711 12.9362 13.9742 12.8335 14.1008 12.8335C14.2278 12.8335 14.3305 12.9366 14.3305 13.0632V15.212C14.3309 15.3391 14.2278 15.4418 14.1008 15.4418Z"/>
</mask>
<path d="M14.1008 15.4418C13.9738 15.4418 13.8711 15.3387 13.8711 15.212V13.0632C13.8711 12.9362 13.9742 12.8335 14.1008 12.8335C14.2278 12.8335 14.3305 12.9366 14.3305 13.0632V15.212C14.3309 15.3391 14.2278 15.4418 14.1008 15.4418Z" fill="#414042"/>
<path d="M14.3305 15.212H13.3305L13.3305 15.215L14.3305 15.212ZM14.1008 15.4418V14.4418C14.5271 14.4418 14.8711 14.7875 14.8711 15.212H13.8711H12.8711C12.8711 15.8899 13.4204 16.4418 14.1008 16.4418V15.4418ZM13.8711 15.212H14.8711V13.0632H13.8711H12.8711V15.212H13.8711ZM13.8711 13.0632H14.8711C14.8711 13.4895 14.5254 13.8335 14.1008 13.8335V12.8335V11.8335C13.423 11.8335 12.8711 12.3828 12.8711 13.0632H13.8711ZM14.1008 12.8335V13.8335C13.6745 13.8335 13.3305 13.4878 13.3305 13.0632H14.3305H15.3305C15.3305 12.3854 14.7812 11.8335 14.1008 11.8335V12.8335ZM14.3305 13.0632H13.3305V15.212H14.3305H15.3305V13.0632H14.3305ZM14.3305 15.212L13.3305 15.215C13.3292 14.7847 13.6783 14.4418 14.1008 14.4418V15.4418V16.4418C14.7774 16.4418 15.3326 15.8934 15.3305 15.209L14.3305 15.212Z" fill="#6B7280" mask="url(#path-32-inside-11_392_1445)"/>
<path d="M19.1731 14.064C19.3517 14.0642 19.4963 14.2095 19.4963 14.3882C19.4961 14.5666 19.3516 14.7112 19.1731 14.7114C18.9944 14.7114 18.8491 14.5668 18.8489 14.3882C18.8489 14.2094 18.9943 14.064 19.1731 14.064Z" fill="white" stroke="#6B7280"/>
<mask id="path-35-inside-12_392_1445" fill="white">
<path d="M19.1725 15.4412C18.5914 15.4412 18.1187 14.9685 18.1187 14.3874C18.1187 13.8062 18.5914 13.3335 19.1725 13.3335C19.7537 13.3335 20.2264 13.8062 20.2264 14.3874C20.2264 14.9685 19.7537 15.4412 19.1725 15.4412ZM19.1725 13.7933C18.8451 13.7933 18.5785 14.0599 18.5785 14.3874C18.5785 14.7148 18.8451 14.9814 19.1725 14.9814C19.5 14.9814 19.7666 14.7148 19.7666 14.3874C19.7666 14.0599 19.5 13.7933 19.1725 13.7933Z"/>
</mask>
<path d="M19.1725 15.4412C18.5914 15.4412 18.1187 14.9685 18.1187 14.3874C18.1187 13.8062 18.5914 13.3335 19.1725 13.3335C19.7537 13.3335 20.2264 13.8062 20.2264 14.3874C20.2264 14.9685 19.7537 15.4412 19.1725 15.4412ZM19.1725 13.7933C18.8451 13.7933 18.5785 14.0599 18.5785 14.3874C18.5785 14.7148 18.8451 14.9814 19.1725 14.9814C19.5 14.9814 19.7666 14.7148 19.7666 14.3874C19.7666 14.0599 19.5 13.7933 19.1725 13.7933Z" fill="#414042"/>
<path d="M20.2264 14.3874H21.2264H20.2264ZM19.1725 15.4412V14.4412C19.1587 14.4412 19.1463 14.4367 19.1348 14.4251C19.1232 14.4135 19.1187 14.4012 19.1187 14.3874H18.1187H17.1187C17.1187 15.5208 18.0391 16.4412 19.1725 16.4412V15.4412ZM18.1187 14.3874H19.1187C19.1187 14.3735 19.1232 14.3612 19.1348 14.3496C19.1463 14.338 19.1587 14.3335 19.1725 14.3335V13.3335V12.3335C18.0391 12.3335 17.1187 13.254 17.1187 14.3874H18.1187ZM19.1725 13.3335V14.3335C19.1864 14.3335 19.1987 14.338 19.2103 14.3496C19.2219 14.3612 19.2264 14.3735 19.2264 14.3874H20.2264H21.2264C21.2264 13.254 20.3059 12.3335 19.1725 12.3335V13.3335ZM20.2264 14.3874H19.2264C19.2264 14.4012 19.2219 14.4135 19.2103 14.4251C19.1987 14.4367 19.1864 14.4412 19.1725 14.4412V15.4412V16.4412C20.3059 16.4412 21.2264 15.5208 21.2264 14.3874H20.2264ZM19.1725 13.7933V12.7933C18.2928 12.7933 17.5785 13.5077 17.5785 14.3874H18.5785H19.5785C19.5785 14.6122 19.3974 14.7933 19.1725 14.7933V13.7933ZM18.5785 14.3874H17.5785C17.5785 15.2671 18.2928 15.9814 19.1725 15.9814V14.9814V13.9814C19.3974 13.9814 19.5785 14.1625 19.5785 14.3874H18.5785ZM19.1725 14.9814V15.9814C20.0522 15.9814 20.7666 15.2671 20.7666 14.3874H19.7666H18.7666C18.7666 14.1625 18.9477 13.9814 19.1725 13.9814V14.9814ZM19.7666 14.3874H20.7666C20.7666 13.5076 20.0523 12.7933 19.1725 12.7933V13.7933V14.7933C18.9477 14.7933 18.7666 14.6122 18.7666 14.3874H19.7666Z" fill="#6B7280" mask="url(#path-35-inside-12_392_1445)"/>
<path d="M19.1726 13.0625V15.2113" stroke="#6B7280"/>
<mask id="path-38-inside-13_392_1445" fill="white">
<path d="M19.1726 15.4418C19.0456 15.4418 18.9429 15.3387 18.9429 15.212V13.0632C18.9429 12.9362 19.0459 12.8335 19.1726 12.8335C19.2996 12.8335 19.4027 12.9366 19.4027 13.0632V15.212C19.4027 15.3391 19.2996 15.4418 19.1726 15.4418Z"/>
</mask>
<path d="M19.1726 15.4418C19.0456 15.4418 18.9429 15.3387 18.9429 15.212V13.0632C18.9429 12.9362 19.0459 12.8335 19.1726 12.8335C19.2996 12.8335 19.4027 12.9366 19.4027 13.0632V15.212C19.4027 15.3391 19.2996 15.4418 19.1726 15.4418Z" fill="#414042"/>
<path d="M19.4027 15.212H20.4027H19.4027ZM19.1726 15.4418V14.4418C19.5989 14.4418 19.9429 14.7875 19.9429 15.212H18.9429H17.9429C17.9429 15.8899 18.4922 16.4418 19.1726 16.4418V15.4418ZM18.9429 15.212H19.9429V13.0632H18.9429H17.9429V15.212H18.9429ZM18.9429 13.0632H19.9429C19.9429 13.4895 19.5971 13.8335 19.1726 13.8335V12.8335V11.8335C18.4947 11.8335 17.9429 12.3828 17.9429 13.0632H18.9429ZM19.1726 12.8335V13.8335C18.7484 13.8335 18.4027 13.4899 18.4027 13.0632H19.4027H20.4027C20.4027 12.3832 19.8508 11.8335 19.1726 11.8335V12.8335ZM19.4027 13.0632H18.4027V15.212H19.4027H20.4027V13.0632H19.4027ZM19.4027 15.212H18.4027C18.4027 14.7846 18.7495 14.4418 19.1726 14.4418V15.4418V16.4418C19.8497 16.4418 20.4027 15.8935 20.4027 15.212H19.4027Z" fill="#6B7280" mask="url(#path-38-inside-13_392_1445)"/>
<path d="M21.3745 14.3853L21.3755 14.3862V14.3882H21.3726V14.3862L21.3735 14.3853H21.3745Z" fill="#1A3763" stroke="#6B7280"/>
<mask id="path-41-inside-14_392_1445" fill="white">
<path d="M21.3742 15.119C20.9707 15.119 20.6428 14.7907 20.6428 14.3876C20.6428 13.9841 20.971 13.6562 21.3742 13.6562C21.7773 13.6562 22.1055 13.9845 22.1055 14.3876C22.1055 14.7907 21.7773 15.119 21.3742 15.119ZM21.3742 14.1157C21.2243 14.1157 21.1026 14.2374 21.1026 14.3872C21.1026 14.5371 21.2243 14.6588 21.3742 14.6588C21.524 14.6588 21.6461 14.5371 21.6461 14.3872C21.6457 14.2374 21.5237 14.1157 21.3742 14.1157Z"/>
</mask>
<path d="M21.3742 15.119C20.9707 15.119 20.6428 14.7907 20.6428 14.3876C20.6428 13.9841 20.971 13.6562 21.3742 13.6562C21.7773 13.6562 22.1055 13.9845 22.1055 14.3876C22.1055 14.7907 21.7773 15.119 21.3742 15.119ZM21.3742 14.1157C21.2243 14.1157 21.1026 14.2374 21.1026 14.3872C21.1026 14.5371 21.2243 14.6588 21.3742 14.6588C21.524 14.6588 21.6461 14.5371 21.6461 14.3872C21.6457 14.2374 21.5237 14.1157 21.3742 14.1157Z" fill="#414042"/>
<path d="M21.6461 14.3872H22.6461L22.6461 14.3847L21.6461 14.3872ZM21.3742 15.119V14.119C21.5233 14.119 21.6428 14.2388 21.6428 14.3876H20.6428H19.6428C19.6428 15.3427 20.418 16.119 21.3742 16.119V15.119ZM20.6428 14.3876H21.6428C21.6428 14.5367 21.523 14.6562 21.3742 14.6562V13.6562V12.6562C20.4191 12.6562 19.6428 13.4314 19.6428 14.3876H20.6428ZM21.3742 13.6562V14.6562C21.2251 14.6562 21.1055 14.5368 21.1055 14.3876H22.1055H23.1055C23.1055 13.4322 22.3296 12.6562 21.3742 12.6562V13.6562ZM22.1055 14.3876H21.1055C21.1055 14.2385 21.225 14.119 21.3742 14.119V15.119V16.119C22.3296 16.119 23.1055 15.343 23.1055 14.3876H22.1055ZM21.3742 14.1157V13.1157C20.672 13.1157 20.1026 13.6852 20.1026 14.3872H21.1026H22.1026C22.1026 14.7896 21.7767 15.1157 21.3742 15.1157V14.1157ZM21.1026 14.3872H20.1026C20.1026 15.0894 20.6721 15.6588 21.3742 15.6588V14.6588V13.6588C21.7766 13.6588 22.1026 13.9848 22.1026 14.3872H21.1026ZM21.3742 14.6588V15.6588C22.0745 15.6588 22.6461 15.0912 22.6461 14.3872H21.6461H20.6461C20.6461 13.983 20.9736 13.6588 21.3742 13.6588V14.6588ZM21.6461 14.3872L22.6461 14.3847C22.6443 13.6842 22.0756 13.1157 21.3742 13.1157V14.1157V15.1157C20.9717 15.1157 20.6471 14.7906 20.6461 14.3898L21.6461 14.3872Z" fill="#6B7280" mask="url(#path-41-inside-14_392_1445)"/>
<mask id="path-43-inside-15_392_1445" fill="white">
<path d="M17.3628 23.3455C17.3134 23.3455 17.264 23.3295 17.2221 23.2972C17.1217 23.2193 17.1038 23.0747 17.1818 22.9747L19.6862 19.7537C19.7642 19.6537 19.9087 19.6355 20.0088 19.7134C20.1092 19.7914 20.127 19.9359 20.0491 20.0359L17.5446 23.2569C17.4994 23.3151 17.4317 23.3455 17.3628 23.3455Z"/>
</mask>
<path d="M17.3628 23.3455C17.3134 23.3455 17.264 23.3295 17.2221 23.2972C17.1217 23.2193 17.1038 23.0747 17.1818 22.9747L19.6862 19.7537C19.7642 19.6537 19.9087 19.6355 20.0088 19.7134C20.1092 19.7914 20.127 19.9359 20.0491 20.0359L17.5446 23.2569C17.4994 23.3151 17.4317 23.3455 17.3628 23.3455Z" fill="#414042"/>
<path d="M17.2221 23.2972L16.6088 24.0871L16.6107 24.0885L17.2221 23.2972ZM17.1818 22.9747L17.9705 23.5895L17.9712 23.5885L17.1818 22.9747ZM19.6862 19.7537L18.8975 19.139L18.8968 19.1399L19.6862 19.7537ZM20.0088 19.7134L19.394 20.5021L19.3954 20.5033L20.0088 19.7134ZM20.0491 20.0359L19.2604 19.4212L19.2596 19.4221L20.0491 20.0359ZM17.5446 23.2569L18.334 23.8708L18.3341 23.8707L17.5446 23.2569ZM17.3628 23.3455V22.3455C17.5304 22.3455 17.6969 22.4003 17.8336 22.5059L17.2221 23.2972L16.6107 24.0885C16.831 24.2588 17.0964 24.3455 17.3628 24.3455V23.3455ZM17.2221 23.2972L17.8354 22.5074C18.1722 22.7689 18.2322 23.2537 17.9705 23.5895L17.1818 22.9747L16.3931 22.3599C15.9754 22.8958 16.0713 23.6696 16.6088 24.0871L17.2221 23.2972ZM17.1818 22.9747L17.9712 23.5885L20.4757 20.3676L19.6862 19.7537L18.8968 19.1399L16.3924 22.3609L17.1818 22.9747ZM19.6862 19.7537L20.4749 20.3685C20.215 20.7019 19.7317 20.7654 19.394 20.5021L20.0088 19.7134L20.6235 18.9247C20.0858 18.5056 19.3134 18.6055 18.8975 19.139L19.6862 19.7537ZM20.0088 19.7134L19.3954 20.5033C19.0586 20.2417 18.9987 19.7569 19.2604 19.4212L20.0491 20.0359L20.8378 20.6507C21.2554 20.115 21.1597 19.3411 20.6221 18.9236L20.0088 19.7134ZM20.0491 20.0359L19.2596 19.4221L16.7552 22.6431L17.5446 23.2569L18.3341 23.8707L20.8385 20.6498L20.0491 20.0359ZM17.5446 23.2569L16.7553 22.643C16.9082 22.4463 17.1376 22.3455 17.3628 22.3455V23.3455V24.3455C17.7258 24.3455 18.0905 24.1838 18.334 23.8708L17.5446 23.2569Z" fill="#6B7280" mask="url(#path-43-inside-15_392_1445)"/>
<mask id="path-45-inside-16_392_1445" fill="white">
<path d="M16.7186 26.2265C16.6691 26.2265 16.6197 26.2105 16.5775 26.1782C16.4774 26.1002 16.4592 25.9557 16.5372 25.8557L19.0416 22.6347C19.1196 22.5343 19.2641 22.5164 19.3641 22.5944C19.4645 22.6724 19.4824 22.8169 19.4044 22.9169L16.9 26.1379C16.8551 26.1961 16.7874 26.2265 16.7186 26.2265Z"/>
</mask>
<path d="M16.7186 26.2265C16.6691 26.2265 16.6197 26.2105 16.5775 26.1782C16.4774 26.1002 16.4592 25.9557 16.5372 25.8557L19.0416 22.6347C19.1196 22.5343 19.2641 22.5164 19.3641 22.5944C19.4645 22.6724 19.4824 22.8169 19.4044 22.9169L16.9 26.1379C16.8551 26.1961 16.7874 26.2265 16.7186 26.2265Z" fill="#414042"/>
<path d="M16.5775 26.1782L15.9627 26.9669L15.9695 26.9721L16.5775 26.1782ZM16.5372 25.8557L17.3259 26.4704L17.3266 26.4695L16.5372 25.8557ZM19.0416 22.6347L19.831 23.2485L19.8314 23.248L19.0416 22.6347ZM19.3641 22.5944L18.7493 23.3831L18.7508 23.3842L19.3641 22.5944ZM19.4044 22.9169L18.6157 22.3021L18.615 22.3031L19.4044 22.9169ZM16.9 26.1379L16.1105 25.524L16.1081 25.5272L16.9 26.1379ZM16.7186 26.2265V25.2265C16.887 25.2265 17.0516 25.2818 17.1855 25.3842L16.5775 26.1782L15.9695 26.9721C16.1877 27.1393 16.4513 27.2265 16.7186 27.2265V26.2265ZM16.5775 26.1782L17.1922 25.3895C17.5257 25.6494 17.5891 26.1327 17.3259 26.4704L16.5372 25.8557L15.7485 25.2409C15.3293 25.7786 15.4292 26.5511 15.9627 26.9669L16.5775 26.1782ZM16.5372 25.8557L17.3266 26.4695L19.831 23.2485L19.0416 22.6347L18.2521 22.0209L15.7477 25.2418L16.5372 25.8557ZM19.0416 22.6347L19.8314 23.248C19.5699 23.5848 19.085 23.6448 18.7493 23.3831L19.3641 22.5944L19.9789 21.8057C19.4431 21.3881 18.6692 21.4838 18.2518 22.0214L19.0416 22.6347ZM19.3641 22.5944L18.7508 23.3842C18.414 23.1228 18.354 22.6379 18.6157 22.3021L19.4044 22.9169L20.1931 23.5317C20.6108 22.9959 20.515 22.222 19.9774 21.8046L19.3641 22.5944ZM19.4044 22.9169L18.615 22.3031L16.1105 25.524L16.9 26.1379L17.6894 26.7517L20.1939 23.5307L19.4044 22.9169ZM16.9 26.1379L16.1081 25.5272C16.2626 25.3269 16.4941 25.2265 16.7186 25.2265V26.2265V27.2265C17.0807 27.2265 17.4476 27.0652 17.6918 26.7486L16.9 26.1379Z" fill="#6B7280" mask="url(#path-45-inside-16_392_1445)"/>
<mask id="path-47-inside-17_392_1445" fill="white">
<path d="M6.41229 23.3455C6.36285 23.3455 6.31341 23.3295 6.27119 23.2972C6.17078 23.2193 6.15291 23.0747 6.23088 22.9747L8.73531 19.7537C8.81327 19.6537 8.95779 19.6355 9.05782 19.7134C9.15784 19.7914 9.17611 19.9359 9.09814 20.0359L6.5937 23.2569C6.54882 23.3151 6.48075 23.3455 6.41229 23.3455Z"/>
</mask>
<path d="M6.41229 23.3455C6.36285 23.3455 6.31341 23.3295 6.27119 23.2972C6.17078 23.2193 6.15291 23.0747 6.23088 22.9747L8.73531 19.7537C8.81327 19.6537 8.95779 19.6355 9.05782 19.7134C9.15784 19.7914 9.17611 19.9359 9.09814 20.0359L6.5937 23.2569C6.54882 23.3151 6.48075 23.3455 6.41229 23.3455Z" fill="#414042"/>
<path d="M6.27119 23.2972L5.65786 24.0871L5.66321 24.0912L6.27119 23.2972ZM6.23088 22.9747L7.01959 23.5895L7.02032 23.5885L6.23088 22.9747ZM8.73531 19.7537L7.9466 19.139L7.94586 19.1399L8.73531 19.7537ZM9.09814 20.0359L8.30943 19.4212L8.3087 19.4221L9.09814 20.0359ZM6.5937 23.2569L5.80425 22.6431L5.80185 22.6462L6.5937 23.2569ZM6.41229 23.3455V22.3455C6.58056 22.3455 6.74523 22.4007 6.87917 22.5033L6.27119 23.2972L5.66321 24.0912C5.88158 24.2584 6.14514 24.3455 6.41229 24.3455V23.3455ZM6.27119 23.2972L6.88451 22.5074C7.22131 22.7689 7.28126 23.2538 7.01959 23.5895L6.23088 22.9747L5.44217 22.3599C5.02457 22.8957 5.12026 23.6696 5.65787 24.0871L6.27119 23.2972ZM6.23088 22.9747L7.02032 23.5885L9.52475 20.3676L8.73531 19.7537L7.94586 19.1399L5.44144 22.3609L6.23088 22.9747ZM8.73531 19.7537L9.52401 20.3685C9.26411 20.7019 8.78074 20.7654 8.44305 20.5021L9.05782 19.7134L9.67259 18.9247C9.13484 18.5056 8.36243 18.6055 7.9466 19.139L8.73531 19.7537ZM9.05782 19.7134L8.44305 20.5021C8.10969 20.2423 8.04615 19.7589 8.30943 19.4212L9.09814 20.0359L9.88684 20.6507C10.3061 20.1129 10.206 19.3405 9.67259 18.9247L9.05782 19.7134ZM9.09814 20.0359L8.3087 19.4221L5.80426 22.6431L6.5937 23.2569L7.38314 23.8707L9.88758 20.6498L9.09814 20.0359ZM6.5937 23.2569L5.80185 22.6462C5.95681 22.4453 6.18833 22.3455 6.41229 22.3455V23.3455V24.3455C6.77316 24.3455 7.14084 24.1849 7.38555 23.8676L6.5937 23.2569Z" fill="#6B7280" mask="url(#path-47-inside-17_392_1445)"/>
<mask id="path-49-inside-18_392_1445" fill="white">
<path d="M5.76787 26.2265C5.71843 26.2265 5.66899 26.2105 5.62715 26.1782C5.52675 26.1002 5.50887 25.9557 5.58683 25.8557L8.09127 22.6347C8.16924 22.5343 8.31376 22.5164 8.41378 22.5944C8.51419 22.6724 8.53206 22.8169 8.45409 22.9169L5.94966 26.1379C5.90441 26.1961 5.83633 26.2265 5.76787 26.2265Z"/>
</mask>
<path d="M5.76787 26.2265C5.71843 26.2265 5.66899 26.2105 5.62715 26.1782C5.52675 26.1002 5.50887 25.9557 5.58683 25.8557L8.09127 22.6347C8.16924 22.5343 8.31376 22.5164 8.41378 22.5944C8.51419 22.6724 8.53206 22.8169 8.45409 22.9169L5.94966 26.1379C5.90441 26.1961 5.83633 26.2265 5.76787 26.2265Z" fill="#414042"/>
<path d="M5.62715 26.1782L5.01383 26.968L5.01571 26.9695L5.62715 26.1782ZM5.58683 25.8557L6.37554 26.4704L6.37627 26.4695L5.58683 25.8557ZM8.09127 22.6347L8.88071 23.2485L8.88111 23.248L8.09127 22.6347ZM8.41378 22.5944L7.79901 23.3831L7.80046 23.3842L8.41378 22.5944ZM8.45409 22.9169L7.66539 22.3021L7.66465 22.3031L8.45409 22.9169ZM5.94966 26.1379L6.73902 26.7518L6.73911 26.7517L5.94966 26.1379ZM5.76787 26.2265V25.2265C5.93556 25.2265 6.10206 25.2814 6.2386 25.3869L5.62715 26.1782L5.01571 26.9695C5.23592 27.1396 5.5013 27.2265 5.76787 27.2265V26.2265ZM5.62715 26.1782L6.24047 25.3883C6.5772 25.6498 6.63727 26.1347 6.37554 26.4704L5.58683 25.8557L4.79813 25.2409C4.38047 25.7767 4.47629 26.5506 5.01383 26.968L5.62715 26.1782ZM5.58683 25.8557L6.37627 26.4695L8.88071 23.2485L8.09127 22.6347L7.30183 22.0209L4.79739 25.2418L5.58683 25.8557ZM8.09127 22.6347L8.88111 23.248C8.61957 23.5848 8.13472 23.6448 7.79901 23.3831L8.41378 22.5944L9.02855 21.8057C8.4928 21.3881 7.7189 21.4838 7.30144 22.0214L8.09127 22.6347ZM8.41378 22.5944L7.80046 23.3842C7.46366 23.1227 7.40371 22.6379 7.66539 22.3021L8.45409 22.9169L9.2428 23.5317C9.6604 22.9959 9.56472 22.222 9.0271 21.8046L8.41378 22.5944ZM8.45409 22.9169L7.66465 22.3031L5.16022 25.524L5.94966 26.1379L6.73911 26.7517L9.24353 23.5307L8.45409 22.9169ZM5.94966 26.1379L5.16031 25.5239C5.31377 25.3266 5.54315 25.2265 5.76787 25.2265V26.2265V27.2265C6.12951 27.2265 6.49504 27.0655 6.73902 26.7518L5.94966 26.1379Z" fill="#6B7280" mask="url(#path-49-inside-18_392_1445)"/>
<mask id="path-51-inside-19_392_1445" fill="white">
<path d="M23.7049 12.6538H2.15308V11.2656H23.7049V12.6538ZM2.61289 12.194H23.2451V11.7254H2.61289V12.194Z"/>
</mask>
<path d="M23.7049 12.6538H2.15308V11.2656H23.7049V12.6538ZM2.61289 12.194H23.2451V11.7254H2.61289V12.194Z" fill="#414042"/>
<path d="M23.7049 12.6538V13.6538H24.7049V12.6538H23.7049ZM2.15308 12.6538H1.15308V13.6538H2.15308V12.6538ZM2.15308 11.2656V10.2656H1.15308V11.2656H2.15308ZM23.7049 11.2656H24.7049V10.2656H23.7049V11.2656ZM2.61289 12.194H1.61289V13.194H2.61289V12.194ZM23.2451 12.194V13.194H24.2451V12.194H23.2451ZM23.2451 11.7254H24.2451V10.7254H23.2451V11.7254ZM2.61289 11.7254V10.7254H1.61289V11.7254H2.61289ZM23.7049 12.6538V11.6538H2.15308V12.6538V13.6538H23.7049V12.6538ZM2.15308 12.6538H3.15308V11.2656H2.15308H1.15308V12.6538H2.15308ZM2.15308 11.2656V12.2656H23.7049V11.2656V10.2656H2.15308V11.2656ZM23.7049 11.2656H22.7049V12.6538H23.7049H24.7049V11.2656H23.7049ZM2.61289 12.194V13.194H23.2451V12.194V11.194H2.61289V12.194ZM23.2451 12.194H24.2451V11.7254H23.2451H22.2451V12.194H23.2451ZM23.2451 11.7254V10.7254H2.61289V11.7254V12.7254H23.2451V11.7254ZM2.61289 11.7254H1.61289V12.194H2.61289H3.61289V11.7254H2.61289Z" fill="#6B7280" mask="url(#path-51-inside-19_392_1445)"/>
<path d="M15.4702 0.730469V1.95898L15.7974 2.0791L19.2993 3.36719H6.51318L10.0151 2.0791L10.3423 1.95898V0.730469H15.4702Z" fill="#1A3763" stroke="#6B7280"/>
<mask id="path-54-inside-20_392_1445" fill="white">
<path d="M23.3966 4.09646H2.41528L9.61215 1.44903V0H16.1997V1.44903L23.3966 4.09646ZM4.9973 3.63665H20.815L15.7403 1.76965V0.459811H10.0723V1.76965L4.9973 3.63665Z"/>
</mask>
<path d="M23.3966 4.09646H2.41528L9.61215 1.44903V0H16.1997V1.44903L23.3966 4.09646ZM4.9973 3.63665H20.815L15.7403 1.76965V0.459811H10.0723V1.76965L4.9973 3.63665Z" fill="#414042"/>
<path d="M23.3966 4.09646V5.09646L23.7418 3.15795L23.3966 4.09646ZM2.41528 4.09646L2.07004 3.15795L2.41528 5.09646V4.09646ZM9.61215 1.44903L9.95739 2.38755L10.6121 2.14669V1.44903H9.61215ZM9.61215 0V-1H8.61215V0H9.61215ZM16.1997 0H17.1997V-1H16.1997V0ZM16.1997 1.44903H15.1997V2.14669L15.8545 2.38755L16.1997 1.44903ZM4.9973 3.63665L4.65204 2.69814L4.9973 4.63665V3.63665ZM20.815 3.63665V4.63665L21.1602 2.69815L20.815 3.63665ZM15.7403 1.76965H14.7403V2.46727L15.395 2.70814L15.7403 1.76965ZM15.7403 0.459811H16.7403V-0.540189H15.7403V0.459811ZM10.0723 0.459811V-0.540189H9.07233V0.459811H10.0723ZM10.0723 1.76965L10.4176 2.70815L11.0723 2.46729V1.76965H10.0723ZM23.3966 4.09646V3.09646H2.41528V4.09646V5.09646H23.3966V4.09646ZM2.41528 4.09646L2.76052 5.03498L9.95739 2.38755L9.61215 1.44903L9.2669 0.510517L2.07004 3.15795L2.41528 4.09646ZM9.61215 1.44903H10.6121V0H9.61215H8.61215V1.44903H9.61215ZM9.61215 0V1H16.1997V0V-1H9.61215V0ZM16.1997 0H15.1997V1.44903H16.1997H17.1997V0H16.1997ZM16.1997 1.44903L15.8545 2.38755L23.0514 5.03498L23.3966 4.09646L23.7418 3.15795L16.545 0.510517L16.1997 1.44903ZM4.9973 3.63665V4.63665H20.815V3.63665V2.63665H4.9973V3.63665ZM20.815 3.63665L21.1602 2.69815L16.0856 0.831146L15.7403 1.76965L15.395 2.70814L20.4697 4.57515L20.815 3.63665ZM15.7403 1.76965H16.7403V0.459811H15.7403H14.7403V1.76965H15.7403ZM15.7403 0.459811V-0.540189H10.0723V0.459811V1.45981H15.7403V0.459811ZM10.0723 0.459811H9.07233V1.76965H10.0723H11.0723V0.459811H10.0723ZM10.0723 1.76965L9.72708 0.831138L4.65204 2.69814L4.9973 3.63665L5.34256 4.57516L10.4176 2.70815L10.0723 1.76965Z" fill="#6B7280" mask="url(#path-54-inside-20_392_1445)"/>
<path d="M22.6816 4.36768V4.43408H2.88281V4.36768H22.6816Z" fill="white" stroke="#6B7280"/>
<mask id="path-57-inside-21_392_1445" fill="white">
<path d="M23.1824 5.16247H2.38328C2.25625 5.16247 2.15356 5.0594 2.15356 4.93237V3.86632C2.15356 3.7393 2.25663 3.63623 2.38328 3.63623H23.1824C23.3094 3.63623 23.4121 3.7393 23.4121 3.86632V4.93237C23.4121 5.0594 23.3094 5.16247 23.1824 5.16247ZM2.613 4.70266H22.9523V4.09642H2.613V4.70266Z"/>
</mask>
<path d="M23.1824 5.16247H2.38328C2.25625 5.16247 2.15356 5.0594 2.15356 4.93237V3.86632C2.15356 3.7393 2.25663 3.63623 2.38328 3.63623H23.1824C23.3094 3.63623 23.4121 3.7393 23.4121 3.86632V4.93237C23.4121 5.0594 23.3094 5.16247 23.1824 5.16247ZM2.613 4.70266H22.9523V4.09642H2.613V4.70266Z" fill="#414042"/>
<path d="M2.613 4.70266H1.613V5.70266H2.613V4.70266ZM22.9523 4.70266V5.70266H23.9523V4.70266H22.9523ZM22.9523 4.09642H23.9523V3.09642H22.9523V4.09642ZM2.613 4.09642V3.09642H1.613V4.09642H2.613ZM23.1824 5.16247V4.16247H2.38328V5.16247V6.16247H23.1824V5.16247ZM2.38328 5.16247V4.16247C2.81071 4.16247 3.15356 4.50928 3.15356 4.93237H2.15356H1.15356C1.15356 5.60951 1.7018 6.16247 2.38328 6.16247V5.16247ZM2.15356 4.93237H3.15356V3.86632H2.15356H1.15356V4.93237H2.15356ZM2.15356 3.86632H3.15356C3.15356 4.29052 2.80998 4.63623 2.38328 4.63623V3.63623V2.63623C1.70329 2.63623 1.15356 3.18807 1.15356 3.86632H2.15356ZM2.38328 3.63623V4.63623H23.1824V3.63623V2.63623H2.38328V3.63623ZM23.1824 3.63623V4.63623C22.755 4.63623 22.4121 4.28944 22.4121 3.86632H23.4121H24.4121C24.4121 3.18915 23.8639 2.63623 23.1824 2.63623V3.63623ZM23.4121 3.86632H22.4121V4.93237H23.4121H24.4121V3.86632H23.4121ZM23.4121 4.93237H22.4121C22.4121 4.50928 22.755 4.16247 23.1824 4.16247V5.16247V6.16247C23.8639 6.16247 24.4121 5.60951 24.4121 4.93237H23.4121ZM2.613 4.70266V5.70266H22.9523V4.70266V3.70266H2.613V4.70266ZM22.9523 4.70266H23.9523V4.09642H22.9523H21.9523V4.70266H22.9523ZM22.9523 4.09642V3.09642H2.613V4.09642V5.09642H22.9523V4.09642ZM2.613 4.09642H1.613V4.70266H2.613H3.613V4.09642H2.613Z" fill="#6B7280" mask="url(#path-57-inside-21_392_1445)"/>
</svg>
