<svg width="33" height="30" viewBox="0 0 33 30" fill="none" xmlns="http://www.w3.org/2000/svg">
<path d="M4.46997 11.7988H27.592C28.3108 11.7989 28.8938 12.3815 28.8938 13.1006V22.9229H3.16821V13.1006C3.16821 12.4266 3.68067 11.8721 4.33716 11.8057L4.46997 11.7988Z" fill="#1A3763" stroke="#6B7280"/>
<mask id="path-2-inside-1_392_1059" fill="white">
<path d="M29.6234 23.6532H2.43823V13.1011C2.43823 11.9811 3.34949 11.0698 4.46954 11.0698H27.5917C28.7117 11.0698 29.623 11.9811 29.623 13.1011V23.6532H29.6234ZM2.89843 23.1934H29.1639V13.1011C29.1639 12.2344 28.4588 11.5296 27.5925 11.5296H4.4703C3.60354 11.5296 2.8988 12.2348 2.8988 13.1011L2.89843 23.1934Z"/>
</mask>
<path d="M29.6234 23.6532H2.43823V13.1011C2.43823 11.9811 3.34949 11.0698 4.46954 11.0698H27.5917C28.7117 11.0698 29.623 11.9811 29.623 13.1011V23.6532H29.6234ZM2.89843 23.1934H29.1639V13.1011C29.1639 12.2344 28.4588 11.5296 27.5925 11.5296H4.4703C3.60354 11.5296 2.8988 12.2348 2.8988 13.1011L2.89843 23.1934Z" fill="#414042"/>
<path d="M2.43823 23.6532H1.43823V24.6532H2.43823V23.6532ZM29.623 23.6532H28.623V24.6532H29.623V23.6532ZM2.89843 23.1934L1.89843 23.1934L1.89839 24.1934H2.89843V23.1934ZM29.1639 23.1934V24.1934H30.1639V23.1934H29.1639ZM2.8988 13.1011L3.8988 13.1012V13.1011H2.8988ZM29.6234 23.6532V22.6532H2.43823V23.6532V24.6532H29.6234V23.6532ZM2.43823 23.6532H3.43823V13.1011H2.43823H1.43823V23.6532H2.43823ZM2.43823 13.1011H3.43823C3.43823 12.5334 3.90177 12.0698 4.46954 12.0698V11.0698V10.0698C2.79721 10.0698 1.43823 11.4288 1.43823 13.1011H2.43823ZM4.46954 11.0698V12.0698H27.5917V11.0698V10.0698H4.46954V11.0698ZM27.5917 11.0698V12.0698C28.1595 12.0698 28.623 12.5334 28.623 13.1011H29.623H30.623C30.623 11.4288 29.264 10.0698 27.5917 10.0698V11.0698ZM29.623 13.1011H28.623V23.6532H29.623H30.623V13.1011H29.623ZM29.623 23.6532V24.6532H29.6234V23.6532V22.6532H29.623V23.6532ZM2.89843 23.1934V24.1934H29.1639V23.1934V22.1934H2.89843V23.1934ZM29.1639 23.1934H30.1639V13.1011H29.1639H28.1639V23.1934H29.1639ZM29.1639 13.1011H30.1639C30.1639 11.6819 29.011 10.5296 27.5925 10.5296V11.5296V12.5296C27.9067 12.5296 28.1639 12.7868 28.1639 13.1011H29.1639ZM27.5925 11.5296V10.5296H4.4703V11.5296V12.5296H27.5925V11.5296ZM4.4703 11.5296V10.5296C3.0511 10.5296 1.8988 11.6826 1.8988 13.1011H2.8988H3.8988C3.8988 12.7869 4.15599 12.5296 4.4703 12.5296V11.5296ZM2.8988 13.1011L1.8988 13.1011L1.89843 23.1934L2.89843 23.1934L3.89843 23.1934L3.8988 13.1012L2.8988 13.1011Z" fill="#6B7280" mask="url(#path-2-inside-1_392_1059)"/>
<path d="M31.3315 20.9702V25.5298H0.72998V20.9702H31.3315Z" fill="white" stroke="#6B7280"/>
<mask id="path-5-inside-2_392_1059" fill="white">
<path d="M32.0619 26.2591H0.000244141V20.2397H32.0619V26.2591ZM0.459672 25.7993H31.6021V20.6996H0.459672V25.7993Z"/>
</mask>
<path d="M32.0619 26.2591H0.000244141V20.2397H32.0619V26.2591ZM0.459672 25.7993H31.6021V20.6996H0.459672V25.7993Z" fill="#414042"/>
<path d="M32.0619 26.2591V27.2591H33.0619V26.2591H32.0619ZM0.000244141 26.2591H-0.999756V27.2591H0.000244141V26.2591ZM0.000244141 20.2397V19.2397H-0.999756V20.2397H0.000244141ZM32.0619 20.2397H33.0619V19.2397H32.0619V20.2397ZM0.459672 25.7993H-0.540328V26.7993H0.459672V25.7993ZM31.6021 25.7993V26.7993H32.6021V25.7993H31.6021ZM31.6021 20.6996H32.6021V19.6996H31.6021V20.6996ZM0.459672 20.6996V19.6996H-0.540328V20.6996H0.459672ZM32.0619 26.2591V25.2591H0.000244141V26.2591V27.2591H32.0619V26.2591ZM0.000244141 26.2591H1.00024V20.2397H0.000244141H-0.999756V26.2591H0.000244141ZM0.000244141 20.2397V21.2397H32.0619V20.2397V19.2397H0.000244141V20.2397ZM32.0619 20.2397H31.0619V26.2591H32.0619H33.0619V20.2397H32.0619ZM0.459672 25.7993V26.7993H31.6021V25.7993V24.7993H0.459672V25.7993ZM31.6021 25.7993H32.6021V20.6996H31.6021H30.6021V25.7993H31.6021ZM31.6021 20.6996V19.6996H0.459672V20.6996V21.6996H31.6021V20.6996ZM0.459672 20.6996H-0.540328V25.7993H0.459672H1.45967V20.6996H0.459672Z" fill="#6B7280" mask="url(#path-5-inside-2_392_1059)"/>
<path d="M31.3315 23.7505V28.3101H0.72998V23.7505H31.3315Z" fill="white" stroke="#6B7280"/>
<mask id="path-8-inside-3_392_1059" fill="white">
<path d="M32.0619 29.0394H0.000244141V23.02H32.0619V29.0394ZM0.459672 28.5796H31.6021V23.4798H0.459672V28.5796Z"/>
</mask>
<path d="M32.0619 29.0394H0.000244141V23.02H32.0619V29.0394ZM0.459672 28.5796H31.6021V23.4798H0.459672V28.5796Z" fill="#414042"/>
<path d="M32.0619 29.0394V30.0394H33.0619V29.0394H32.0619ZM0.000244141 29.0394H-0.999756V30.0394H0.000244141V29.0394ZM0.000244141 23.02V22.02H-0.999756V23.02H0.000244141ZM32.0619 23.02H33.0619V22.02H32.0619V23.02ZM0.459672 28.5796H-0.540328V29.5796H0.459672V28.5796ZM31.6021 28.5796V29.5796H32.6021V28.5796H31.6021ZM31.6021 23.4798H32.6021V22.4798H31.6021V23.4798ZM0.459672 23.4798V22.4798H-0.540328V23.4798H0.459672ZM32.0619 29.0394V28.0394H0.000244141V29.0394V30.0394H32.0619V29.0394ZM0.000244141 29.0394H1.00024V23.02H0.000244141H-0.999756V29.0394H0.000244141ZM0.000244141 23.02V24.02H32.0619V23.02V22.02H0.000244141V23.02ZM32.0619 23.02H31.0619V29.0394H32.0619H33.0619V23.02H32.0619ZM0.459672 28.5796V29.5796H31.6021V28.5796V27.5796H0.459672V28.5796ZM31.6021 28.5796H32.6021V23.4798H31.6021H30.6021V28.5796H31.6021ZM31.6021 23.4798V22.4798H0.459672V23.4798V24.4798H31.6021V23.4798ZM0.459672 23.4798H-0.540328V28.5796H0.459672H1.45967V23.4798H0.459672Z" fill="#6B7280" mask="url(#path-8-inside-3_392_1059)"/>
<mask id="path-10-inside-4_392_1059" fill="white">
<path d="M25.1071 2.5204L21.4651 0.524466L17.8235 2.5204L17.6025 2.11726L21.4651 0L25.328 2.11726L25.1071 2.5204Z"/>
</mask>
<path d="M25.1071 2.5204L21.4651 0.524466L17.8235 2.5204L17.6025 2.11726L21.4651 0L25.328 2.11726L25.1071 2.5204Z" fill="#414042"/>
<path d="M25.1071 2.5204L24.6265 3.39734L25.5034 3.87792L25.984 3.00105L25.1071 2.5204ZM21.4651 0.524466L21.9457 -0.352476L21.4651 -0.615874L20.9845 -0.352455L21.4651 0.524466ZM17.8235 2.5204L16.9466 3.00105L17.4272 3.87795L18.3041 3.39732L17.8235 2.5204ZM17.6025 2.11726L17.1219 1.24036L16.245 1.72102L16.7256 2.59791L17.6025 2.11726ZM21.4651 0L21.9457 -0.87692L21.4651 -1.14037L20.9844 -0.876901L21.4651 0ZM25.328 2.11726L26.205 2.59791L26.6856 1.72098L25.8087 1.24034L25.328 2.11726ZM25.1071 2.5204L25.5877 1.64346L21.9457 -0.352476L21.4651 0.524466L20.9845 1.40141L24.6265 3.39734L25.1071 2.5204ZM21.4651 0.524466L20.9845 -0.352455L17.3429 1.64348L17.8235 2.5204L18.3041 3.39732L21.9457 1.40139L21.4651 0.524466ZM17.8235 2.5204L18.7004 2.03976L18.4795 1.63662L17.6025 2.11726L16.7256 2.59791L16.9466 3.00105L17.8235 2.5204ZM17.6025 2.11726L18.0832 2.99416L21.9458 0.876901L21.4651 0L20.9844 -0.876901L17.1219 1.24036L17.6025 2.11726ZM21.4651 0L20.9845 0.87692L24.8474 2.99418L25.328 2.11726L25.8087 1.24034L21.9457 -0.87692L21.4651 0ZM25.328 2.11726L24.4511 1.63662L24.2302 2.03976L25.1071 2.5204L25.984 3.00105L26.205 2.59791L25.328 2.11726Z" fill="#6B7280" mask="url(#path-10-inside-4_392_1059)"/>
<path d="M25.5627 1.93262V6.68066H17.3665V1.93262H25.5627Z" fill="white" stroke="#6B7280"/>
<mask id="path-13-inside-5_392_1059" fill="white">
<path d="M26.293 7.41038H16.637V1.20312H26.293V7.41038ZM17.0968 6.95057H25.8332V1.66256H17.0968V6.95057Z"/>
</mask>
<path d="M26.293 7.41038H16.637V1.20312H26.293V7.41038ZM17.0968 6.95057H25.8332V1.66256H17.0968V6.95057Z" fill="#414042"/>
<path d="M26.293 7.41038V8.41038H27.293V7.41038H26.293ZM16.637 7.41038H15.637V8.41038H16.637V7.41038ZM16.637 1.20312V0.203125H15.637V1.20312H16.637ZM26.293 1.20312H27.293V0.203125H26.293V1.20312ZM17.0968 6.95057H16.0968V7.95057H17.0968V6.95057ZM25.8332 6.95057V7.95057H26.8332V6.95057H25.8332ZM25.8332 1.66256H26.8332V0.662556H25.8332V1.66256ZM17.0968 1.66256V0.662556H16.0968V1.66256H17.0968ZM26.293 7.41038V6.41038H16.637V7.41038V8.41038H26.293V7.41038ZM16.637 7.41038H17.637V1.20312H16.637H15.637V7.41038H16.637ZM16.637 1.20312V2.20312H26.293V1.20312V0.203125H16.637V1.20312ZM26.293 1.20312H25.293V7.41038H26.293H27.293V1.20312H26.293ZM17.0968 6.95057V7.95057H25.8332V6.95057V5.95057H17.0968V6.95057ZM25.8332 6.95057H26.8332V1.66256H25.8332H24.8332V6.95057H25.8332ZM25.8332 1.66256V0.662556H17.0968V1.66256V2.66256H25.8332V1.66256ZM17.0968 1.66256H16.0968V6.95057H17.0968H18.0968V1.66256H17.0968Z" fill="#6B7280" mask="url(#path-13-inside-5_392_1059)"/>
<path d="M24.718 2.81934V5.80762H18.2131V2.81934H24.718Z" fill="white" stroke="#6B7280"/>
<mask id="path-16-inside-6_392_1059" fill="white">
<path d="M25.4475 6.53773H17.4832V2.08984H25.4475V6.53773ZM17.943 6.07792H24.9877V2.54965H17.943V6.07792Z"/>
</mask>
<path d="M25.4475 6.53773H17.4832V2.08984H25.4475V6.53773ZM17.943 6.07792H24.9877V2.54965H17.943V6.07792Z" fill="#414042"/>
<path d="M25.4475 6.53773V7.53773H26.4475V6.53773H25.4475ZM17.4832 6.53773H16.4832V7.53773H17.4832V6.53773ZM17.4832 2.08984V1.08984H16.4832V2.08984H17.4832ZM25.4475 2.08984H26.4475V1.08984H25.4475V2.08984ZM17.943 6.07792H16.943V7.07792H17.943V6.07792ZM24.9877 6.07792V7.07792H25.9877V6.07792H24.9877ZM24.9877 2.54965H25.9877V1.54965H24.9877V2.54965ZM17.943 2.54965V1.54965H16.943V2.54965H17.943ZM25.4475 6.53773V5.53773H17.4832V6.53773V7.53773H25.4475V6.53773ZM17.4832 6.53773H18.4832V2.08984H17.4832H16.4832V6.53773H17.4832ZM17.4832 2.08984V3.08984H25.4475V2.08984V1.08984H17.4832V2.08984ZM25.4475 2.08984H24.4475V6.53773H25.4475H26.4475V2.08984H25.4475ZM17.943 6.07792V7.07792H24.9877V6.07792V5.07792H17.943V6.07792ZM24.9877 6.07792H25.9877V2.54965H24.9877H23.9877V6.07792H24.9877ZM24.9877 2.54965V1.54965H17.943V2.54965V3.54965H24.9877V2.54965ZM17.943 2.54965H16.943V6.07792H17.943H18.943V2.54965H17.943Z" fill="#6B7280" mask="url(#path-16-inside-6_392_1059)"/>
<path d="M28.627 18.5361H30.1602C30.8077 18.5364 31.332 19.061 31.332 19.708V28.1875H27.4551V19.708C27.4551 19.0607 27.9797 18.5361 28.627 18.5361Z" fill="white" stroke="#6B7280"/>
<mask id="path-19-inside-7_392_1059" fill="white">
<path d="M32.062 28.9172H26.7253V19.7077C26.7253 18.6591 27.5784 17.8057 28.6273 17.8057H30.16C31.209 17.8057 32.062 18.6587 32.062 19.7077V28.9172ZM27.1851 28.4574H31.6022V19.7077C31.6022 18.9124 30.9553 18.2655 30.16 18.2655H28.6273C27.8321 18.2655 27.1851 18.9124 27.1851 19.7077V28.4574Z"/>
</mask>
<path d="M32.062 28.9172H26.7253V19.7077C26.7253 18.6591 27.5784 17.8057 28.6273 17.8057H30.16C31.209 17.8057 32.062 18.6587 32.062 19.7077V28.9172ZM27.1851 28.4574H31.6022V19.7077C31.6022 18.9124 30.9553 18.2655 30.16 18.2655H28.6273C27.8321 18.2655 27.1851 18.9124 27.1851 19.7077V28.4574Z" fill="#414042"/>
<path d="M32.062 28.9172V29.9172H33.062V28.9172H32.062ZM26.7253 28.9172H25.7253V29.9172H26.7253V28.9172ZM27.1851 28.4574H26.1851V29.4574H27.1851V28.4574ZM31.6022 28.4574V29.4574H32.6022V28.4574H31.6022ZM32.062 28.9172V27.9172H26.7253V28.9172V29.9172H32.062V28.9172ZM26.7253 28.9172H27.7253V19.7077H26.7253H25.7253V28.9172H26.7253ZM26.7253 19.7077H27.7253C27.7253 19.2113 28.1308 18.8057 28.6273 18.8057V17.8057V16.8057C27.026 16.8057 25.7253 18.107 25.7253 19.7077H26.7253ZM28.6273 17.8057V18.8057H30.16V17.8057V16.8057H28.6273V17.8057ZM30.16 17.8057V18.8057C30.6567 18.8057 31.062 19.211 31.062 19.7077H32.062H33.062C33.062 18.1065 31.7613 16.8057 30.16 16.8057V17.8057ZM32.062 19.7077H31.062V28.9172H32.062H33.062V19.7077H32.062ZM27.1851 28.4574V29.4574H31.6022V28.4574V27.4574H27.1851V28.4574ZM31.6022 28.4574H32.6022V19.7077H31.6022H30.6022V28.4574H31.6022ZM31.6022 19.7077H32.6022C32.6022 18.3601 31.5076 17.2655 30.16 17.2655V18.2655V19.2655C30.403 19.2655 30.6022 19.4647 30.6022 19.7077H31.6022ZM30.16 18.2655V17.2655H28.6273V18.2655V19.2655H30.16V18.2655ZM28.6273 18.2655V17.2655C27.2798 17.2655 26.1851 18.3601 26.1851 19.7077H27.1851H28.1851C28.1851 19.4647 28.3844 19.2655 28.6273 19.2655V18.2655ZM27.1851 19.7077H26.1851V28.4574H27.1851H28.1851V19.7077H27.1851Z" fill="#6B7280" mask="url(#path-19-inside-7_392_1059)"/>
<path d="M1.90234 18.5361H3.43555C4.0826 18.5364 4.60741 19.0609 4.60742 19.708V28.1875H0.730469V19.708C0.730484 19.0607 1.25508 18.5361 1.90234 18.5361Z" fill="white" stroke="#6B7280"/>
<mask id="path-22-inside-8_392_1059" fill="white">
<path d="M5.3367 28.9172H0V19.7077C0 18.6591 0.853068 17.8057 1.902 17.8057H3.4347C4.48326 17.8057 5.3367 18.6587 5.3367 19.7077V28.9172ZM0.459811 28.4574H4.87689V19.7077C4.87689 18.9124 4.22996 18.2655 3.4347 18.2655H1.902C1.10674 18.2655 0.459811 18.9124 0.459811 19.7077V28.4574Z"/>
</mask>
<path d="M5.3367 28.9172H0V19.7077C0 18.6591 0.853068 17.8057 1.902 17.8057H3.4347C4.48326 17.8057 5.3367 18.6587 5.3367 19.7077V28.9172ZM0.459811 28.4574H4.87689V19.7077C4.87689 18.9124 4.22996 18.2655 3.4347 18.2655H1.902C1.10674 18.2655 0.459811 18.9124 0.459811 19.7077V28.4574Z" fill="#414042"/>
<path d="M5.3367 28.9172V29.9172H6.3367V28.9172H5.3367ZM0 28.9172H-1V29.9172H0V28.9172ZM0.459811 28.4574H-0.540189V29.4574H0.459811V28.4574ZM4.87689 28.4574V29.4574H5.87689V28.4574H4.87689ZM5.3367 28.9172V27.9172H0V28.9172V29.9172H5.3367V28.9172ZM0 28.9172H1V19.7077H0H-1V28.9172H0ZM0 19.7077H1C1 19.2113 1.40548 18.8057 1.902 18.8057V17.8057V16.8057C0.300656 16.8057 -1 18.107 -1 19.7077H0ZM1.902 17.8057V18.8057H3.4347V17.8057V16.8057H1.902V17.8057ZM3.4347 17.8057V18.8057C3.9311 18.8057 4.3367 19.2111 4.3367 19.7077H5.3367H6.3367C6.3367 18.1063 5.03541 16.8057 3.4347 16.8057V17.8057ZM5.3367 19.7077H4.3367V28.9172H5.3367H6.3367V19.7077H5.3367ZM0.459811 28.4574V29.4574H4.87689V28.4574V27.4574H0.459811V28.4574ZM4.87689 28.4574H5.87689V19.7077H4.87689H3.87689V28.4574H4.87689ZM4.87689 19.7077H5.87689C5.87689 18.3601 4.78225 17.2655 3.4347 17.2655V18.2655V19.2655C3.67767 19.2655 3.87689 19.4647 3.87689 19.7077H4.87689ZM3.4347 18.2655V17.2655H1.902V18.2655V19.2655H3.4347V18.2655ZM1.902 18.2655V17.2655C0.554462 17.2655 -0.540189 18.3601 -0.540189 19.7077H0.459811H1.45981C1.45981 19.4647 1.65903 19.2655 1.902 19.2655V18.2655ZM0.459811 19.7077H-0.540189V28.4574H0.459811H1.45981V19.7077H0.459811Z" fill="#6B7280" mask="url(#path-22-inside-8_392_1059)"/>
<path d="M2.66821 19.5361V28.8092" stroke="#6B7280"/>
<mask id="path-25-inside-9_392_1059" fill="white">
<path d="M2.89829 19.5361H2.43848V28.8092H2.89829V19.5361Z"/>
</mask>
<path d="M2.89829 19.5361H2.43848V28.8092H2.89829V19.5361Z" fill="#414042"/>
<path d="M2.43848 19.5361V18.5361H1.43848V19.5361H2.43848ZM2.89829 19.5361H3.89829V18.5361H2.89829V19.5361ZM2.89829 28.8092V29.8092H3.89829V28.8092H2.89829ZM2.43848 28.8092H1.43848V29.8092H2.43848V28.8092ZM2.43848 19.5361V20.5361H2.89829V19.5361V18.5361H2.43848V19.5361ZM2.89829 19.5361H1.89829V28.8092H2.89829H3.89829V19.5361H2.89829ZM2.89829 28.8092V27.8092H2.43848V28.8092V29.8092H2.89829V28.8092ZM2.43848 28.8092H3.43848V19.5361H2.43848H1.43848V28.8092H2.43848Z" fill="#6B7280" mask="url(#path-25-inside-9_392_1059)"/>
<path d="M0.23877 19.5361H5.1069" stroke="#6B7280"/>
<mask id="path-28-inside-10_392_1059" fill="white">
<path d="M5.1069 19.3057H0.23877V19.7655H5.1069V19.3057Z"/>
</mask>
<path d="M5.1069 19.3057H0.23877V19.7655H5.1069V19.3057Z" fill="#414042"/>
<path d="M0.23877 19.3057V18.3057H-0.76123V19.3057H0.23877ZM5.1069 19.3057H6.1069V18.3057H5.1069V19.3057ZM5.1069 19.7655V20.7655H6.1069V19.7655H5.1069ZM0.23877 19.7655H-0.76123V20.7655H0.23877V19.7655ZM0.23877 19.3057V20.3057H5.1069V19.3057V18.3057H0.23877V19.3057ZM5.1069 19.3057H4.1069V19.7655H5.1069H6.1069V19.3057H5.1069ZM5.1069 19.7655V18.7655H0.23877V19.7655V20.7655H5.1069V19.7655ZM0.23877 19.7655H1.23877V19.3057H0.23877H-0.76123V19.7655H0.23877Z" fill="#6B7280" mask="url(#path-28-inside-10_392_1059)"/>
<path d="M29.3892 19.5361V28.8092" stroke="#6B7280"/>
<mask id="path-31-inside-11_392_1059" fill="white">
<path d="M29.6192 19.5361H29.1594V28.8092H29.6192V19.5361Z"/>
</mask>
<path d="M29.6192 19.5361H29.1594V28.8092H29.6192V19.5361Z" fill="#414042"/>
<path d="M29.1594 19.5361V18.5361H28.1594V19.5361H29.1594ZM29.6192 19.5361H30.6192V18.5361H29.6192V19.5361ZM29.6192 28.8092V29.8092H30.6192V28.8092H29.6192ZM29.1594 28.8092H28.1594V29.8092H29.1594V28.8092ZM29.1594 19.5361V20.5361H29.6192V19.5361V18.5361H29.1594V19.5361ZM29.6192 19.5361H28.6192V28.8092H29.6192H30.6192V19.5361H29.6192ZM29.6192 28.8092V27.8092H29.1594V28.8092V29.8092H29.6192V28.8092ZM29.1594 28.8092H30.1594V19.5361H29.1594H28.1594V28.8092H29.1594Z" fill="#6B7280" mask="url(#path-31-inside-11_392_1059)"/>
<path d="M26.9597 19.5361H31.8279" stroke="#6B7280"/>
<mask id="path-34-inside-12_392_1059" fill="white">
<path d="M31.8279 19.3057H26.9597V19.7655H31.8279V19.3057Z"/>
</mask>
<path d="M31.8279 19.3057H26.9597V19.7655H31.8279V19.3057Z" fill="#414042"/>
<path d="M26.9597 19.3057V18.3057H25.9597V19.3057H26.9597ZM31.8279 19.3057H32.8279V18.3057H31.8279V19.3057ZM31.8279 19.7655V20.7655H32.8279V19.7655H31.8279ZM26.9597 19.7655H25.9597V20.7655H26.9597V19.7655ZM26.9597 19.3057V20.3057H31.8279V19.3057V18.3057H26.9597V19.3057ZM31.8279 19.3057H30.8279V19.7655H31.8279H32.8279V19.3057H31.8279ZM31.8279 19.7655V18.7655H26.9597V19.7655V20.7655H31.8279V19.7655ZM26.9597 19.7655H27.9597V19.3057H26.9597H25.9597V19.7655H26.9597Z" fill="#6B7280" mask="url(#path-34-inside-12_392_1059)"/>
</svg>
