<svg width="20" height="20" viewBox="0 0 20 20" fill="none" xmlns="http://www.w3.org/2000/svg">
<path d="M9.16658 14.9483C5.87799 14.5382 3.33325 11.7328 3.33325 8.33317C3.33325 4.65127 6.31802 1.6665 9.99992 1.6665C13.6818 1.6665 16.6666 4.65127 16.6666 8.33317C16.6666 11.7328 14.1218 14.5382 10.8333 14.9483V16.6762C14.1218 16.7531 16.6666 17.2791 16.6666 17.9165C16.6666 18.6068 13.6818 19.1665 9.99992 19.1665C6.31802 19.1665 3.33325 18.6068 3.33325 17.9165C3.33325 17.2791 5.87799 16.7531 9.16658 16.6762V14.9483ZM9.99992 13.3332C12.7613 13.3332 14.9999 11.0946 14.9999 8.33317C14.9999 5.57175 12.7613 3.33317 9.99992 3.33317C7.23849 3.33317 4.99992 5.57175 4.99992 8.33317C4.99992 11.0946 7.23849 13.3332 9.99992 13.3332ZM9.99992 9.99984C9.07942 9.99984 8.33325 9.25367 8.33325 8.33317C8.33325 7.4127 9.07942 6.6665 9.99992 6.6665C10.9204 6.6665 11.6666 7.4127 11.6666 8.33317C11.6666 9.25367 10.9204 9.99984 9.99992 9.99984Z" fill="#1A3763"/>
</svg>
