<svg width="16" height="16" viewBox="0 0 16 16" fill="none" xmlns="http://www.w3.org/2000/svg">
<path d="M7.33341 11.9589C4.70254 11.6308 2.66675 9.38656 2.66675 6.66683C2.66675 3.72131 5.05456 1.3335 8.00008 1.3335C10.9456 1.3335 13.3334 3.72131 13.3334 6.66683C13.3334 9.38656 11.2976 11.6308 8.66675 11.9589V13.3412C11.2976 13.4028 13.3334 13.8236 13.3334 14.3335C13.3334 14.8858 10.9456 15.3335 8.00008 15.3335C5.05456 15.3335 2.66675 14.8858 2.66675 14.3335C2.66675 13.8236 4.70254 13.4028 7.33341 13.3412V11.9589ZM8.00008 10.6668C10.2092 10.6668 12.0001 8.87596 12.0001 6.66683C12.0001 4.45769 10.2092 2.66683 8.00008 2.66683C5.79094 2.66683 4.00008 4.45769 4.00008 6.66683C4.00008 8.87596 5.79094 10.6668 8.00008 10.6668ZM8.00008 8.00016C7.26368 8.00016 6.66675 7.40323 6.66675 6.66683C6.66675 5.93045 7.26368 5.3335 8.00008 5.3335C8.73648 5.3335 9.33341 5.93045 9.33341 6.66683C9.33341 7.40323 8.73648 8.00016 8.00008 8.00016Z" fill="#FF0000"/>
</svg>
