<svg width="116" height="36" viewBox="0 0 116 36" fill="none" xmlns="http://www.w3.org/2000/svg">
<path d="M4.14733 23.0176V24.1074C4.14733 27.4079 4.14871 30.7082 4.15146 34.0083C4.15146 35.2379 3.43536 35.9711 2.21178 35.9883C1.50256 35.9979 0.792648 35.9883 0.0173246 35.9883V35.3315C0.016636 29.6992 0.0228331 24.0654 0.0021762 18.4317C0.0021762 17.9298 0.163989 17.651 0.575062 17.3797C1.75733 16.5983 2.90379 15.7659 4.15077 14.8888V19.0589H4.94262C8.9363 19.0665 12.9334 19.01 16.9236 19.1043C19.2868 19.1601 21.1927 20.2747 22.24 22.4331C23.2729 24.5625 23.2089 26.7553 21.8269 28.7553C20.8485 30.1749 19.3928 30.8062 17.6053 30.8565C18.1706 31.6296 18.831 32.2733 19.7399 32.3023C22.1065 32.3759 24.4765 32.327 26.9009 32.327V31.4279C26.9009 25.1004 26.9044 18.7729 26.9113 12.4455C26.9113 11.8947 26.7735 11.5422 26.2916 11.2117C22.9293 8.88952 19.5918 6.53014 16.2261 4.17076L0.0021762 15.4382C0.0021762 13.9828 -0.00884082 12.6307 0.0187017 11.2792C0.0187017 11.1298 0.229402 10.9515 0.382264 10.8441C4.99932 7.60782 9.61866 4.37707 14.2403 1.15182C14.7554 0.792444 15.2477 0.39451 15.7958 0.0929607C16.014 -0.0261443 16.4334 -0.0371598 16.6269 0.0970915C21.1714 3.25119 25.7038 6.42388 30.2239 9.61516C30.3782 9.72394 30.5262 9.96835 30.5269 10.1494C30.5393 18.7052 30.5409 27.2608 30.5317 35.8162C30.5219 35.8682 30.506 35.9188 30.4842 35.967C30.413 35.9822 30.3407 35.9921 30.268 35.9966C26.967 35.9966 23.6661 35.9725 20.3658 35.9966C18.2636 36.0138 16.4623 35.2881 14.9316 33.9002C12.6277 31.8114 10.3596 29.6833 8.07352 27.5752C8.00054 27.5064 7.89174 27.4816 7.7981 27.4375L7.89174 27.3122C10.9097 27.3122 13.9277 27.3239 16.9457 27.3074C18.3958 27.2998 19.3054 26.4503 19.2985 25.1732C19.2916 23.9339 18.2409 22.9797 16.8589 22.9783C12.8216 22.9756 8.78504 22.9756 4.74914 22.9783C4.56667 22.9838 4.38282 23.0038 4.14733 23.0176Z" fill="white"/>
<path d="M13.436 10.4124H15.6725V12.7635H13.436V10.4124Z" fill="white"/>
<path d="M13.4402 13.8114H15.6711V16.1522H13.4402V13.8114Z" fill="white"/>
<path d="M18.9379 10.4276V12.7567H16.7063V10.4276H18.9379Z" fill="white"/>
<path d="M16.6975 16.1356V13.8162H18.9291V16.1356H16.6975Z" fill="white"/>
<path d="M52.5048 25.5015C51.2186 25.5015 50.0425 25.5215 48.8685 25.4829C48.6619 25.476 48.3927 25.2681 48.2694 25.0781C47.2483 23.4946 46.2409 21.9022 45.2604 20.2939C45.0346 19.9229 44.786 19.7762 44.3577 19.8037C43.7986 19.8389 43.2347 19.8127 42.6122 19.8127V25.4809H38.9883V9.01201C39.0478 8.98437 39.1108 8.96491 39.1756 8.95418C41.6337 8.95418 44.0947 8.89841 46.5501 8.98791C48.3941 9.05676 50.0267 9.73077 51.158 11.295C52.7348 13.474 52.6039 18.086 48.5999 19.2385C48.5641 19.2488 48.5366 19.2881 48.498 19.3198L52.5048 25.5015ZM42.6583 11.8485V16.9094C43.7339 16.9094 44.764 16.9583 45.7872 16.8977C47.2724 16.8089 48.2515 15.9125 48.3252 14.6781C48.4071 13.3012 47.6607 12.2437 46.2664 12.0413C45.0952 11.8712 43.8929 11.9063 42.6597 11.8485H42.6583Z" fill="white"/>
<path d="M92.8266 12.5818C96.7149 12.7325 99.3962 15.8217 99.2399 19.4664C99.0526 23.8217 95.6084 26.0826 92.1022 25.8423C88.2462 25.5787 85.5395 22.4688 85.8211 18.7511C86.1014 15.0637 89.2178 12.3188 92.8266 12.5818ZM92.5326 22.8571C92.91 22.8767 93.2874 22.8176 93.6407 22.6835C93.9941 22.5495 94.3157 22.3435 94.5852 22.0785C96.0263 20.7077 96.1069 17.9236 94.7477 16.462C93.4566 15.0747 91.3737 15.1463 90.1749 16.6196C89.1421 17.8947 89.0312 20.0716 89.9532 21.4609C90.5605 22.3752 91.3985 22.8984 92.5326 22.8571Z" fill="white"/>
<path d="M66.2826 20.0792H57.3829C57.2073 20.9832 57.8497 22.1515 58.7862 22.6954C60.1461 23.4837 61.8062 23.1642 62.7984 21.9436C62.925 21.7992 63.1023 21.7092 63.2935 21.6923C64.1955 21.6675 65.0982 21.6806 66.0016 21.6806C65.9073 22.9838 64.9261 24.219 63.6543 24.948C59.923 27.0878 54.3622 25.2881 53.8678 20.0427C53.5373 16.5384 55.3186 13.7687 58.4894 12.8283C62.1533 11.7418 65.6649 14.0221 66.1139 17.7935C66.202 18.5336 66.2254 19.282 66.2826 20.0792ZM62.8115 17.9209C62.7929 16.3167 61.5914 15.2152 59.9829 15.2661C58.6133 15.3116 57.3732 16.5962 57.4352 17.9209H62.8115Z" fill="white"/>
<path d="M73.8785 16.9212C74.6256 15.6482 75.3479 14.4469 76.0344 13.2255C76.2217 12.893 76.4145 12.7491 76.8104 12.7594C77.9369 12.7897 79.0648 12.7704 80.3056 12.7704L75.8341 19.1395C77.3296 21.2331 78.8334 23.3391 80.3862 25.5147C79.0462 25.5147 77.7572 25.5271 76.4703 25.4982C76.3195 25.4947 76.137 25.2875 76.033 25.1319C75.2481 23.9519 74.4783 22.7615 73.6479 21.4878C72.8904 22.7133 72.1585 23.8513 71.4775 25.0176C71.2585 25.3928 71.0265 25.5374 70.5906 25.5243C69.4993 25.4913 68.4065 25.5133 67.2339 25.5133L71.6992 19.1835L67.2766 12.7808C68.3783 12.7808 69.4194 12.8441 70.444 12.7601C71.2076 12.6982 71.6056 12.9618 71.9485 13.6255C72.5276 14.7333 73.2106 15.7901 73.8785 16.9212Z" fill="white"/>
<path d="M104.338 21.7116C105.281 21.7116 106.223 21.704 107.165 21.7212C107.23 21.7305 107.292 21.7549 107.346 21.7924C107.4 21.83 107.445 21.8796 107.476 21.9374C107.93 23.0768 108.909 23.2565 109.948 23.273C110.345 23.2731 110.738 23.1981 111.108 23.052C111.607 22.8579 111.924 22.473 111.913 21.892C111.902 21.3488 111.56 21.0286 111.105 20.8854C110.37 20.6534 109.613 20.4937 108.862 20.314C107.786 20.0572 106.672 19.8768 105.779 19.1574C104.17 17.861 104.186 15.43 105.791 13.9725C107.655 12.2803 111.319 12.1075 113.353 13.5987C114.327 14.3126 114.737 15.2909 114.817 16.5536C113.878 16.5536 112.964 16.5646 112.052 16.5391C111.946 16.5391 111.816 16.3532 111.747 16.2259C111.147 15.1243 109.649 14.652 108.615 15.3371C108.3 15.5436 108.002 16.0255 107.996 16.3856C107.992 16.7057 108.34 17.1897 108.649 17.3199C109.351 17.6145 110.125 17.7329 110.87 17.9271C111.496 18.0889 112.132 18.2224 112.748 18.418C115.788 19.3818 115.502 22.9219 113.959 24.3918C111.779 26.4717 107.103 26.2748 105.146 23.9897C104.595 23.3433 104.354 22.6837 104.338 21.7116Z" fill="white"/>
<path d="M101.488 8.97632H104.787C104 10.8558 103.226 12.723 102.426 14.5791C102.366 14.7168 102.12 14.8545 101.955 14.8586C101.266 14.8896 100.57 14.8717 99.8118 14.8717L101.488 8.97632Z" fill="white"/>
<path d="M86.4314 10.5894C85.7497 11.8864 85.0212 13.0864 84.4786 14.3656C84.0847 15.2957 83.5732 15.7164 82.5644 15.536C82.2002 15.4672 81.8132 15.525 81.3601 15.525C81.7732 14.3202 82.1678 13.1649 82.5685 12.0138C83.0629 10.5921 83.0657 10.5935 84.5502 10.5942L86.4314 10.5894Z" fill="white"/>
<path d="M63.797 35.967C62.2594 35.967 61.3181 35.0031 61.3223 33.4251C61.3271 31.8837 62.2635 30.9171 63.7584 30.9109C65.2533 30.9047 66.2317 31.9036 66.2373 33.463C66.2421 34.9935 65.2987 35.9635 63.797 35.967ZM62.3262 33.4238C62.3166 34.409 62.8771 35.0685 63.7405 35.0823C64.6122 35.0961 65.212 34.4551 65.2306 33.4899C65.2492 32.5088 64.6357 31.7955 63.7715 31.7955C62.9074 31.7955 62.3352 32.4434 62.3262 33.4238Z" fill="white"/>
<path d="M79.6624 31.0278C80.4012 31.0278 81.0712 31.0168 81.7411 31.0278C82.5633 31.0451 83.2057 31.5366 83.3634 32.2437C83.5211 32.9507 83.1926 33.5084 82.3794 33.927C82.334 33.9577 82.291 33.9918 82.2507 34.0289C82.6576 34.623 83.0673 35.2186 83.4901 35.8299C82.7719 36.0041 82.2335 35.8395 81.9112 35.1352C81.8008 34.8859 81.6503 34.6564 81.4657 34.4557C81.2825 34.2643 81.0326 34.1356 80.8116 33.9793L80.658 34.117V35.8285H79.6624V31.0278ZM80.6635 31.8506V33.3177C81.2516 33.2282 81.9098 33.5855 82.2816 32.9129C82.376 32.7421 82.3464 32.4007 82.2321 32.2347C81.8479 31.6771 81.2529 31.8354 80.6635 31.8506Z" fill="white"/>
<path d="M59.5121 35.8355C58.6968 36.042 58.2438 35.6978 57.8595 35.0444C57.6199 34.6375 57.5201 33.916 56.6649 34.1322V35.8575H55.6926V31.0602C56.5189 31.0602 57.3452 31.0031 58.1715 31.0782C58.8201 31.1374 59.3152 31.759 59.4109 32.4145C59.5011 33.0479 59.1354 33.5814 58.2672 34.0317L59.5121 35.8355ZM56.6663 33.3391C57.2639 33.2214 57.9153 33.5738 58.2913 32.926C58.3932 32.7498 58.3512 32.3649 58.2224 32.2017C57.8155 31.7005 57.2336 31.8382 56.669 31.8575L56.6663 33.3391Z" fill="white"/>
<path d="M103.819 32.4028C103.374 32.4028 102.959 32.5467 102.673 32.0055C102.568 31.8086 102.111 31.6868 101.839 31.7219C101.593 31.7529 101.381 32.0455 101.15 32.2224C101.331 32.4193 101.477 32.6892 101.701 32.7966C102.091 32.9832 102.534 33.0561 102.946 33.2021C103.551 33.4162 103.931 33.8307 103.949 34.4964C103.964 35.1091 103.52 35.6957 102.87 35.8802C101.623 36.2334 100.31 35.8169 100.07 34.4875C100.505 34.4661 100.908 34.305 101.24 34.8179C101.378 35.0327 101.791 35.2076 102.051 35.1739C102.365 35.1332 102.805 34.9184 102.913 34.6623C103.099 34.221 102.612 34.0937 102.293 33.9739C101.866 33.8128 101.404 33.7377 100.985 33.556C100.422 33.3102 100.112 32.8723 100.159 32.2162C100.206 31.589 100.563 31.2241 101.123 31.0341C102.434 30.59 103.774 31.2076 103.819 32.4028Z" fill="white"/>
<path d="M98.1396 35.019V35.8266H94.8345V31.0582H98.0969V31.8121H95.8019V32.924H97.8552V33.8038H95.7943V35.019H98.1396Z" fill="white"/>
<path d="M75.1315 33.799V35.0086H77.43V35.8293H74.1992V31.0499H77.4169V31.8072H75.1446V32.926H77.1903V33.801L75.1315 33.799Z" fill="white"/>
<path d="M50.8505 34.1914V35.8237H49.8865V31.0588C50.6962 31.0588 51.5115 30.9824 52.3054 31.0802C53.1186 31.1807 53.5813 31.9752 53.4966 32.8764C53.4278 33.5944 52.8397 34.1397 52.0506 34.1845C51.6788 34.2099 51.3008 34.1914 50.8505 34.1914ZM50.8725 33.4037C51.4833 33.3686 52.1195 33.6261 52.4651 33.0079C52.5815 32.8013 52.534 32.3483 52.3777 32.1693C51.977 31.7115 51.4075 31.8547 50.8725 31.8843V33.4037Z" fill="white"/>
<path d="M69.3523 35.8424H68.3938V31.0706C69.1705 31.0706 69.9878 30.9955 70.7845 31.0926C71.5357 31.1842 72.0404 31.9649 71.9867 32.7064C71.9241 33.5656 71.367 34.1232 70.4877 34.1852C70.1338 34.2107 69.7771 34.1893 69.3523 34.1893V35.8424ZM69.3075 31.8713C69.3075 32.3071 69.2752 32.6857 69.3247 33.0527C69.3433 33.1904 69.5361 33.3632 69.6842 33.41C69.8742 33.4699 70.1035 33.4444 70.308 33.41C70.7046 33.3411 71.0338 33.1869 71.0386 32.7002C71.0434 32.2134 70.7749 31.9525 70.3369 31.8809C70.034 31.8313 69.7165 31.8713 69.3075 31.8713Z" fill="white"/>
<path d="M87.7383 35.8479H86.8356V31.9181H85.2664V31.0424H89.2772V31.8857H87.7383V35.8479Z" fill="white"/>
<path d="M91.405 31.0424H92.3057V35.8417H91.405V31.0424Z" fill="white"/>
</svg>
