<svg width="107" height="34" viewBox="0 0 107 34" fill="none" xmlns="http://www.w3.org/2000/svg">
<path d="M3.85579 21.4162V22.4302C3.85579 25.5011 3.85707 28.5717 3.85963 31.6422C3.85963 32.7863 3.19387 33.4685 2.0563 33.4845C1.39693 33.4934 0.736928 33.4845 0.0161068 33.4845V32.8734C0.0154666 27.6329 0.021228 22.3911 0.00202322 17.1493C0.00202322 16.6824 0.152461 16.4229 0.534637 16.1705C1.63379 15.4435 2.69966 14.669 3.85899 13.853V17.7329H4.59518C8.30811 17.7399 12.0242 17.6874 15.734 17.7752C17.931 17.827 19.703 18.8641 20.6767 20.8723C21.6369 22.8536 21.5774 24.8938 20.2926 26.7547C19.3829 28.0755 18.0296 28.6629 16.3677 28.7097C16.8933 29.429 17.5072 30.028 18.3522 30.0549C20.5525 30.1234 22.7559 30.0779 25.0099 30.0779V29.2413C25.0099 23.3541 25.0131 17.4668 25.0195 11.5796C25.0195 11.0671 24.8915 10.7392 24.4434 10.4317C21.3175 8.27104 18.2146 6.07581 15.0855 3.88058L0.00202322 14.3641C0.00202322 13.01 -0.00821935 11.7519 0.0173871 10.4945C0.0173871 10.3555 0.213276 10.1895 0.355392 10.0896C4.64788 7.07852 8.94251 4.07254 13.2393 1.07169C13.7181 0.737311 14.1758 0.367062 14.6854 0.0864931C14.8883 -0.0243253 15.2782 -0.0345744 15.4581 0.0903365C19.6831 3.025 23.8969 5.97695 28.0993 8.9462C28.2427 9.04741 28.3804 9.27481 28.381 9.44328C28.3925 17.4038 28.394 25.3642 28.3855 33.3243C28.3764 33.3727 28.3615 33.4198 28.3413 33.4646C28.2751 33.4788 28.2079 33.488 28.1403 33.4922C25.0714 33.4922 22.0024 33.4697 18.9341 33.4922C16.9797 33.5082 15.3051 32.833 13.882 31.5416C11.74 29.5981 9.63132 27.6181 7.50599 25.6567C7.43813 25.5927 7.33699 25.5696 7.24992 25.5286L7.33699 25.412C10.1428 25.412 12.9486 25.4229 15.7545 25.4075C17.1026 25.4005 17.9483 24.61 17.9419 23.4218C17.9355 22.2688 16.9586 21.3809 15.6738 21.3796C11.9203 21.3771 8.16749 21.3771 4.41529 21.3796C4.24565 21.3848 4.07473 21.4033 3.85579 21.4162Z" fill="#1A3763"/>
<path d="M12.4915 9.68799H14.5707V11.8755H12.4915V9.68799Z" fill="#1A3763"/>
<path d="M12.4954 12.8506H14.5695V15.0285H12.4954V12.8506Z" fill="#1A3763"/>
<path d="M17.6065 9.70215V11.8692H15.5317V9.70215H17.6065Z" fill="#1A3763"/>
<path d="M15.5239 15.0131V12.855H17.5987V15.0131H15.5239Z" fill="#1A3763"/>
<path d="M48.8144 23.7275C47.6186 23.7275 46.5252 23.7461 45.4337 23.7102C45.2417 23.7038 44.9914 23.5103 44.8768 23.3335C43.9274 21.8602 42.9909 20.3786 42.0793 18.8822C41.8693 18.5369 41.6382 18.4005 41.24 18.4261C40.7202 18.4588 40.1959 18.4345 39.6172 18.4345V23.7083H36.248V8.38521C36.3034 8.35949 36.362 8.34139 36.4222 8.3314C38.7075 8.3314 40.9955 8.27951 43.2783 8.36279C44.9926 8.42684 46.5105 9.05396 47.5622 10.5093C49.0282 12.5367 48.9066 16.8279 45.184 17.9002C45.1508 17.9098 45.1252 17.9463 45.0893 17.9758L48.8144 23.7275ZM39.6601 11.0244V15.7332C40.66 15.7332 41.6177 15.7787 42.569 15.7223C43.9498 15.6397 44.8601 14.8056 44.9286 13.6571C45.0048 12.376 44.3109 11.392 43.0145 11.2037C41.9256 11.0455 40.8079 11.0782 39.6614 11.0244H39.6601Z" fill="#1A3763"/>
<path d="M86.3015 11.7066C89.9164 11.8469 92.4092 14.7212 92.2639 18.1123C92.0898 22.1646 88.8877 24.2682 85.628 24.0446C82.0431 23.7993 79.5266 20.9058 79.7885 17.4468C80.049 14.0159 82.9464 11.4619 86.3015 11.7066ZM86.0281 21.2671C86.379 21.2853 86.7299 21.2303 87.0584 21.1056C87.3869 20.9809 87.6859 20.7892 87.9364 20.5426C89.2763 19.2673 89.3512 16.6768 88.0875 15.3169C86.8872 14.0261 84.9507 14.0928 83.8362 15.4636C82.876 16.6499 82.7729 18.6754 83.6301 19.9681C84.1947 20.8187 84.9738 21.3056 86.0281 21.2671Z" fill="#1A3763"/>
<path d="M61.6232 18.6821H53.3491C53.1859 19.5232 53.7831 20.6102 54.6537 21.1163C55.9181 21.8497 57.4615 21.5525 58.384 20.4168C58.5016 20.2824 58.6665 20.1987 58.8442 20.1829C59.6828 20.1599 60.5221 20.1721 61.362 20.1721C61.2743 21.3847 60.3621 22.5338 59.1797 23.2122C55.7106 25.2031 50.5407 23.5286 50.0811 18.6481C49.7738 15.3876 51.4299 12.8106 54.3778 11.9356C57.7841 10.9248 61.049 13.0464 61.4663 16.5554C61.5483 17.244 61.57 17.9403 61.6232 18.6821ZM58.3961 16.6739C58.3788 15.1814 57.2618 14.1565 55.7663 14.2039C54.4931 14.2462 53.3401 15.4415 53.3977 16.6739H58.3961Z" fill="#1A3763"/>
<path d="M68.6849 15.744C69.3795 14.5596 70.051 13.4418 70.6892 12.3055C70.8633 11.9961 71.0426 11.8622 71.4107 11.8718C72.458 11.9 73.5066 11.882 74.6601 11.882L70.5029 17.8079C71.8934 19.7559 73.2915 21.7154 74.735 23.7396C73.4893 23.7396 72.2909 23.7511 71.0944 23.7242C70.9542 23.721 70.7846 23.5282 70.6879 23.3834C69.9582 22.2855 69.2425 21.178 68.4704 19.9929C67.7662 21.1331 67.0858 22.192 66.4526 23.2771C66.2491 23.6262 66.0333 23.7607 65.6281 23.7486C64.6135 23.7178 63.5975 23.7383 62.5073 23.7383L66.6588 17.8489L62.547 11.8916C63.5713 11.8916 64.5392 11.9506 65.4918 11.8724C66.2017 11.8148 66.5717 12.0601 66.8905 12.6776C67.4289 13.7083 68.0639 14.6916 68.6849 15.744Z" fill="#1A3763"/>
<path d="M97.0037 20.201C97.88 20.201 98.7564 20.1939 99.6322 20.21C99.6927 20.2186 99.7504 20.2413 99.8007 20.2762C99.8509 20.3111 99.8923 20.3573 99.9215 20.4111C100.343 21.4712 101.253 21.6384 102.219 21.6538C102.588 21.6539 102.954 21.5841 103.298 21.4482C103.762 21.2675 104.056 20.9095 104.046 20.3688C104.036 19.8634 103.718 19.5655 103.295 19.4323C102.612 19.2164 101.908 19.0678 101.21 18.9006C100.209 18.6617 99.1738 18.4939 98.3435 17.8245C96.8475 16.6183 96.8628 14.3564 98.355 13.0004C100.087 11.4258 103.494 11.2651 105.385 12.6525C106.29 13.3168 106.671 14.227 106.746 15.4019C105.873 15.4019 105.024 15.4121 104.175 15.3884C104.077 15.3884 103.956 15.2154 103.892 15.0969C103.334 14.072 101.941 13.6326 100.98 14.27C100.687 14.4621 100.41 14.9105 100.404 15.2456C100.401 15.5434 100.724 15.9937 101.012 16.1148C101.664 16.389 102.384 16.4991 103.076 16.6798C103.659 16.8303 104.25 16.9546 104.823 17.1365C107.649 18.0333 107.383 21.3271 105.949 22.6947C103.922 24.6299 99.5745 24.4467 97.7546 22.3206C97.2424 21.7191 97.019 21.1055 97.0037 20.201Z" fill="#1A3763"/>
<path d="M94.354 8.35156H97.4217C96.69 10.1003 95.9705 11.8375 95.2266 13.5645C95.1709 13.6926 94.9417 13.8207 94.7881 13.8246C94.1479 13.8534 93.5007 13.8368 92.7959 13.8368L94.354 8.35156Z" fill="#1A3763"/>
<path d="M80.3556 9.85254C79.7219 11.0594 79.0446 12.1759 78.5402 13.3661C78.174 14.2315 77.6983 14.6229 76.7605 14.455C76.4219 14.391 76.0621 14.4448 75.6409 14.4448C76.025 13.3238 76.3918 12.2489 76.7643 11.1779C77.224 9.8551 77.2265 9.85638 78.6067 9.85702L80.3556 9.85254Z" fill="#1A3763"/>
<path d="M59.3122 33.4646C57.8827 33.4646 57.0076 32.5678 57.0115 31.0996C57.016 29.6654 57.8866 28.766 59.2764 28.7603C60.6662 28.7545 61.5758 29.684 61.581 31.1349C61.5854 32.5589 60.7084 33.4614 59.3122 33.4646ZM57.9448 31.0984C57.9359 32.015 58.457 32.6287 59.2597 32.6415C60.0702 32.6543 60.6278 32.0579 60.645 31.1599C60.6623 30.247 60.0919 29.5834 59.2885 29.5834C58.4851 29.5834 57.9532 30.1862 57.9448 31.0984Z" fill="#1A3763"/>
<path d="M74.0623 28.8693C74.7491 28.8693 75.372 28.8591 75.9949 28.8693C76.7592 28.8853 77.3565 29.3427 77.5031 30.0005C77.6497 30.6584 77.3444 31.1773 76.5883 31.5667C76.5461 31.5953 76.5061 31.627 76.4686 31.6615C76.847 32.2144 77.2278 32.7684 77.6209 33.3373C76.9532 33.4993 76.4526 33.3462 76.153 32.6909C76.0504 32.459 75.9105 32.2454 75.7388 32.0587C75.5686 31.8806 75.3362 31.7608 75.1307 31.6154L74.9879 31.7435V33.336H74.0623V28.8693ZM74.993 29.6348V30.9998C75.5397 30.9166 76.1517 31.249 76.4974 30.6232C76.5851 30.4643 76.5576 30.1466 76.4513 29.9922C76.0941 29.4734 75.541 29.6207 74.993 29.6348Z" fill="#1A3763"/>
<path d="M55.3286 33.3422C54.5706 33.5344 54.1494 33.2141 53.7922 32.6062C53.5694 32.2277 53.4766 31.5563 52.6815 31.7575V33.3627H51.7776V28.8993C52.5458 28.8993 53.314 28.8461 54.0822 28.9159C54.6852 28.971 55.1455 29.5494 55.2345 30.1593C55.3183 30.7486 54.9784 31.245 54.1712 31.664L55.3286 33.3422ZM52.6828 31.0195C53.2384 30.91 53.844 31.238 54.1936 30.6352C54.2883 30.4712 54.2493 30.1131 54.1295 29.9613C53.7512 29.495 53.2103 29.6231 52.6853 29.641L52.6828 31.0195Z" fill="#1A3763"/>
<path d="M96.5211 30.1487C96.1069 30.1487 95.7215 30.2826 95.4552 29.7791C95.3579 29.5959 94.9328 29.4825 94.68 29.5152C94.4514 29.544 94.2543 29.8163 94.0398 29.9809C94.2082 30.1641 94.3439 30.4152 94.5519 30.5151C94.9149 30.6887 95.3265 30.7566 95.7094 30.8924C96.2721 31.0916 96.6254 31.4773 96.6414 32.0967C96.6561 32.6668 96.2426 33.2126 95.6383 33.3842C94.479 33.7128 93.2588 33.3253 93.0354 32.0884C93.44 32.0685 93.8145 31.9186 94.1237 32.3958C94.2517 32.5957 94.6358 32.7584 94.8771 32.727C95.1697 32.6892 95.5781 32.4894 95.6786 32.2511C95.8515 31.8405 95.3989 31.722 95.1025 31.6105C94.7049 31.4606 94.2754 31.3908 93.8862 31.2217C93.3625 30.993 93.0744 30.5856 93.118 29.9751C93.1621 29.3916 93.4938 29.0521 94.0142 28.8753C95.2337 28.4621 96.4795 29.0367 96.5211 30.1487Z" fill="#1A3763"/>
<path d="M91.2403 32.5827V33.334H88.1675V28.8975H91.2006V29.5989H89.0669V30.6334H90.9759V31.4521H89.0599V32.5827H91.2403Z" fill="#1A3763"/>
<path d="M69.8502 31.4474V32.5729H71.987V33.3365H68.9834V28.8896H71.9749V29.5943H69.8623V30.6352H71.7643V31.4494L69.8502 31.4474Z" fill="#1A3763"/>
<path d="M47.2754 31.8126V33.3314H46.3792V28.898C47.132 28.898 47.8899 28.8269 48.628 28.9179C49.3841 29.0114 49.8143 29.7506 49.7355 30.5891C49.6715 31.2572 49.1248 31.7646 48.3912 31.8062C48.0455 31.8299 47.694 31.8126 47.2754 31.8126ZM47.2959 31.0798C47.8637 31.0471 48.4552 31.2867 48.7765 30.7115C48.8847 30.5193 48.8406 30.0978 48.6953 29.9313C48.3227 29.5053 47.7933 29.6385 47.2959 29.6661V31.0798Z" fill="#1A3763"/>
<path d="M64.4773 33.3488H63.5862V28.909C64.3083 28.909 65.0682 28.8392 65.8088 28.9295C66.5072 29.0147 66.9765 29.7411 66.9265 30.431C66.8683 31.2305 66.3504 31.7493 65.5329 31.807C65.2039 31.8307 64.8723 31.8108 64.4773 31.8108V33.3488ZM64.4357 29.654C64.4357 30.0595 64.4056 30.4118 64.4517 30.7532C64.469 30.8814 64.6482 31.0421 64.7858 31.0857C64.9625 31.1414 65.1757 31.1177 65.3658 31.0857C65.7346 31.0216 66.0406 30.8782 66.045 30.4253C66.0495 29.9724 65.7999 29.7296 65.3927 29.663C65.111 29.6169 64.8159 29.654 64.4357 29.654Z" fill="#1A3763"/>
<path d="M81.5706 33.354H80.7314V29.6976H79.2725V28.8828H83.0014V29.6675H81.5706V33.354Z" fill="#1A3763"/>
<path d="M84.9795 28.8828H85.8175V33.3482H84.9795V28.8828Z" fill="#1A3763"/>
</svg>
