<svg width="192" height="192" viewBox="0 0 192 192" fill="none" xmlns="http://www.w3.org/2000/svg">
<g filter="url(#filter0_d_242_340)">
<path d="M171 0H21C11.6112 0 4 7.61116 4 17V167C4 176.389 11.6112 184 21 184H171C180.389 184 188 176.389 188 167V17C188 7.61116 180.389 0 171 0Z" fill="white"/>
<path d="M45.3982 57.5869V103.587V121.994H59.2036H91.3982H100.602H121.392H137.58C142.728 121.994 146.784 117.938 146.784 112.791C146.784 107.643 142.728 103.587 137.58 103.587C132.433 103.587 128.376 107.643 128.376 112.791V85.1978V57.5869H45.3982Z" fill="#8B9DC3"/>
<path d="M56.9846 128.797C59.5675 128.797 61.5864 130.816 61.5864 133.399C61.5864 135.981 59.5675 138.001 56.9846 138.001C54.4018 138.001 52.3828 135.981 52.3828 133.399C52.401 130.816 54.42 128.797 56.9846 128.797Z" fill="white"/>
<path d="M129.304 135.799C131.141 135.799 132.796 137.273 132.796 139.292C132.796 141.311 131.323 142.784 129.304 142.784C127.467 142.784 125.812 141.311 125.812 139.292C125.994 137.273 127.467 135.799 129.304 135.799Z" fill="white"/>
<path d="M122.501 39.1978C124.338 39.1978 125.994 40.671 125.994 42.69C125.994 44.5271 124.52 46.1823 122.501 46.1823C120.664 46.1823 119.009 44.709 119.009 42.69C119.009 40.671 120.464 39.1978 122.501 39.1978Z" fill="white"/>
<path d="M63.787 66.7905H56.9844V78.3769H63.787V66.7905Z" fill="white"/>
<path d="M105.385 66.7905H98.4009V78.3769H105.385V66.7905Z" fill="white"/>
<path d="M63.8052 57.5872V50.6025H98.4007V57.5872V66.7908V78.3772H87.3599V68.0823C87.3599 66.4271 86.6142 64.9537 85.5229 63.8442C84.4133 62.7347 82.94 62.0071 81.2848 62.0071C77.9744 62.0071 75.3916 64.7718 75.3916 67.9003V78.0134H63.8052V66.427V57.5872Z" fill="white"/>
<path d="M105.203 50.6018H98.4007H63.8053H56.9844L81.103 36.7964L105.203 50.6018Z" fill="white"/>
<path d="M137.398 103.586C132.25 103.586 128.194 107.643 128.194 112.79V85.1974V57.5864C128.194 52.439 132.25 48.3828 137.398 48.3828C142.545 48.3828 146.602 52.439 146.602 57.5864V112.79C146.602 107.643 142.545 103.586 137.398 103.586Z" fill="white"/>
<path d="M144.401 128.797C145.692 128.797 146.783 129.906 146.783 131.198C146.783 132.489 145.674 133.581 144.401 133.581C143.109 133.581 142 132.471 142 131.198C142 129.906 143.109 128.797 144.401 128.797Z" fill="#1A3763"/>
<path d="M119.009 110.408C120.3 110.408 121.392 111.517 121.392 112.809C121.392 114.1 120.282 115.191 119.009 115.191C117.717 115.191 116.608 114.082 116.608 112.809C116.608 111.499 117.717 110.408 119.009 110.408Z" fill="#1A3763"/>
<path d="M114.407 131.197C115.698 131.197 116.808 132.307 116.808 133.58C116.808 134.872 115.698 135.981 114.407 135.981C113.116 135.981 112.006 134.872 112.006 133.58C112.188 132.107 113.116 131.197 114.407 131.197Z" fill="#1A3763"/>
<path d="M112.188 46C113.479 46 114.589 47.1095 114.589 48.3828C114.589 49.6742 113.479 50.7837 112.188 50.7837C110.897 50.7837 109.787 49.6742 109.787 48.3828C109.805 47.1095 110.897 46 112.188 46Z" fill="#1A3763"/>
<path d="M82.1945 128.797C83.4859 128.797 84.5955 129.906 84.5955 131.198C84.5955 132.489 83.4859 133.581 82.1945 133.581C80.9031 133.581 79.8118 132.471 79.8118 131.198C79.9937 129.906 80.9213 128.797 82.1945 128.797Z" fill="#1A3763"/>
<path d="M59.2035 82.7964C60.4949 82.7964 61.6044 83.9059 61.6044 85.1973C61.6044 86.4888 60.4949 87.5801 59.2035 87.5801C57.912 87.5801 56.8025 86.4706 56.8025 85.1973C56.8025 83.9241 57.912 82.7964 59.2035 82.7964Z" fill="#1A3763"/>
<path d="M49.9998 41.3984C51.2913 41.3984 52.3826 42.508 52.3826 43.7994C52.3826 45.0908 51.2731 46.1822 49.9998 46.1822C48.7084 46.1822 47.5989 45.0726 47.5989 43.7994C47.799 42.508 48.7084 41.3984 49.9998 41.3984Z" fill="#1A3763"/>
<path d="M146.602 115.009C145.31 115.009 144.201 113.899 144.201 112.608V57.4043C144.201 53.5482 141.072 50.4196 137.216 50.4196C133.36 50.4196 130.231 53.5482 130.231 57.4043V112.608C130.231 113.899 129.122 115.009 127.849 115.009C126.557 115.009 125.448 113.899 125.448 112.608V57.4043C125.448 51.1472 130.595 45.8179 137.034 45.8179C143.473 45.8179 148.621 50.9654 148.621 57.4043V112.608C148.984 113.899 147.893 115.009 146.602 115.009Z" fill="#1A3763"/>
<path d="M128.194 59.8059H98.3826C97.0912 59.8059 95.9817 58.6964 95.9817 57.6051C95.9817 56.4955 97.0912 55.2041 98.3826 55.2041H128.376C129.668 55.2041 130.759 56.3136 130.759 57.6051C130.595 58.6964 129.486 59.8059 128.194 59.8059Z" fill="#1A3763"/>
<path d="M137.398 124.194H45.398C44.1066 124.194 42.9971 123.085 42.9971 121.811V57.4042C42.9971 56.1128 44.1066 55.0215 45.398 55.0215H63.8053C65.0967 55.0215 66.1881 56.131 66.1881 57.4042C66.1881 58.6775 65.0785 59.8051 63.9872 59.8051H47.9808V119.611H137.78C141.636 119.611 144.765 116.482 144.765 112.808C144.765 109.134 141.636 105.823 137.78 105.823C133.924 105.823 130.795 108.952 130.795 112.808C130.795 114.099 129.686 115.191 128.413 115.191C127.121 115.191 126.012 114.081 126.012 112.808C126.012 106.551 131.159 101.222 137.598 101.222C144.037 101.222 149.185 106.369 149.185 112.808C148.984 119.047 143.655 124.194 137.398 124.194Z" fill="#1A3763"/>
<path d="M105.204 52.9848H98.219C96.9276 52.9848 95.8363 51.8752 95.8363 50.602C95.8363 49.6744 96.2001 48.9468 96.9458 48.5831L80.9395 39.3794L64.7513 48.5831C65.4788 48.9468 65.8608 49.6926 65.8608 50.602C65.8608 51.8934 64.7513 52.9848 63.4599 52.9848H56.6571C55.5476 52.9848 54.6382 52.2572 54.4563 51.3296C54.2744 50.402 54.6382 49.3107 55.5658 48.7468L79.8481 34.9413C80.5757 34.5775 81.5034 34.5775 82.049 34.9413L106.149 48.7468C107.059 49.2925 107.441 50.402 107.259 51.3296C107.223 52.2572 106.295 52.9848 105.204 52.9848Z" fill="#1A3763"/>
<path d="M98.4007 69.0094C97.1093 69.0094 95.9998 67.8997 95.9998 66.6265V52.8211H66.0061V66.6265C66.0061 67.9179 64.8966 69.0094 63.6052 69.0094C62.3137 69.0094 61.4043 67.8997 61.4043 66.6265V50.6202C61.4043 49.3288 62.5138 48.2192 63.6052 48.2192H98.2007C99.4921 48.2192 100.602 49.3288 100.602 50.6202V66.6265C100.602 67.8997 99.4921 69.0094 98.4007 69.0094Z" fill="#1A3763"/>
<path d="M98.4009 80.5958H87.3602C86.0687 80.5958 84.9592 79.4863 84.9592 78.2131V68.1C84.9592 67.1724 84.5954 66.2628 83.8497 65.5171C83.1039 64.7895 82.3764 64.4076 81.2668 64.4076C79.2478 64.4076 77.5927 66.0628 77.5927 68.0818V78.1949C77.5927 79.4863 76.4831 80.5776 75.1917 80.5776H63.6053C62.3139 80.5776 61.2043 79.4681 61.2043 78.1949C61.2043 76.9035 62.3139 75.7939 63.6053 75.7939H72.8089V68.0636C72.8089 63.4618 76.4832 59.7876 81.085 59.7876C83.2858 59.7876 85.323 60.7153 86.9782 62.1886C88.4515 63.6619 89.361 65.8627 89.361 68.0818V75.994H98.0007C99.2922 75.994 100.383 77.1035 100.383 78.3767C100.42 79.6681 99.4922 80.5958 98.4009 80.5958Z" fill="#1A3763"/>
<path d="M105.204 80.5957H98.2189C96.9275 80.5957 95.8362 79.4862 95.8362 78.2129V66.6264C95.8362 65.335 96.9457 64.2256 98.2189 64.2256H105.204C106.495 64.2256 107.586 65.335 107.586 66.6264V78.2129C107.586 79.4862 106.495 80.5957 105.204 80.5957ZM100.602 75.9938H103.003V69.0093H100.602V75.9938Z" fill="#1A3763"/>
<path d="M63.8054 80.5957H57.0027C55.7113 80.5957 54.6018 79.4862 54.6018 78.2129V66.6264C54.6018 65.335 55.7113 64.2256 57.0027 64.2256H63.8054C65.0969 64.2256 66.1882 65.335 66.1882 66.6264V78.2129C66.0063 79.4862 65.0969 80.5957 63.8054 80.5957ZM59.2036 75.9938H61.4045V69.0093H59.2036V75.9938Z" fill="#1A3763"/>
<path d="M128.195 87.398H68.3891C67.0977 87.398 66.0063 86.2884 66.0063 84.997C66.0063 83.7056 67.1159 82.6143 68.3891 82.6143H128.195C129.486 82.6143 130.596 83.7238 130.596 84.997C130.596 86.2884 129.486 87.398 128.195 87.398Z" fill="#1A3763"/>
<path d="M79.9937 112.79C78.7023 112.79 77.6109 111.681 77.6109 110.389V105.787H45.4163C44.1249 105.787 43.0154 104.678 43.0154 103.386C43.0154 102.095 44.1249 100.985 45.4163 100.985H80.0119C81.3033 100.985 82.4128 102.095 82.4128 103.386V110.371C82.1945 111.681 81.1032 112.79 79.9937 112.79Z" fill="#1A3763"/>
<path d="M91.3983 124.195C90.1069 124.195 88.9973 123.085 88.9973 121.812V112.608C88.9973 111.317 90.1069 110.226 91.3983 110.226H112.188C113.48 110.226 114.589 111.335 114.589 112.608C114.589 113.882 113.48 115.009 112.188 115.009H93.781V121.812C93.7992 123.103 92.6897 124.195 91.3983 124.195Z" fill="#1A3763"/>
<path d="M59.2035 124.195C57.912 124.195 56.8025 123.086 56.8025 121.812V92.0006C56.8025 90.7092 57.912 89.5996 59.2035 89.5996C60.4949 89.5996 61.6044 90.7092 61.6044 92.0006V121.812C61.5862 123.104 60.4949 124.195 59.2035 124.195Z" fill="#1A3763"/>
<path d="M100.602 124.195C99.3102 124.195 98.2007 123.085 98.2007 121.812V108.006C98.2007 106.715 99.3102 105.605 100.602 105.605C101.893 105.605 103.003 106.715 103.003 108.006V121.812C102.984 123.103 101.893 124.195 100.602 124.195Z" fill="#1A3763"/>
<path d="M114.407 98.9844H98.2189C96.9275 98.9844 95.8362 97.8749 95.8362 96.5834C95.8362 95.292 96.9457 94.2007 98.2189 94.2007H114.407C115.699 94.2007 116.808 95.3102 116.808 96.5834C116.79 97.893 115.68 98.9844 114.407 98.9844Z" fill="#1A3763"/>
<path d="M129.304 144.985C126.176 144.985 123.593 142.402 123.593 139.274C123.593 136.145 126.176 133.562 129.304 133.562C132.433 133.562 135.015 136.145 135.015 139.274C135.197 142.239 132.433 144.985 129.304 144.985ZM129.304 138.001C128.758 138.001 128.195 138.546 128.195 139.11C128.195 139.674 128.74 140.22 129.304 140.22C129.85 140.22 130.414 139.674 130.414 139.11C130.596 138.546 130.032 138.001 129.304 138.001Z" fill="#1A3763"/>
<path d="M122.501 48.4013C119.373 48.4013 116.79 45.8184 116.79 42.6899C116.79 39.5614 119.373 36.9785 122.501 36.9785C125.63 36.9785 128.213 39.5614 128.213 42.6899C128.195 45.6365 125.63 48.4013 122.501 48.4013ZM122.501 41.3984C121.956 41.3984 121.392 41.9442 121.392 42.508C121.392 43.0537 121.938 43.6175 122.501 43.6175C123.047 43.6175 123.611 43.0719 123.611 42.508C123.593 41.9624 123.047 41.3984 122.501 41.3984Z" fill="#1A3763"/>
<path d="M56.9843 140.401C53.1283 140.401 49.9998 137.273 49.9998 133.417C49.9998 129.561 53.1283 126.432 56.9843 126.432C60.8404 126.432 63.9689 129.561 63.9689 133.417C63.8052 137.273 60.6767 140.401 56.9843 140.401ZM56.9843 131.198C55.6929 131.198 54.5834 132.307 54.5834 133.581C54.5834 134.872 55.6929 135.981 56.9843 135.981C58.2758 135.981 59.3852 134.872 59.3852 133.581C59.3852 132.289 58.0939 131.198 56.9843 131.198Z" fill="#1A3763"/>
</g>
<defs>
<filter id="filter0_d_242_340" x="0" y="0" width="192" height="192" filterUnits="userSpaceOnUse" color-interpolation-filters="sRGB">
<feFlood flood-opacity="0" result="BackgroundImageFix"/>
<feColorMatrix in="SourceAlpha" type="matrix" values="0 0 0 0 0 0 0 0 0 0 0 0 0 0 0 0 0 0 127 0" result="hardAlpha"/>
<feOffset dy="4"/>
<feGaussianBlur stdDeviation="2"/>
<feComposite in2="hardAlpha" operator="out"/>
<feColorMatrix type="matrix" values="0 0 0 0 0 0 0 0 0 0 0 0 0 0 0 0 0 0 0.25 0"/>
<feBlend mode="normal" in2="BackgroundImageFix" result="effect1_dropShadow_242_340"/>
<feBlend mode="normal" in="SourceGraphic" in2="effect1_dropShadow_242_340" result="shape"/>
</filter>
</defs>
</svg>
