<svg width="192" height="192" viewBox="0 0 192 192" fill="none" xmlns="http://www.w3.org/2000/svg">
<g filter="url(#filter0_d_242_627)">
<path d="M171 0H21C11.6112 0 4 7.61116 4 17V167C4 176.389 11.6112 184 21 184H171C180.389 184 188 176.389 188 167V17C188 7.61116 180.389 0 171 0Z" fill="white"/>
<path d="M137.58 78.1948H54.6021V140.201H137.58V78.1948Z" fill="white"/>
<path d="M44.2887 119.593C46.1258 119.593 47.781 121.066 47.781 123.085C47.781 125.104 46.3077 126.577 44.2887 126.577C42.2697 126.577 40.7964 124.922 40.7964 123.085C40.7964 121.066 42.2697 119.593 44.2887 119.593Z" fill="#8B9DC3"/>
<path d="M54.6018 48.4014C57.1847 48.4014 59.2036 50.4204 59.2036 53.0032C59.2036 55.5861 57.1847 57.605 54.6018 57.605C52.019 57.605 50 55.5861 50 53.0032C50 50.4204 52.019 48.4014 54.6018 48.4014Z" fill="white"/>
<path d="M133.906 41.3984C137.035 41.3984 139.618 43.9813 139.618 47.1098C139.618 50.2383 137.035 52.8211 133.906 52.8211C130.778 52.8211 128.195 50.2383 128.195 47.1098C128.195 43.9813 130.778 41.3984 133.906 41.3984Z" fill="#8B9DC3"/>
<path d="M96 90.8911C85.887 90.8911 77.5928 99.1671 77.5928 109.298C77.5928 119.411 85.8688 127.706 96 127.706C106.131 127.706 114.407 119.43 114.407 109.298C114.407 99.1853 106.113 90.8911 96 90.8911Z" fill="#8B9DC3"/>
<path d="M148.985 78.195H137.398H54.602H43.1975L96.0002 48.4014L148.985 78.195Z" fill="#8B9DC3"/>
<path d="M144.383 59.8062C145.674 59.8062 146.784 60.9157 146.784 62.1889C146.784 63.4803 145.674 64.5899 144.383 64.5899C143.091 64.5899 142 63.4803 142 62.1889C142 60.8975 143.11 59.8062 144.383 59.8062Z" fill="#1A3763"/>
<path d="M116.79 131.198C118.081 131.198 119.191 132.307 119.191 133.599C119.191 134.89 118.081 135.981 116.79 135.981C115.499 135.981 114.407 134.69 114.407 133.399C114.407 132.107 115.499 131.198 116.79 131.198Z" fill="#1A3763"/>
<path d="M114.408 43.7993C115.699 43.7993 116.79 44.9088 116.79 46.1821C116.79 47.4553 115.681 48.583 114.408 48.583C113.116 48.583 112.007 47.4735 112.007 46.1821C112.188 44.7088 113.116 43.7993 114.408 43.7993Z" fill="#1A3763"/>
<path d="M95.6363 106.533V103.041C94.3449 103.223 93.6173 103.787 93.6173 104.696C93.6173 105.242 93.7992 105.624 94.163 105.806C94.3449 105.988 94.8905 106.17 95.6363 106.533ZM96.9277 111.681V114.991C98.4011 114.991 99.1286 114.446 99.1286 113.518C99.1286 112.972 98.9467 112.59 98.5829 112.408C98.0191 112.063 97.4734 111.881 96.9277 111.681ZM103.367 101.022L101.348 104.878C101.348 104.878 101.166 104.696 100.802 104.514C100.62 104.333 100.256 104.151 99.6925 103.969C99.3287 103.787 98.7648 103.605 98.2191 103.423C97.8554 103.241 97.4916 103.059 96.9277 103.059V106.915L97.8553 107.097C98.783 107.279 99.6925 107.643 100.438 108.025C101.166 108.389 101.911 108.771 102.457 109.134C103.003 109.498 103.385 110.062 103.749 110.79C104.112 111.517 104.112 112.263 104.112 113.191C104.112 114.3 103.931 115.21 103.567 115.955C103.203 116.683 102.639 117.247 102.093 117.792C101.548 118.338 100.802 118.72 99.8926 118.902C99.165 119.084 98.2373 119.266 97.3097 119.266V122.576H95.2907V119.266C93.9993 119.084 92.7079 118.902 91.4346 118.538C90.1432 118.174 89.0519 117.611 88.1243 116.883L90.1432 112.845C90.1432 113.027 90.3251 113.027 90.6889 113.391C91.0526 113.572 91.4165 113.754 91.9803 114.136C92.526 114.318 93.0899 114.5 93.6355 114.864C94.1812 115.046 94.9269 115.228 95.6545 115.41V111.735L94.1812 110.808C93.2535 110.444 92.526 110.262 91.7802 109.88C91.0527 109.516 90.4888 109.153 90.125 108.771C89.7612 108.407 89.3975 107.843 89.1974 107.297C89.0155 106.752 88.8336 106.006 88.8336 105.278C88.8336 104.351 89.0155 103.441 89.3793 102.696C89.743 101.968 90.1069 101.222 90.6707 100.676C91.2164 100.131 91.9621 99.7489 92.6897 99.3851C93.4172 99.0213 94.3449 98.8394 95.2725 98.8394V96.0747H97.1096V98.8394C98.401 99.0213 99.5106 99.2032 100.602 99.567C101.711 100.094 102.621 100.64 103.367 101.022Z" fill="#1A3763"/>
<path d="M75.3919 131.198C76.6833 131.198 77.7928 132.307 77.7928 133.599C77.7928 134.89 76.6833 135.981 75.3919 135.981C74.1005 135.981 72.991 134.872 72.991 133.599C73.0092 132.107 74.1005 131.198 75.3919 131.198Z" fill="#1A3763"/>
<path d="M73.0091 43.7993C74.3005 43.7993 75.41 44.9088 75.41 46.1821C75.41 47.4553 74.3005 48.583 73.0091 48.583C71.7176 48.583 70.6082 47.4735 70.6082 46.1821C70.79 44.7088 71.7176 43.7993 73.0091 43.7993Z" fill="#1A3763"/>
<path d="M47.7992 62.189C49.0906 62.189 50.1819 63.2985 50.1819 64.5899C50.1819 65.8813 49.0724 66.9727 47.7992 66.9727C46.5077 66.9727 45.3982 65.8632 45.3982 64.5899C45.3982 63.3167 46.5077 62.189 47.7992 62.189Z" fill="#1A3763"/>
<path d="M47.7992 96.6025C49.0906 96.6025 50.1819 97.7121 50.1819 99.0035C50.1819 100.295 48.8905 101.204 47.7992 101.204C46.5077 101.204 45.3982 100.095 45.3982 98.8034C45.3982 97.5302 46.5077 96.6025 47.7992 96.6025Z" fill="#1A3763"/>
<path d="M96.0002 129.907C84.5957 129.907 75.2102 120.703 75.2102 109.298C75.2102 97.8938 84.4138 88.5083 96.0002 88.5083C107.587 88.5083 116.79 97.7119 116.79 109.298C116.79 120.885 107.405 129.907 96.0002 129.907ZM96.0002 93.1102C87.1604 93.1102 79.812 100.295 79.812 109.298C79.812 118.32 86.9785 125.305 96.0002 125.305C105.022 125.305 112.188 118.138 112.188 109.298C112.188 100.458 104.84 93.1102 96.0002 93.1102Z" fill="#1A3763"/>
<path d="M148.985 80.5957H43.1791C42.0696 80.5957 41.1601 79.8682 40.9783 78.9405C40.7964 78.0129 41.1601 76.9215 42.0878 76.3576L94.8905 46.5458C95.6181 46.182 96.3638 46.182 97.0914 46.5458L149.894 76.3576C150.622 76.7214 151.185 77.4671 151.185 78.3766C151.204 79.4861 150.094 80.5957 148.985 80.5957ZM51.8371 75.9938H140.163L96 50.9658L51.8371 75.9938Z" fill="#1A3763"/>
<path d="M137.398 142.602C136.107 142.602 134.997 141.493 134.997 140.201V78.1948C134.997 76.9033 136.107 75.812 137.398 75.812C138.69 75.812 139.799 76.9215 139.799 78.1948V140.201C139.799 141.493 138.69 142.602 137.398 142.602Z" fill="#1A3763"/>
<path d="M54.6018 142.602C53.3104 142.602 52.2009 141.493 52.2009 140.201V78.1948C52.2009 76.9033 53.3104 75.812 54.6018 75.812C55.8933 75.812 56.9846 76.9215 56.9846 78.1948V140.201C56.8027 141.493 55.7114 142.602 54.6018 142.602Z" fill="#1A3763"/>
<path d="M144.383 142.602H47.7992C46.5077 142.602 45.3982 141.493 45.3982 140.201C45.3982 138.91 46.5077 137.8 47.7992 137.8H144.401C145.692 137.8 146.802 138.91 146.802 140.201C146.602 141.493 145.492 142.602 144.383 142.602Z" fill="#1A3763"/>
<path d="M137.398 135.8H123.593C122.301 135.8 121.192 134.69 121.192 133.399C121.192 132.107 122.301 131.016 123.593 131.016H137.398C138.69 131.016 139.799 132.126 139.799 133.399C139.799 134.672 138.69 135.8 137.398 135.8Z" fill="#1A3763"/>
<path d="M68.4073 135.8H54.6018C53.3104 135.8 52.2009 134.69 52.2009 133.399C52.2009 132.107 53.3104 131.016 54.6018 131.016H68.4073C69.6987 131.016 70.7901 132.126 70.7901 133.399C70.7901 134.672 69.6805 135.8 68.4073 135.8Z" fill="#1A3763"/>
<path d="M44.2888 128.797C41.1603 128.797 38.5774 126.214 38.5774 123.085C38.5774 119.957 41.1603 117.374 44.2888 117.374C47.4173 117.374 50.0001 119.957 50.0001 123.085C50.0001 126.232 47.4173 128.797 44.2888 128.797ZM44.2888 121.994C43.7431 121.994 43.1792 122.54 43.1792 123.104C43.1792 123.649 43.7249 124.213 44.2888 124.213C44.8344 124.213 45.3983 123.667 45.3983 123.104C45.3983 122.358 44.8526 121.994 44.2888 121.994Z" fill="#1A3763"/>
<path d="M123.593 96.6022C122.301 96.6022 121.192 95.4927 121.192 94.2013V84.9976C121.192 83.7062 122.301 82.5967 123.593 82.5967C124.884 82.5967 125.994 83.7062 125.994 84.9976V94.2013C125.994 95.4927 124.884 96.6022 123.593 96.6022Z" fill="#1A3763"/>
<path d="M130.596 119.593C129.304 119.593 128.213 118.483 128.213 117.392V89.7993C128.213 88.5078 129.322 87.4165 130.596 87.4165C131.887 87.4165 132.997 88.526 132.997 89.7993V117.392C132.797 118.501 131.687 119.593 130.596 119.593Z" fill="#1A3763"/>
<path d="M68.4075 96.6022C67.1161 96.6022 66.0066 95.4927 66.0066 94.2013V84.9976C66.0066 83.7062 67.1161 82.5967 68.4075 82.5967C69.6989 82.5967 70.7903 83.7062 70.7903 84.9976V94.2013C70.7903 95.4927 69.6807 96.6022 68.4075 96.6022Z" fill="#1A3763"/>
<path d="M61.5865 119.593C60.295 119.593 59.1855 118.483 59.1855 117.392V89.7993C59.1855 88.5078 60.295 87.4165 61.5865 87.4165C62.8779 87.4165 63.9693 88.526 63.9693 89.7993V117.392C63.8056 118.501 62.696 119.593 61.5865 119.593Z" fill="#1A3763"/>
<path d="M73.0091 73.5927C72.2815 73.5927 71.3539 73.2288 70.9901 72.4831C70.4445 71.3735 70.8083 69.9003 71.9178 69.3546L92.7078 57.7682C93.8174 57.2226 95.2907 57.5864 95.8363 58.6959C96.382 59.8054 96.0182 61.2787 94.9087 61.8243L74.1187 73.4107C73.7367 73.5926 73.3729 73.5927 73.0091 73.5927Z" fill="#1A3763"/>
<path d="M54.6018 59.8059C50.7457 59.8059 47.6172 56.6774 47.6172 53.0032C47.6172 49.329 50.7457 46.0186 54.6018 46.0186C58.4578 46.0186 61.5863 49.1471 61.5863 53.0032C61.5863 56.8593 58.4578 59.8059 54.6018 59.8059ZM54.6018 50.6022C53.3103 50.6022 52.2009 51.7118 52.2009 53.0032C52.2009 54.2946 53.3103 55.3859 54.6018 55.3859C55.8932 55.3859 56.9845 54.2764 56.9845 53.0032C56.9845 51.73 55.8932 50.6022 54.6018 50.6022Z" fill="#1A3763"/>
<path d="M133.906 55.2038C129.486 55.2038 125.812 51.5297 125.812 47.1098C125.812 42.6898 129.486 39.0156 133.906 39.0156C138.326 39.0156 142 42.6898 142 47.1098C142 51.5297 138.326 55.2038 133.906 55.2038ZM133.906 43.7993C132.069 43.7993 130.414 45.2726 130.414 47.2916C130.414 49.1287 131.887 50.7839 133.906 50.7839C135.743 50.7839 137.398 49.3106 137.398 47.2916C137.398 45.2726 135.925 43.7993 133.906 43.7993Z" fill="#1A3763"/>
</g>
<defs>
<filter id="filter0_d_242_627" x="0" y="0" width="192" height="192" filterUnits="userSpaceOnUse" color-interpolation-filters="sRGB">
<feFlood flood-opacity="0" result="BackgroundImageFix"/>
<feColorMatrix in="SourceAlpha" type="matrix" values="0 0 0 0 0 0 0 0 0 0 0 0 0 0 0 0 0 0 127 0" result="hardAlpha"/>
<feOffset dy="4"/>
<feGaussianBlur stdDeviation="2"/>
<feComposite in2="hardAlpha" operator="out"/>
<feColorMatrix type="matrix" values="0 0 0 0 0 0 0 0 0 0 0 0 0 0 0 0 0 0 0.25 0"/>
<feBlend mode="normal" in2="BackgroundImageFix" result="effect1_dropShadow_242_627"/>
<feBlend mode="normal" in="SourceGraphic" in2="effect1_dropShadow_242_627" result="shape"/>
</filter>
</defs>
</svg>
