<svg width="192" height="192" viewBox="0 0 192 192" fill="none" xmlns="http://www.w3.org/2000/svg">
<g filter="url(#filter0_d_242_1052)">
<path d="M171 0H21C11.6112 0 4 7.61116 4 17V167C4 176.389 11.6112 184 21 184H171C180.389 184 188 176.389 188 167V17C188 7.61116 180.389 0 171 0Z" fill="white"/>
</g>
<path d="M110.897 64.4071C108.314 64.4071 106.295 66.426 106.295 69.0089C106.295 71.5917 108.314 73.6107 110.897 73.6107C113.48 73.6107 115.499 71.5917 115.499 69.0089C115.499 66.426 113.48 64.4071 110.897 64.4071ZM84.5955 68.9907L100.784 52.9844H109.805H121.574L137.762 68.9907V137.982C137.762 141.838 134.633 144.784 130.959 144.784H91.3981C87.724 144.784 84.5955 141.656 84.5955 137.982V135.581" fill="#8B9DC3"/>
<path d="M51.1095 135.799C52.9466 135.799 54.6018 137.273 54.6018 139.292C54.6018 141.311 53.1285 142.784 51.1095 142.784C49.0905 142.784 47.6172 141.311 47.6172 139.292C47.7991 137.254 49.2724 135.799 51.1095 135.799Z" fill="white"/>
<path d="M47.7991 66.7905C50.3819 66.7905 52.4009 68.8095 52.4009 71.3923C52.4009 73.9752 50.3819 75.9942 47.7991 75.9942C45.2162 75.9942 43.1973 73.9752 43.1973 71.3923C43.1973 68.8095 45.2162 66.7905 47.7991 66.7905Z" fill="#8B9DC3"/>
<path d="M96 98.9844V128.796H84.4136V120.702C84.4136 119.047 83.6861 117.574 82.5765 116.464C81.467 115.354 79.9937 114.627 78.3385 114.627C75.0281 114.627 72.4453 117.392 72.4453 120.52V128.796H61.4045V98.9844H96Z" fill="white"/>
<path d="M102.984 98.9851H95.9997H61.4043H54.6016L78.8839 85.1978L84.5952 88.3263L102.984 98.9851Z" fill="white"/>
<path d="M145.856 90.3447C146.784 91.2723 146.784 92.7456 145.856 93.6551C144.928 94.5827 143.473 94.5827 142.546 93.6551C141.618 92.7274 141.618 91.2723 142.546 90.3447C143.655 89.417 144.947 89.417 145.856 90.3447Z" fill="#1A3763"/>
<path d="M145.856 97.33C146.784 98.2577 146.784 99.731 145.856 100.64C144.928 101.568 143.473 101.568 142.546 100.64C141.618 99.7128 141.618 98.2395 142.546 97.33C143.655 96.4206 144.947 96.4206 145.856 97.33Z" fill="#1A3763"/>
<path d="M145.856 104.15C146.784 105.078 146.784 106.551 145.856 107.461C144.928 108.388 143.473 108.388 142.546 107.461C141.618 106.533 141.618 105.078 142.546 104.15C143.655 103.223 144.947 103.223 145.856 104.15Z" fill="#1A3763"/>
<path d="M145.856 111.135C146.784 112.063 146.784 113.536 145.856 114.446C144.928 115.373 143.473 115.373 142.546 114.446C141.618 113.518 141.618 112.045 142.546 111.135C143.655 110.208 144.947 110.208 145.856 111.135Z" fill="#1A3763"/>
<path d="M145.856 117.938C146.784 118.866 146.784 120.339 145.856 121.248C144.928 122.176 143.473 122.176 142.546 121.248C141.618 120.321 141.618 118.866 142.546 117.938C143.655 117.028 144.947 117.028 145.856 117.938Z" fill="#1A3763"/>
<path d="M134.451 46.7275C135.379 47.6551 135.379 49.1285 134.451 50.0379C133.524 50.9656 132.05 50.9656 131.141 50.0379C130.213 49.1103 130.213 47.6369 131.141 46.7275C132.069 45.818 133.542 45.818 134.451 46.7275Z" fill="#1A3763"/>
<path d="M70.0623 78.9404C70.9899 79.868 70.9899 81.3413 70.0623 82.2508C69.1346 83.1784 67.6613 83.1784 66.7519 82.2508C65.8242 81.3231 65.8242 79.868 66.7519 78.9404C67.6613 78.0127 69.1346 78.0127 70.0623 78.9404Z" fill="#1A3763"/>
<path d="M56.2569 46.7275C57.1845 47.6551 57.1845 49.1285 56.2569 50.0379C55.3292 50.9656 53.8559 50.9656 52.9465 50.0379C52.0188 49.1103 52.0188 47.6369 52.9465 46.7275C53.8559 45.818 55.3292 45.818 56.2569 46.7275Z" fill="#1A3763"/>
<path d="M51.6551 90.3447C52.5827 91.2723 52.5827 92.7456 51.6551 93.6551C50.7274 94.5827 49.2541 94.5827 48.3447 93.6551C47.417 92.7274 47.417 91.2723 48.3447 90.3447C49.2723 89.417 50.7274 89.417 51.6551 90.3447Z" fill="#1A3763"/>
<path d="M47.0533 51.3295C47.9809 52.2572 47.9809 53.7305 47.0533 54.64C46.1256 55.5676 44.6705 55.5676 43.7428 54.64C42.8152 53.7123 42.8152 52.2572 43.7428 51.3295C44.6705 50.4201 46.1438 50.4201 47.0533 51.3295Z" fill="#1A3763"/>
<path d="M47.0533 113.336C47.9809 114.264 47.9809 115.719 47.0533 116.646C46.1256 117.574 44.6705 117.574 43.7428 116.646C42.8152 115.719 42.8152 114.245 43.7428 113.336C44.6705 112.426 46.1438 112.426 47.0533 113.336Z" fill="#1A3763"/>
<path d="M110.897 75.994C107.041 75.994 103.912 72.8655 103.912 69.0095C103.912 65.1534 107.041 62.0249 110.897 62.0249C114.753 62.0249 117.881 65.1534 117.881 69.0095C117.899 72.8655 114.771 75.994 110.897 75.994ZM110.897 66.7904C109.605 66.7904 108.514 67.9 108.514 69.1914C108.514 70.4828 109.623 71.5923 110.897 71.5923C112.188 71.5923 113.298 70.4828 113.298 69.1914C113.298 67.7181 112.188 66.7904 110.897 66.7904Z" fill="#1A3763"/>
<path d="M130.595 147.204H91.3981C86.4325 147.204 82.1945 143.147 82.1945 138V128.796C82.1945 127.505 83.304 126.413 84.5954 126.413C85.8868 126.413 86.7963 127.523 86.7963 128.796V138C86.7963 140.583 88.8153 142.602 91.3981 142.602H130.595C133.178 142.602 135.197 140.583 135.197 138V69.9184L120.482 55.2035H101.529L86.8145 69.9184V88.3257C86.8145 89.6171 85.7049 90.7266 84.4135 90.7266C83.1221 90.7266 82.0308 89.6171 82.0308 88.3257V69.0089C82.0308 68.4633 82.2126 67.8994 82.7583 67.3537L98.9465 51.1655C99.3103 50.8018 100.056 50.438 100.602 50.438H121.392C121.937 50.438 122.501 50.6199 123.047 51.1655L139.235 67.1719C139.599 67.5357 139.963 68.2814 139.963 68.827V138.018C139.799 143.147 135.561 147.204 130.595 147.204Z" fill="#1A3763"/>
<path d="M121.392 138H84.5953C83.3039 138 82.1943 136.891 82.1943 135.599C82.1943 134.308 83.3039 133.198 84.5953 133.198H121.392C122.683 133.198 123.793 134.308 123.793 135.599C123.593 136.891 122.501 138 121.392 138Z" fill="#1A3763"/>
<path d="M47.799 78.1948C43.943 78.1948 40.8145 75.0662 40.8145 71.2102C40.8145 67.3541 43.943 64.2256 47.799 64.2256C51.6551 64.2256 54.7836 67.3541 54.7836 71.2102C54.6017 75.0662 51.4732 78.1948 47.799 78.1948ZM47.799 68.9912C46.5076 68.9912 45.4163 70.1006 45.4163 71.3921C45.4163 72.6835 46.5258 73.7748 47.799 73.7748C49.0904 73.7748 50.2 72.6653 50.2 71.3921C49.9999 70.1006 48.8904 68.9912 47.799 68.9912Z" fill="#1A3763"/>
<path d="M51.1095 144.985C47.981 144.985 45.3982 142.402 45.3982 139.273C45.3982 136.145 47.981 133.562 51.1095 133.562C54.2381 133.562 56.8209 136.145 56.8209 139.273C56.9846 142.238 54.2381 144.985 51.1095 144.985ZM51.1095 138C50.5639 138 50 138.546 50 139.11C50 139.655 50.5457 140.219 51.1095 140.219C51.6552 140.219 52.2191 139.673 52.2191 139.11C52.3828 138.546 51.8371 138 51.1095 138Z" fill="#1A3763"/>
<path d="M102.984 101.204H95.9998C94.7084 101.204 93.5989 100.095 93.5989 98.8213C93.5989 97.8937 93.9626 97.1661 94.7084 96.8023L78.7021 87.5987L62.5138 96.8023C63.2414 97.1661 63.6234 97.9118 63.6234 98.8213C63.6234 100.113 62.5138 101.204 61.2406 101.204H54.4379C53.3284 101.204 52.4189 100.476 52.237 99.5488C52.0551 98.6212 52.4189 97.5298 53.3466 96.966L77.6289 83.1605C78.3565 82.7968 79.2841 82.7968 79.8298 83.1605L103.93 96.966C104.858 97.5117 105.222 98.6212 105.04 99.5488C104.84 100.458 103.912 101.204 102.984 101.204Z" fill="#1A3763"/>
<path d="M96 131.198H84.4136C83.1222 131.198 82.0308 130.088 82.0308 128.815V120.721C82.0308 119.793 81.667 118.884 80.9213 118.138C80.1937 117.411 79.2661 117.029 78.3385 117.029C76.3195 117.029 74.6643 118.684 74.6643 120.703V128.797C74.6643 130.088 73.5548 131.18 72.2815 131.18H61.2408C59.9494 131.18 58.8398 130.07 58.8398 128.797V98.9853C58.8398 97.6939 59.9494 96.6025 61.2408 96.6025H96.0182C97.3096 96.6025 98.4191 97.7121 98.4191 98.9853V128.797C98.3827 130.088 97.2914 131.198 96 131.198ZM86.7963 126.596H93.7809V101.204H63.7873V126.414H70.2262V120.521C70.2262 115.919 73.9003 112.245 78.5022 112.245C80.703 112.245 82.7402 113.173 84.3954 114.646C85.8687 116.119 86.7963 118.32 86.7963 120.539V126.596Z" fill="#1A3763"/>
<path d="M68.4072 75.9938C67.1158 75.9938 66.0244 74.8843 66.0244 73.611V60.3694C66.0244 54.1124 68.4072 48.2192 73.009 43.6174C77.4289 39.1975 83.304 36.6328 89.7611 36.6328C94.7267 36.6328 99.3285 38.1061 103.385 40.8708C107.241 43.6356 110.187 47.4916 111.843 51.9116C112.77 54.4944 113.316 57.4228 113.316 60.1875V64.4256C113.316 65.717 112.206 66.8266 110.915 66.8266C109.623 66.8266 108.532 65.717 108.532 64.4256V60.3694C108.532 58.1686 108.168 55.7677 107.241 53.7487C104.476 46.3821 97.3095 41.4165 89.3973 41.4165C84.2498 41.4165 79.648 43.4355 75.9738 46.9278C72.4815 50.4201 70.4625 55.2038 70.4625 60.3513V73.5929C70.7899 74.8843 69.6804 75.9938 68.4072 75.9938Z" fill="#1A3763"/>
<defs>
<filter id="filter0_d_242_1052" x="0" y="0" width="192" height="192" filterUnits="userSpaceOnUse" color-interpolation-filters="sRGB">
<feFlood flood-opacity="0" result="BackgroundImageFix"/>
<feColorMatrix in="SourceAlpha" type="matrix" values="0 0 0 0 0 0 0 0 0 0 0 0 0 0 0 0 0 0 127 0" result="hardAlpha"/>
<feOffset dy="4"/>
<feGaussianBlur stdDeviation="2"/>
<feComposite in2="hardAlpha" operator="out"/>
<feColorMatrix type="matrix" values="0 0 0 0 0 0 0 0 0 0 0 0 0 0 0 0 0 0 0.25 0"/>
<feBlend mode="normal" in2="BackgroundImageFix" result="effect1_dropShadow_242_1052"/>
<feBlend mode="normal" in="SourceGraphic" in2="effect1_dropShadow_242_1052" result="shape"/>
</filter>
</defs>
</svg>
