<svg width="36" height="36" viewBox="0 0 36 36" fill="none" xmlns="http://www.w3.org/2000/svg">
<path d="M34.2155 19.125L20.25 5.15954C20.0418 4.9497 19.794 4.78333 19.521 4.67011C19.2479 4.55689 18.9551 4.49907 18.6595 4.50001H5.62501C5.32664 4.50001 5.04049 4.61854 4.82952 4.82952C4.61854 5.04049 4.50001 5.32664 4.50001 5.62501V18.6595C4.49907 18.9551 4.55689 19.2479 4.67011 19.521C4.78333 19.794 4.9497 20.0418 5.15954 20.25L19.125 34.2155C19.334 34.4245 19.582 34.5902 19.855 34.7034C20.128 34.8165 20.4207 34.8747 20.7162 34.8747C21.0117 34.8747 21.3043 34.8165 21.5773 34.7034C21.8504 34.5902 22.0984 34.4245 22.3074 34.2155L34.2155 22.3074C34.4245 22.0984 34.5902 21.8504 34.7034 21.5773C34.8165 21.3043 34.8747 21.0117 34.8747 20.7162C34.8747 20.4207 34.8165 20.128 34.7034 19.855C34.5902 19.582 34.4245 19.334 34.2155 19.125ZM20.7155 32.625L6.75001 18.6595V6.75001H18.6595L32.625 20.7155L20.7155 32.625ZM13.5 11.8125C13.5 12.1463 13.401 12.4725 13.2156 12.75C13.0302 13.0275 12.7666 13.2438 12.4583 13.3716C12.1499 13.4993 11.8106 13.5327 11.4833 13.4676C11.156 13.4025 10.8553 13.2418 10.6193 13.0058C10.3833 12.7698 10.2225 12.4691 10.1574 12.1417C10.0923 11.8144 10.1257 11.4751 10.2535 11.1667C10.3812 10.8584 10.5975 10.5948 10.875 10.4094C11.1525 10.224 11.4788 10.125 11.8125 10.125C12.2601 10.125 12.6893 10.3028 13.0058 10.6193C13.3222 10.9357 13.5 11.365 13.5 11.8125Z" fill="#000100"/>
</svg>
