<svg width="24" height="24" viewBox="0 0 24 24" fill="none" xmlns="http://www.w3.org/2000/svg">
<path d="M12 0C5.37281 0 0 5.3728 0 12C0 18.6272 5.37281 24 12 24C18.6272 24 24 18.6272 24 12C24 5.3728 18.6272 0 12 0ZM18.9057 10.4989H18.9036C18.7748 10.5112 18.646 10.5177 18.5165 10.5185C17.1008 10.5185 15.7798 9.80516 15.0043 8.62021V15.0839C15.0043 17.7222 12.8652 19.8613 10.2269 19.8613C7.58861 19.8613 5.44947 17.7222 5.44947 15.0839C5.44947 12.4456 7.58789 10.3065 10.2269 10.3065C10.3267 10.3065 10.4244 10.3152 10.5221 10.3217V12.6757C10.4237 12.6641 10.3275 12.646 10.2269 12.646C8.88063 12.646 7.789 13.7376 7.789 15.0846C7.789 16.4309 8.88063 17.5226 10.2269 17.5226C11.5739 17.5226 12.7632 16.4613 12.7632 15.1143L12.7871 4.13649H15.0391C15.251 6.15627 16.8802 7.73403 18.9057 7.88161V10.4989Z" fill="white"/>
</svg>
